<?xml version="1.0" encoding="utf-8"?>
<!-- Generator: Adobe Illustrator 16.0.4, SVG Export Plug-In . SVG Version: 6.00 Build 0)  -->
<!DOCTYPE svg PUBLIC "-//W3C//DTD SVG 1.1//EN" "http://www.w3.org/Graphics/SVG/1.1/DTD/svg11.dtd">
<svg version="1.1" id="Layer_1" xmlns="http://www.w3.org/2000/svg" xmlns:xlink="http://www.w3.org/1999/xlink" x="0px" y="0px"
	 width="595.28px" height="290.768px" viewBox="0 0 595.28 290.768" enable-background="new 0 0 595.28 290.768"
	 xml:space="preserve">
<g>
	<path fill-rule="evenodd" clip-rule="evenodd" fill="#FFFFFF" d="M134.871,236.951c2.296,0.193,4.592,0.193,6.893,0.193
		c1.148,0,2.105,0,3.256,0V224.12c-3.256,0.579-6.705,0.579-10.149,0.579v-24.704c3.444,0.193,6.893,0.193,10.149,0.767v-12.638
		c-1.534-0.193-2.875-0.193-4.406-0.193h-21.638v79.084h15.895V236.951L134.871,236.951L134.871,236.951z M145.02,237.144
		c14.933-0.96,26.997-8.041,26.997-25.086c0-7.466-3.447-14.74-9.575-18.956c-5.17-3.637-11.296-4.785-17.422-4.978v12.638
		c5.552,0.96,9.956,3.83,9.956,11.681c0,7.466-4.404,10.529-9.956,11.677V237.144L145.02,237.144L145.02,237.144z"/>
	<path fill="#FFFFFF" d="M267.76,267.015v-79.084h-25.468l-15.317,45.002c-1.724,5.171-2.874,10.529-4.023,15.893
		c-1.147-6.704-3.063-13.023-5.17-19.342l-14.36-41.553h-25.087v79.084h15.129v-47.298c0-6.893-0.574-13.785-1.15-20.677h0.383
		c1.532,6.125,3.256,12.444,5.362,18.569l17.234,49.406h14.555l20.106-59.935c0.955-2.677,1.722-5.358,2.489-8.04h0.381
		c-0.381,7.085-0.764,14.17-0.957,21.251v46.724H267.76L267.76,267.015L267.76,267.015z"/>
	<path fill-rule="evenodd" clip-rule="evenodd" fill="#FFFFFF" d="M310.65,187.931h-8.807l-30.445,79.084h16.468l6.702-18.001
		h16.082v-13.018h-11.487l9.573-26.615c0.574-2.108,1.147-4.408,1.727-6.512c0,0.381,0.188,0.574,0.188,0.956V187.931
		L310.65,187.931L310.65,187.931z M351.246,267.015l-31.595-79.084h-9.001v15.894c0.383,1.34,0.768,2.874,1.342,4.215l10.148,27.956
		h-11.49v13.018h16.469l6.704,18.001H351.246L351.246,267.015L351.246,267.015z"/>
	<path fill="#FFFFFF" d="M421.903,187.931v45.764c0,10.916-2.487,22.405-16.273,22.405c-13.597,0-16.854-10.149-16.854-21.638
		v-46.531H372.69v47.872c0,22.405,10.534,32.934,32.746,32.934s31.787-11.489,31.787-32.741v-48.065H421.903L421.903,187.931
		L421.903,187.931z"/>
	<path fill="#FFFFFF" d="M443.734,265.1c6.513,2.296,13.212,3.637,19.912,3.637c15.898,0,30.064-7.274,30.064-24.7
		c0-26.616-35.23-21.446-35.23-35.997c0-7.085,6.699-9.574,12.638-9.574c5.744,0,11.104,1.529,16.467,4.018l1.147-13.019
		c-5.937-2.296-12.256-3.064-18.763-3.064c-13.983,0-27.768,6.513-27.768,22.401c0,27.194,34.468,20.301,34.468,36.575
		c0,7.66-7.081,10.723-13.593,10.723s-12.449-2.108-18.001-5.171L443.734,265.1L443.734,265.1L443.734,265.1z"/>
	<g>
		<defs>
			<rect id="SVGID_1_" x="14.232" y="24.43" width="555.69" height="244.307"/>
		</defs>
		<use xlink:href="#SVGID_1_"  overflow="visible" fill="#FFFFFF"/>
		<clipPath id="SVGID_2_">
			<use xlink:href="#SVGID_1_"  overflow="visible"/>
		</clipPath>
		<path clip-path="url(#SVGID_2_)" fill-rule="evenodd" clip-rule="evenodd" fill="#FFFFFF" d="M529.327,187.931h-8.808
			l-30.639,79.084h16.279l6.893-18.001h16.274v-13.018h-11.489l9.575-26.615c0.578-2.108,1.151-4.408,1.726-6.512
			c0,0.381,0.188,0.574,0.188,0.956V187.931L529.327,187.931L529.327,187.931z M569.922,267.015l-31.594-79.084h-9.001v15.894
			c0.386,1.34,0.767,2.874,1.342,4.215l10.147,27.956h-11.489v13.018h16.279l6.893,18.001H569.922L569.922,267.015L569.922,267.015z
			"/>
		<path clip-path="url(#SVGID_2_)" fill="#FFFFFF" d="M41.233,30.721c6.319,8.233,12.831,16.467,19.146,24.703
			c17.234-11.68,41.364-19.339,67.213-12.831C122.229,17.317,64.02,23.635,41.233,30.721L41.233,30.721L41.233,30.721z"/>
	</g>
	<path fill="#FFFFFF" d="M67.849,75.912c6.893,8.81,13.595,17.427,20.297,26.042c18.191-12.254,43.657-20.297,71.232-13.595
		C153.635,61.741,91.976,68.445,67.849,75.912L67.849,75.912L67.849,75.912z"/>
	<path fill="#FFFFFF" d="M94.658,121.103c7.086,9.191,14.171,18.382,21.445,27.382c18.957-12.83,45.958-21.445,74.87-14.171
		C184.847,106.169,120.124,113.253,94.658,121.103L94.658,121.103L94.658,121.103z"/>
	<path fill="#FFFFFF" d="M249.187,56.763c-10.915-9.575,1.529-21.829-9.384-31.401c-29.681,13.592-71.042,22.593-115.85,14.933
		C133.338,69.786,209.932,64.999,249.187,56.763L249.187,56.763L249.187,56.763z"/>
	<path fill="#FFFFFF" d="M287.867,103.488c-11.683-10.148,1.721-23.172-9.956-33.127c-31.213,14.169-75.063,23.743-122.361,15.7
		C165.317,117.273,246.312,112.103,287.867,103.488L287.867,103.488L287.867,103.488z"/>
	<path fill="#FFFFFF" d="M326.355,150.21c-12.256-10.725,1.724-24.318-10.534-35.045c-32.743,15.129-79.082,25.087-128.867,16.661
		C197.485,164.571,282.696,159.401,326.355,150.21L326.355,150.21L326.355,150.21z"/>
	<polygon fill="#FFFFFF" points="28.977,35.125 32.616,45.466 43.722,45.659 34.915,52.552 37.978,63.082 28.977,56.763 
		19.784,63.082 22.851,52.552 14.232,45.659 25.147,45.466 28.977,35.125 28.977,35.125 	"/>
	<polygon fill="#FFFFFF" points="49.274,81.275 53.678,93.913 67.083,94.104 56.36,102.34 60.189,115.165 49.274,107.508 
		38.168,115.165 41.998,102.34 31.275,94.104 44.68,93.913 49.274,81.275 49.274,81.275 	"/>
	<polygon fill="#FFFFFF" points="71.679,129.911 77.04,145.229 93.317,145.613 80.296,155.571 84.891,171.083 71.679,161.891 
		58.274,171.083 62.872,155.571 50.041,145.613 66.125,145.229 71.679,129.911 71.679,129.911 	"/>
</g>
</svg>
