<?xml version="1.0" encoding="utf-8"?>
<!-- Generator: Adobe Illustrator 16.0.4, SVG Export Plug-In . SVG Version: 6.00 Build 0)  -->
<!DOCTYPE svg PUBLIC "-//W3C//DTD SVG 1.1//EN" "http://www.w3.org/Graphics/SVG/1.1/DTD/svg11.dtd">
<svg version="1.1" id="Layer_1" xmlns="http://www.w3.org/2000/svg" xmlns:xlink="http://www.w3.org/1999/xlink" x="0px" y="0px"
	 width="58px" height="58px" viewBox="0 0 58 58" enable-background="new 0 0 58 58" xml:space="preserve">
<g id="notes">
	<g>
		<path fill="#FFFFFF" d="M51.865,23.776v25.936c0,1.781-1.76,3.261-3.539,3.261H9.675c-1.776,0-3.22-1.441-3.22-3.223V11.075
			c0-1.78,1.485-3.509,3.264-3.509h25.937V4.324H9.72c-3.559,0-6.484,3.191-6.484,6.751V49.75c0,3.561,2.884,6.447,6.439,6.447
			h38.651c3.559,0,6.781-2.925,6.781-6.485V23.776H51.865z M16.381,33.613L9.41,47.724c-0.583,1.59,0.687,3.013,2.276,2.275
			l14.102-6.976c0.607-0.117,1.197-0.354,1.668-0.824l25.053-25.07c1.257-1.257,1.257-3.299,0-4.557l-5.696-5.698
			c-1.256-1.258-3.295-1.258-4.553,0L17.208,31.942C16.736,32.414,16.501,33.005,16.381,33.613z M43.396,10.294
			c0.631-0.631,1.65-0.631,2.279,0l3.416,3.417c0.627,0.631,0.627,1.649,0,2.28l-3.416,3.417l-5.613-5.779L43.396,10.294z
			 M37.663,16.031l5.733,5.657L25.176,39.92c-2.134-2.138-5.088-5.093-5.692-5.697L37.663,16.031z M22.339,41.639l-8.706,5.274
			c-0.795,0.369-1.507-0.396-1.137-1.138l5.271-8.715L22.339,41.639z"/>
	</g>
</g>
</svg>
