<?xml version="1.0" encoding="utf-8"?>
<!-- Generator: Adobe Illustrator 16.0.4, SVG Export Plug-In . SVG Version: 6.00 Build 0)  -->
<!DOCTYPE svg PUBLIC "-//W3C//DTD SVG 1.1//EN" "http://www.w3.org/Graphics/SVG/1.1/DTD/svg11.dtd">
<svg version="1.1" id="Layer_1" xmlns="http://www.w3.org/2000/svg" xmlns:xlink="http://www.w3.org/1999/xlink" x="0px" y="0px"
	 width="58px" height="58px" viewBox="0 0 58 58" enable-background="new 0 0 58 58" xml:space="preserve">
<path id="XMLID_4491_" fill="#fff" d="M29,2.666C14.479,2.666,2.666,14.479,2.666,29c0,14.521,11.813,26.334,26.334,26.334
	c14.521,0,26.334-11.814,26.334-26.334C55.334,14.48,43.521,2.666,29,2.666z M23.884,40.043l-7.463-6.979
	c-0.384-0.359-0.404-0.963-0.048-1.351l1.453-1.565c0.36-0.39,0.969-0.41,1.354-0.047l5.211,4.896l15.923-17
	c0.359-0.385,0.963-0.405,1.35-0.046l1.552,1.445c0.388,0.36,0.409,0.967,0.048,1.353L25.234,40
	C24.872,40.385,24.268,40.404,23.884,40.043z"/>
</svg>
