<?xml version="1.0" encoding="utf-8"?>
<!-- Generator: Adobe Illustrator 16.0.0, SVG Export Plug-In . SVG Version: 6.00 Build 0)  -->
<!DOCTYPE svg PUBLIC "-//W3C//DTD SVG 1.1//EN" "http://www.w3.org/Graphics/SVG/1.1/DTD/svg11.dtd">
<svg version="1.1" id="Layer_1" xmlns="http://www.w3.org/2000/svg" xmlns:xlink="http://www.w3.org/1999/xlink" x="0px" y="0px"
	 width="58px" height="58px" viewBox="0 0 58 58" enable-background="new 0 0 58 58" xml:space="preserve">
<path fill="#FFFFFF" d="M39.2,7.937c0,2.533,2.055,4.587,4.589,4.587h5.555L39.2,2.169V7.937z"/>
<path fill="#FFFFFF" d="M43.789,14.162c-3.434,0-6.228-2.793-6.228-6.227V2.169H12.374c-2.533,0-4.588,2.053-4.588,4.587V50.58
	c0,2.535,2.056,4.589,4.588,4.589h32.382c2.535,0,4.589-2.054,4.589-4.589V14.162H43.789z M16.674,46.42l1.82-6.903l4.395,3.604
	L16.674,46.42z M23.972,41.809l-4.409-3.586l13.831-17.034l1.446,1.176l-5.099,6.271c-0.291,0.359-0.235,0.89,0.123,1.181
	c0.359,0.293,0.89,0.238,1.181-0.121l5.099-6.271l1.669,1.357L23.972,41.809z M40.025,22.021l-1.18,1.467l-4.391-3.584l1.198-1.435
	c0.798-0.864,1.681-0.954,2.647-0.273l1.446,1.142C40.59,20.161,40.681,21.056,40.025,22.021"/>
</svg>
