<?xml version="1.0" encoding="utf-8"?>
<!-- Generator: Adobe Illustrator 16.0.4, SVG Export Plug-In . SVG Version: 6.00 Build 0)  -->
<!DOCTYPE svg PUBLIC "-//W3C//DTD SVG 1.1//EN" "http://www.w3.org/Graphics/SVG/1.1/DTD/svg11.dtd">
<svg version="1.1" id="Layer_1" xmlns="http://www.w3.org/2000/svg" xmlns:xlink="http://www.w3.org/1999/xlink" x="0px" y="0px"
	 width="58px" height="58px" viewBox="0 0 58 58" enable-background="new 0 0 58 58" xml:space="preserve">
<g id="XMLID_4282_">
	<path id="XMLID_4284_" fill="#FFFFFF" d="M28.99,6.557c-12.177,0-22.075,9.688-22.428,21.773H3.42
		c-0.388,0-0.619,0.433-0.401,0.754l2.921,4.314l1.982,2.93c0.695,1.025,2.207,1.025,2.9,0l1.982-2.93l2.921-4.314
		c0.218-0.321-0.013-0.754-0.399-0.754h-3.228c0.35-9.027,7.775-16.242,16.892-16.242c4.292,0,8.211,1.602,11.192,4.237
		c0.476,0.421,1.184,0.429,1.636-0.019l2.256-2.23c0.476-0.47,0.481-1.254-0.013-1.704C40.077,8.76,34.791,6.557,28.99,6.557z"/>
	<path id="XMLID_4283_" fill="#FFFFFF" d="M54.582,28.998c0.387,0,0.617-0.433,0.399-0.754l-2.921-4.314l-1.982-2.928
		c-0.695-1.025-2.205-1.025-2.9,0l-1.982,2.928l-2.921,4.314c-0.218,0.321,0.013,0.754,0.399,0.754H45.9
		c0,9.342-7.574,16.908-16.91,16.908c-4.265,0-8.163-1.578-11.143-4.184c-0.477-0.419-1.185-0.424-1.635,0.025l-2.247,2.243
		c-0.472,0.471-0.476,1.257,0.021,1.702c3.976,3.576,9.237,5.75,15.003,5.75c12.395,0,22.439-10.05,22.439-22.445H54.582z"/>
</g>
</svg>
