<?xml version="1.0" encoding="utf-8"?>
<!-- Generator: Adobe Illustrator 16.0.4, SVG Export Plug-In . SVG Version: 6.00 Build 0)  -->
<!DOCTYPE svg PUBLIC "-//W3C//DTD SVG 1.1//EN" "http://www.w3.org/Graphics/SVG/1.1/DTD/svg11.dtd">
<svg version="1.1" id="Layer_1" xmlns="http://www.w3.org/2000/svg" xmlns:xlink="http://www.w3.org/1999/xlink" x="0px" y="0px"
	 width="72px" height="72px" viewBox="0 0 72 72" enable-background="new 0 0 72 72" xml:space="preserve">
<g id="XMLID_4446_">
	<path id="XMLID_4448_" fill="#FFFFFF" d="M37.309,54.457c5.315-8.141,16.952-23.338,16.952-32.503
		c0-10.173-8.162-18.421-18.229-18.421c-10.07,0-18.233,8.248-18.233,18.421c0,9.165,11.636,24.362,16.954,32.503
		C35.357,55.383,36.704,55.383,37.309,54.457z M25.531,21.954c0-5.859,4.701-10.608,10.5-10.608c5.796,0,10.496,4.75,10.496,10.608
		s-4.7,10.608-10.496,10.608C30.232,32.562,25.531,27.813,25.531,21.954z"/>
	<path id="XMLID_4447_" fill="#FFFFFF" d="M61.946,34.128l-7.845-2.616c-1.435,2.774-3.008,5.457-4.58,7.966
		c-3.839,6.971-9.104,14.147-12.213,18.907c-0.605,0.926-1.951,0.926-2.557,0c-2.972-4.546-7.916-11.302-11.7-17.973
		c-1.771-2.77-3.558-5.781-5.173-8.894l-7.829,2.609L0.902,68.107l17.262-7.965L36,68.467l17.836-8.324l17.263,7.965L61.946,34.128z
		"/>
</g>
</svg>
