<?xml version="1.0" encoding="utf-8"?>
<!-- Generator: Adobe Illustrator 16.0.4, SVG Export Plug-In . SVG Version: 6.00 Build 0)  -->
<!DOCTYPE svg PUBLIC "-//W3C//DTD SVG 1.1//EN" "http://www.w3.org/Graphics/SVG/1.1/DTD/svg11.dtd">
<svg version="1.1" id="Layer_1" xmlns="http://www.w3.org/2000/svg" xmlns:xlink="http://www.w3.org/1999/xlink" x="0px" y="0px"
	 width="72px" height="72px" viewBox="0 0 72 72" enable-background="new 0 0 72 72" xml:space="preserve">
<g id="XMLID_4432_">
	<path id="XMLID_4439_" fill="#FFFFFF" d="M63.794,13.029L52.619,1.677c-0.331-0.337-0.774-0.516-1.239-0.556h-31.23
		c-2.704,0-4.938,1.966-5.382,4.542h28.676h1.955c0.526,0,1.031,0.212,1.398,0.588L58.903,18.61c0.358,0.365,0.56,0.857,0.56,1.369
		v1.957v42.378c2.709-0.332,4.814-2.611,4.814-5.41V14.008C64.201,13.645,64.057,13.299,63.794,13.029z"/>
	<path id="XMLID_4438_" fill="#FFFFFF" d="M45.218,14.502c0,3.024,2.451,5.477,5.475,5.477h6.631L45.218,7.62V14.502z"/>
	<ellipse id="XMLID_4437_" fill="#FFFFFF" cx="32.358" cy="33.186" rx="6.265" ry="6.33"/>
	<path id="XMLID_4433_" fill="#FFFFFF" d="M43.263,14.502V7.62H13.198c-3.024,0-5.476,2.45-5.476,5.475v52.308
		c0,3.025,2.451,5.477,5.476,5.477h38.65c3.025,0,5.475-2.451,5.475-5.477V21.936h-6.631C46.596,21.936,43.263,18.601,43.263,14.502
		z M39.894,58.889H25.336c-0.541,0-0.979-0.439-0.979-0.979s0.438-0.979,0.979-0.979h14.558c0.542,0,0.979,0.439,0.979,0.979
		S40.436,58.889,39.894,58.889z M33.122,52.578c-0.362,0.553-1.165,0.553-1.526,0.002c-3.173-4.857-10.116-13.926-10.116-19.394
		c0-6.071,4.872-10.992,10.879-10.992s10.879,4.92,10.879,10.992C43.237,38.654,36.294,47.723,33.122,52.578z"/>
</g>
</svg>
