<?xml version="1.0" encoding="utf-8"?>
<!-- Generator: Adobe Illustrator 16.0.4, SVG Export Plug-In . SVG Version: 6.00 Build 0)  -->
<!DOCTYPE svg PUBLIC "-//W3C//DTD SVG 1.1//EN" "http://www.w3.org/Graphics/SVG/1.1/DTD/svg11.dtd">
<svg version="1.1" id="Layer_1" xmlns="http://www.w3.org/2000/svg" xmlns:xlink="http://www.w3.org/1999/xlink" x="0px" y="0px"
	 width="72px" height="72px" viewBox="0 0 72 72" enable-background="new 0 0 72 72" xml:space="preserve">
<g id="XMLID_4440_">
	<path id="XMLID_4445_" fill="#FFFFFF" d="M63.728,13.084L52.58,1.757c-0.33-0.334-0.772-0.515-1.236-0.553H20.187
		c-2.698,0-4.926,1.959-5.37,4.53h28.608h1.95c0.525,0,1.029,0.212,1.396,0.586l12.077,12.33c0.358,0.366,0.56,0.855,0.56,1.368
		v1.951v42.278c2.702-0.328,4.803-2.605,4.803-5.396V14.059C64.135,13.696,63.99,13.351,63.728,13.084z"/>
	<path id="XMLID_4444_" fill="#FFFFFF" d="M45.196,14.554c0,3.016,2.445,5.463,5.461,5.463h6.616L45.196,7.687V14.554z"/>
	<path id="XMLID_4441_" fill="#FFFFFF" d="M43.245,14.554V7.687H13.251c-3.017,0-5.462,2.446-5.462,5.461v52.184
		c0,3.018,2.446,5.464,5.462,5.464h38.56c3.018,0,5.462-2.446,5.462-5.464V21.968h-6.616C46.57,21.968,43.245,18.641,43.245,14.554z
		 M46.46,60.049H26.437c0.006-0.009,0.013-0.015,0.018-0.023c-3.78,0-6.907,0-6.907,0c-1.242-0.055-2.38-0.854-2.748-1.955
		c0.001-0.004,0-0.008,0.001-0.013c0.007-0.042,0.196-1.071,0.667-2.895c0.765-2.952,9.523-6.309,10.676-6.656
		c0.397-0.118,0.854-1.357,0.948-3.189c-0.483-0.396-0.917-0.919-1.346-1.622c-0.124-0.203-0.247-0.396-0.368-0.584
		c-0.425-0.669-0.83-1.307-1.184-2.194c-0.39-0.146-0.749-0.455-0.967-0.854c-0.76-1.396-1.201-3.629-0.888-4.51
		c0.135-0.383,0.426-0.654,0.826-0.781c-0.002-3.291,1.09-5.367,2.231-6.637c-0.023-0.114-0.012-0.237,0.029-0.347
		c0.302-1.093,1.357-1.599,2.421-1.736c0.018-0.197,0.059-0.409,0.156-0.619c0.171-0.366,0.813-0.642,1.511-0.642
		c1.083,0.019,3.913,1.148,4.538,1.421c3.132,1.241,4.975,4.435,4.973,8.592c0.357,0.14,0.616,0.398,0.741,0.751
		c0.311,0.885-0.13,3.122-0.89,4.517c-0.201,0.371-0.529,0.669-0.888,0.828c-0.364,0.9-0.792,1.565-1.203,2.211
		c-0.127,0.199-0.257,0.4-0.387,0.614c-0.401,0.66-0.789,1.154-1.203,1.526c0.05,1.696,0.428,3.079,0.91,3.276
		c0.654,0.265,1.515,0.625,2.45,1.046c3.021,1.292,7.45,3.55,7.984,5.612c0.472,1.823,0.66,2.853,0.667,2.895
		c0.002,0.005,0.002,0.009,0.002,0.013C48.841,59.195,47.701,59.991,46.46,60.049z"/>
</g>
</svg>
