<?xml version="1.0" encoding="utf-8"?>
<!-- Generator: Adobe Illustrator 16.0.4, SVG Export Plug-In . SVG Version: 6.00 Build 0)  -->
<!DOCTYPE svg PUBLIC "-//W3C//DTD SVG 1.1//EN" "http://www.w3.org/Graphics/SVG/1.1/DTD/svg11.dtd">
<svg version="1.1" id="Layer_1" xmlns="http://www.w3.org/2000/svg" xmlns:xlink="http://www.w3.org/1999/xlink" x="0px" y="0px"
	 width="72px" height="72px" viewBox="0 0 72 72" enable-background="new 0 0 72 72" xml:space="preserve">
<g id="XMLID_4627_">
	<path id="XMLID_4637_" fill="#FFFFFF" d="M16.883,36.363c-0.707,0.038-1.455,0.206-2.203,0.335v5.188
		c0.748-0.163,1.497-0.327,2.203-0.604c1.206-0.508,2.162-1.363,2.162-2.939C19.045,36.684,18.089,36.293,16.883,36.363z"/>
	<path id="XMLID_4636_" fill="#FFFFFF" d="M52.844,28.93c0-0.085-0.043-0.119-0.043-0.202c-0.125,0.493-0.25,1.028-0.373,1.521
		l-2.078,6.315l2.494-0.537l2.494-0.54l-2.205-5.693C53.01,29.526,52.924,29.206,52.844,28.93z"/>
	<path id="XMLID_4631_" fill="#FFFFFF" d="M67.084,21.075c-20.545,2.201-41.093,9.333-61.64,11.534
		c-0.342,0.036-0.62,0.342-0.62,0.682c0,5.74,0,14.814,0,20.555c0,0.342,0.277,0.591,0.62,0.555
		c20.546-2.201,41.095-9.335,61.64-11.536c0.342-0.036,0.619-0.34,0.619-0.682c0-5.741,0-14.812,0-20.553
		C67.703,21.288,67.426,21.039,67.084,21.075z M16.883,44.026c-0.25,0.053-0.457,0.098-0.707,0.152
		c-0.499,0.106-0.999,0.215-1.497,0.281l0.024,6.384l-3.502,0.565l0.026-16.635l4.698-0.895c0.333-0.077,0.624-0.143,0.956-0.179
		c1.33-0.264,2.66-0.327,3.783,0.187c1.331,0.591,2.079,1.966,2.079,3.551C22.745,41.057,20.125,43.125,16.883,44.026z M43.531,44.8
		l-3.451,0.714V35.371c0.043-1.547,0.125-3.104,0.209-4.661l-0.084,0.019c-0.168,0.621-0.332,1.241-0.541,1.868L35.3,46.503
		l-3.16,0.654l-3.742-9.789c-0.457-1.209-0.831-2.476-1.163-3.707l-0.084,0.019c0.125,1.442,0.25,2.888,0.25,4.359v10.1
		l-3.285,0.683V32.004l5.447-1.247l3.118,8.22c0.457,1.26,0.874,2.53,1.122,3.922c0.25-1.209,0.499-2.418,0.874-3.612l3.325-10.463
		l5.529-1.269V44.8z M57.875,41.827l-1.457-3.686l-3.574,0.758l-3.492,0.74l-1.455,4.255l-3.576,0.741l6.609-18.773l1.914-0.44
		l2.006-0.387l6.883,16.121L57.875,41.827z"/>
	<path id="XMLID_4630_" fill="#FFFFFF" d="M11.575,29.892c5.968-0.909,11.969-2.146,17.897-3.46v-13.62h6.419V1.192H3.417v11.619
		h8.158V29.892z"/>
	<path id="XMLID_4629_" fill="#FFFFFF" d="M41.191,1.192v11.619h6.674v9.532c4.086-0.852,8.199-1.63,12.312-2.261l0,0
		c2.15-0.329,4.297-0.622,6.441-0.855c-2.148-0.685-4.295-1.312-6.441-1.899v-4.517h8.404V1.192H41.191z"/>
	<path id="XMLID_4628_" fill="#FFFFFF" d="M47.197,53.304c-0.443,1.681-1.439,3.083-2.992,4.202
		c-1.547,1.122-3.492,1.681-5.832,1.681c-2.275,0-4.153-0.593-5.637-1.778c-1.482-1.188-2.397-2.696-2.744-4.525
		c-0.05-0.263-0.096-0.559-0.138-0.871c-5.826,1.288-11.729,2.496-17.628,3.397l0.001,0.002c-2.197,0.336-4.393,0.633-6.583,0.869
		c-0.09,0.008-0.179,0.013-0.266,0.013c-0.047,0-0.09-0.011-0.137-0.013c2.648,0.854,5.295,1.625,7.942,2.337
		c0.599,1.436,1.429,2.879,2.495,4.327c1.748,2.373,4.408,4.276,7.985,5.711c3.577,1.434,7.903,2.152,12.979,2.152
		c4.383,0,8.264-0.652,11.643-1.955c3.377-1.302,5.959-3,7.736-5.092c1.781-2.093,2.92-4.202,3.412-6.329
		c0.496-2.125,0.744-5.528,0.744-10.21v-1.523c-4.133,0.647-8.277,1.446-12.402,2.319C47.674,50.476,47.48,52.241,47.197,53.304z"/>
</g>
</svg>
