<?xml version="1.0" encoding="utf-8"?>
<!-- Generator: Adobe Illustrator 16.0.4, SVG Export Plug-In . SVG Version: 6.00 Build 0)  -->
<!DOCTYPE svg PUBLIC "-//W3C//DTD SVG 1.1//EN" "http://www.w3.org/Graphics/SVG/1.1/DTD/svg11.dtd">
<svg version="1.1" id="Layer_1" xmlns="http://www.w3.org/2000/svg" xmlns:xlink="http://www.w3.org/1999/xlink" x="0px" y="0px"
	 width="72px" height="72px" viewBox="0 0 72 72" enable-background="new 0 0 72 72" xml:space="preserve">
<g id="XMLID_4413_">
	<g id="XMLID_4420_">
		<path fill="#FFFFFF" d="M24.025,49.327L5.984,49.312c-1.501-0.069-3.511-1.036-3.323-2.364c0-0.004,0-0.01,0.001-0.016
			c0.009-0.052,0.237-1.296,0.807-3.502c0.924-3.569,11.519-7.631,12.914-8.05c0.48-0.143,1.033-1.643,1.147-3.858
			c-0.584-0.479-1.109-1.113-1.628-1.962c-0.15-0.245-0.297-0.479-0.444-0.707c-0.515-0.811-1.004-1.579-1.432-2.655
			c-0.472-0.176-0.906-0.55-1.169-1.031c-0.919-1.688-1.452-4.391-1.074-5.457c0.163-0.464,0.514-0.789,0.999-0.944
			c-0.003-3.979,1.318-6.49,2.698-8.026c-0.028-0.141-0.014-0.288,0.035-0.421c0.365-1.321,1.643-1.933,2.929-2.101
			c0.021-0.238,0.071-0.496,0.189-0.747c0.207-0.443,0.984-0.776,1.828-0.776c1.31,0.021,4.733,1.387,5.489,1.72
			c2.055,0.813,3.63,2.34,4.661,4.354c0.384-0.441,0.879-0.768,1.422-0.992c-1.222-2.278-3.065-4.022-5.448-4.965l0,0
			c0.003,0-4.189-1.81-6.094-1.841c-1.586,0-2.917,0.695-3.42,1.771c-0.002,0.006-0.004,0.01-0.006,0.015
			c-1.629,0.5-2.767,1.572-3.195,3.048c-0.027,0.082-0.05,0.169-0.069,0.253c-1.226,1.536-2.518,4.007-2.715,7.713
			c-0.418,0.361-0.735,0.823-0.927,1.368c-0.601,1.695,0.129,4.915,1.187,6.854c0.32,0.586,0.788,1.087,1.338,1.446
			c0.42,0.921,0.875,1.638,1.319,2.333c0.145,0.229,0.288,0.453,0.432,0.688c0.417,0.683,0.852,1.263,1.314,1.751
			c-0.093,0.811-0.243,1.385-0.361,1.693C12.997,34.755,2.94,38.594,1.8,42.997c-0.604,2.337-0.833,3.628-0.836,3.64
			c-0.009,0.054-0.017,0.113-0.021,0.172c-0.083,0.834,0.179,1.645,0.738,2.318c1.021,1.23,2.858,1.844,4.225,1.906l14.383,0.013
			C21.594,50.392,22.871,49.816,24.025,49.327z"/>
	</g>
	<g id="XMLID_4417_">
		<path fill="#FFFFFF" d="M71.023,46.698c-0.002-0.017-0.004-0.034-0.008-0.049c0,0-0.225-1.274-0.834-3.624
			c-0.651-2.521-4.234-5.195-10.646-7.939c-0.967-0.435-1.882-0.823-2.631-1.132c-0.119-0.309-0.274-0.936-0.352-1.849
			c0.398-0.453,0.784-0.987,1.166-1.616c0.141-0.229,0.278-0.447,0.417-0.664c0.46-0.717,0.946-1.48,1.389-2.443
			c0.505-0.354,0.93-0.827,1.23-1.379c1.059-1.942,1.789-5.162,1.19-6.862c-0.177-0.494-0.457-0.925-0.823-1.271
			c-0.271-5.299-2.874-9.396-7.08-11.061l0,0c0.002,0-4.188-1.81-6.095-1.841c-0.012,0-0.019,0-0.03,0
			c-1.557,0-2.889,0.695-3.39,1.771c-0.002,0.006-0.004,0.01-0.008,0.015c-1.628,0.5-2.765,1.572-3.195,3.048
			c-0.026,0.082-0.049,0.169-0.067,0.253c-0.562,0.703-1.13,1.61-1.609,2.733c0.655,0.245,1.217,0.468,1.605,0.628
			c0.479-1.109,1.072-1.996,1.684-2.679c-0.026-0.141-0.015-0.288,0.036-0.421c0.364-1.321,1.641-1.933,2.928-2.101
			c0.022-0.238,0.071-0.496,0.188-0.747c0.208-0.443,0.986-0.776,1.828-0.776c1.31,0.021,4.733,1.387,5.489,1.72
			c3.788,1.5,6.017,5.361,6.015,10.393c0.433,0.166,0.747,0.479,0.896,0.907c0.378,1.07-0.155,3.775-1.074,5.463
			c-0.247,0.449-0.642,0.811-1.075,1.001c-0.442,1.089-0.956,1.894-1.456,2.676c-0.153,0.241-0.309,0.484-0.466,0.742
			c-0.486,0.799-0.956,1.396-1.455,1.849c0.06,2.051,0.516,3.725,1.1,3.961c0.793,0.321,1.83,0.757,2.966,1.267
			c3.649,1.563,9.01,4.293,9.655,6.787c0.57,2.205,0.799,3.449,0.809,3.502c0,0.006,0,0.012,0,0.015
			c0.284,1.301-1.822,2.296-3.323,2.365H48.835c1.347,0.578,2.558,1.152,3.7,1.723h13.463c1.475-0.065,3.43-0.724,4.427-2.021
			C70.964,48.341,71.175,47.512,71.023,46.698z"/>
	</g>
	<g id="XMLID_4414_">
		<path fill="#FFFFFF" d="M60.161,59.616c-0.815-3.145-7.569-6.585-12.172-8.557c-1.432-0.643-2.739-1.192-3.738-1.599
			c-0.737-0.297-1.313-2.407-1.388-4.993c0.628-0.568,1.22-1.322,1.833-2.329c0.198-0.323,0.395-0.632,0.588-0.938
			c0.63-0.983,1.279-1.998,1.835-3.369c0.548-0.241,1.046-0.695,1.356-1.263c1.158-2.127,1.83-5.538,1.354-6.887
			c-0.19-0.542-0.586-0.936-1.13-1.145c0.004-6.341-2.807-11.211-7.583-13.102c-0.952-0.42-5.267-2.141-6.919-2.169
			c-1.063,0-2.043,0.421-2.305,0.98c-0.148,0.316-0.209,0.64-0.238,0.941c-1.622,0.211-3.232,0.983-3.692,2.646
			c-0.062,0.171-0.079,0.355-0.044,0.532c-1.739,1.936-3.404,5.102-3.401,10.119c-0.61,0.194-1.053,0.606-1.258,1.189
			c-0.477,1.346,0.194,4.754,1.354,6.882c0.333,0.605,0.88,1.077,1.474,1.298c0.541,1.356,1.157,2.325,1.806,3.345
			c0.185,0.29,0.372,0.584,0.561,0.893c0.654,1.072,1.315,1.873,2.052,2.476c-0.143,2.793-0.84,4.683-1.446,4.864
			c-1.758,0.527-15.114,5.646-16.279,10.147c-0.719,2.78-1.006,4.35-1.017,4.415c-0.001,0.006,0,0.014-0.001,0.019
			c0.011,1.583,2.296,2.895,4.188,2.98l41.04,0.036c1.893-0.087,4.274-1.194,4.188-2.98c0-0.006,0-0.014,0-0.021
			C61.168,63.966,60.88,62.395,60.161,59.616z"/>
	</g>
</g>
</svg>
