<?xml version="1.0" encoding="utf-8"?>
<!-- Generator: Adobe Illustrator 16.0.4, SVG Export Plug-In . SVG Version: 6.00 Build 0)  -->
<!DOCTYPE svg PUBLIC "-//W3C//DTD SVG 1.1//EN" "http://www.w3.org/Graphics/SVG/1.1/DTD/svg11.dtd">
<svg version="1.1" id="Layer_1" xmlns="http://www.w3.org/2000/svg" xmlns:xlink="http://www.w3.org/1999/xlink" x="0px" y="0px"
	 width="58px" height="58px" viewBox="0 0 58 58" enable-background="new 0 0 58 58" xml:space="preserve">
<g id="activities">
	<g>
		<path fill="#020151" d="M30.797,28.099v-8.931c0-0.951-0.771-1.724-1.723-1.724c-0.953,0-1.723,0.772-1.723,1.724v8.931
			c-2.002,0.712-3.446,2.604-3.446,4.853c0,2.855,2.313,5.169,5.169,5.169s5.169-2.313,5.169-5.169
			C34.243,30.703,32.799,28.811,30.797,28.099z M30.78,10.639c0.001-0.03,0.017-0.056,0.017-0.086V7.106h6.893
			c0.951,0,1.723-0.771,1.723-1.723s-0.771-1.723-1.723-1.723h-17.23c-0.953,0-1.723,0.771-1.723,1.723s0.771,1.723,1.723,1.723
			h6.892v3.446c0,0.03,0.015,0.056,0.017,0.086C15.799,11.514,6.676,21.156,6.676,32.951c0,12.371,10.028,22.398,22.398,22.398
			s22.398-10.027,22.398-22.398C51.473,21.156,42.35,11.514,30.78,10.639z M29.074,51.903c-10.467,0-18.953-8.485-18.953-18.952
			s8.485-18.952,18.953-18.952c10.467,0,18.952,8.485,18.952,18.952S39.541,51.903,29.074,51.903z"/>
	</g>
</g>
</svg>
