<?xml version="1.0" encoding="utf-8"?>
<!-- Generator: Adobe Illustrator 16.0.4, SVG Export Plug-In . SVG Version: 6.00 Build 0)  -->
<!DOCTYPE svg PUBLIC "-//W3C//DTD SVG 1.1//EN" "http://www.w3.org/Graphics/SVG/1.1/DTD/svg11.dtd">
<svg version="1.1" id="Layer_1" xmlns="http://www.w3.org/2000/svg" xmlns:xlink="http://www.w3.org/1999/xlink" x="0px" y="0px"
	 width="58px" height="58px" viewBox="0 0 58 58" enable-background="new 0 0 58 58" xml:space="preserve">
<g id="add">
	<g>
		<path fill="#FFFFFF" d="M38.489,28.479h-7.563v-7.564c0-0.836-0.677-1.513-1.513-1.513s-1.514,0.677-1.514,1.513v7.564h-7.563
			c-0.836,0-1.513,0.678-1.513,1.513c0,0.837,0.677,1.513,1.513,1.513h7.563v7.564c0,0.836,0.678,1.513,1.514,1.513
			s1.513-0.677,1.513-1.513v-7.564h7.563c0.837,0,1.514-0.676,1.514-1.513C40.003,29.156,39.326,28.479,38.489,28.479z
			 M29.413,5.786c-13.37,0-24.205,10.838-24.205,24.205c0,13.368,10.835,24.206,24.205,24.206c13.367,0,24.205-10.838,24.205-24.206
			C53.618,16.624,42.78,5.786,29.413,5.786z M29.413,51.171c-11.698,0-21.18-9.481-21.18-21.18c0-11.696,9.481-21.179,21.18-21.179
			c11.697,0,21.179,9.482,21.179,21.179C50.592,41.689,41.11,51.171,29.413,51.171z"/>
	</g>
</g>
</svg>
