<?xml version="1.0" encoding="utf-8"?>
<!-- Generator: Adobe Illustrator 16.0.4, SVG Export Plug-In . SVG Version: 6.00 Build 0)  -->
<!DOCTYPE svg PUBLIC "-//W3C//DTD SVG 1.1//EN" "http://www.w3.org/Graphics/SVG/1.1/DTD/svg11.dtd">
<svg version="1.1" id="Layer_1" xmlns="http://www.w3.org/2000/svg" xmlns:xlink="http://www.w3.org/1999/xlink" x="0px" y="0px"
	 width="58px" height="58px" viewBox="0 0 58 58" enable-background="new 0 0 58 58" xml:space="preserve">
<g id="call">
	<g>
		<path fill="#FFFFFF" d="M49.943,48.578l-7.601-8.9c-1.312-1.395-3.025-2.006-4.57-1.031l-3.313,2.088
			c-2.638-3.074-5.517-6.744-7.974-10.617c-2.173-3.428-3.981-7.019-5.429-10.268l3.427-2.159c1.545-0.976,1.727-2.78,1.027-4.56
			L20.709,2.469c-0.979-1.545-3.026-2.007-4.572-1.031l-5.598,3.528c-3.093,1.949-2.556,5.228-2.055,9.117
			c0,0,3.877,12.099,10.177,22.032c6.697,10.562,15.514,18.486,15.514,18.486c2.949,2.463,6.051,4.012,9.143,2.061l5.597-3.527
			C50.462,52.162,51.238,49.979,49.943,48.578z M45.363,51.463l-3.562,2.244c-0.984,0.623-3.897-0.078-4.825-0.869
			c0,0-11.712-11.631-16.089-19.193c-3.845-6.337-8.061-15.587-9.604-21.326c-0.332-1.334-0.099-3.904,1.283-4.719l3.562-2.244
			c0.984-0.622,2.347-0.598,2.909,0.655l3.056,6.784c0.446,1.132,0.331,2.281-0.653,2.9l-4.497,2.834
			c4.752,13.836,16.229,25.698,16.94,26.479l4.389-2.766c0.984-0.621,2.075-0.23,2.908,0.656l4.839,5.662
			C46.722,49.492,46.19,50.594,45.363,51.463z"/>
	</g>
</g>
</svg>
