<?xml version="1.0" encoding="utf-8"?>
<!-- Generator: Adobe Illustrator 16.0.4, SVG Export Plug-In . SVG Version: 6.00 Build 0)  -->
<!DOCTYPE svg PUBLIC "-//W3C//DTD SVG 1.1//EN" "http://www.w3.org/Graphics/SVG/1.1/DTD/svg11.dtd">
<svg version="1.1" id="Layer_1" xmlns="http://www.w3.org/2000/svg" xmlns:xlink="http://www.w3.org/1999/xlink" x="0px" y="0px"
	 width="58px" height="58px" viewBox="0 0 58 58" enable-background="new 0 0 58 58" xml:space="preserve">
<g id="close">
	<g>
		<path fill="#000" d="M38.294,20.432c-0.641-0.641-1.68-0.641-2.32,0l-7,6.998l-6.9-6.899c-0.635-0.636-1.668-0.636-2.303,0
			c-0.635,0.635-0.635,1.667,0,2.304l6.9,6.898l-6.947,6.949c-0.641,0.643-0.641,1.68,0,2.32c0.641,0.643,1.68,0.643,2.322,0
			l6.947-6.947l6.9,6.902c0.635,0.637,1.668,0.637,2.303,0c0.637-0.637,0.637-1.668,0-2.305l-6.9-6.9l6.998-7
			C38.935,22.112,38.935,21.073,38.294,20.432z M28.983,3.684c-14.393,0-26.059,11.668-26.059,26.059
			c0,14.392,11.666,26.06,26.059,26.06s26.059-11.668,26.059-26.06C55.042,15.352,43.376,3.684,28.983,3.684z M28.983,52.545
			c-12.594,0-22.801-10.209-22.801-22.802c0-12.592,10.207-22.801,22.801-22.801s22.801,10.209,22.801,22.801
			C51.784,42.336,41.577,52.545,28.983,52.545z"/>
	</g>
</g>
</svg>
