<?xml version="1.0" encoding="utf-8"?>
<!-- Generator: Adobe Illustrator 16.0.4, SVG Export Plug-In . SVG Version: 6.00 Build 0)  -->
<!DOCTYPE svg PUBLIC "-//W3C//DTD SVG 1.1//EN" "http://www.w3.org/Graphics/SVG/1.1/DTD/svg11.dtd">
<svg version="1.1" id="Layer_1" xmlns="http://www.w3.org/2000/svg" xmlns:xlink="http://www.w3.org/1999/xlink" x="0px" y="0px"
	 width="58px" height="58px" viewBox="0 0 58 58" enable-background="new 0 0 58 58" xml:space="preserve">
<g id="contactlist">
	<g>
		<path fill="#020151" d="M40.688,16.66h13c0.898,0,1.625-0.727,1.625-1.625c0-0.896-0.727-1.625-1.625-1.625h-13
			c-0.898,0-1.625,0.729-1.625,1.625C39.062,15.933,39.789,16.66,40.688,16.66z M53.688,32.91h-9.75
			c-0.898,0-1.625,0.729-1.625,1.625c0,0.898,0.727,1.625,1.625,1.625h9.75c0.898,0,1.625-0.727,1.625-1.625
			C55.312,33.639,54.586,32.91,53.688,32.91z M32.482,30.232c2.079-2.807,3.33-6.403,3.33-10.323c0-8.975-6.548-16.25-14.625-16.25
			S6.562,10.935,6.562,19.91c0,3.92,1.25,7.516,3.329,10.323c-3.818,1.32-6.579,4.908-6.579,9.178v6.5c0,5.385,4.366,9.75,9.75,9.75
			h16.25c5.384,0,9.75-4.365,9.75-9.75v-6.5C39.062,35.141,36.301,31.553,32.482,30.232z M9.812,19.91c0-7.18,5.092-13,11.375-13
			s11.375,5.82,11.375,13s-5.093,13-11.375,13S9.812,27.089,9.812,19.91z M35.812,45.098c0,4.039-3.572,7.312-7.978,7.312H14.54
			c-4.405,0-7.978-3.273-7.978-7.312v-4.875c0-3.455,2.622-6.332,6.135-7.098c2.396,1.904,5.321,3.035,8.49,3.035
			s6.094-1.131,8.49-3.035c3.513,0.766,6.135,3.643,6.135,7.098V45.098z M53.688,23.16h-13c-0.898,0-1.625,0.727-1.625,1.625
			s0.727,1.625,1.625,1.625h13c0.898,0,1.625-0.727,1.625-1.625S54.586,23.16,53.688,23.16z M53.688,42.66h-9.75
			c-0.898,0-1.625,0.729-1.625,1.625c0,0.898,0.727,1.625,1.625,1.625h9.75c0.898,0,1.625-0.727,1.625-1.625
			C55.312,43.389,54.586,42.66,53.688,42.66z"/>
	</g>
</g>
</svg>
