<?xml version="1.0" encoding="utf-8"?>
<!-- Generator: Adobe Illustrator 16.0.4, SVG Export Plug-In . SVG Version: 6.00 Build 0)  -->
<!DOCTYPE svg PUBLIC "-//W3C//DTD SVG 1.1//EN" "http://www.w3.org/Graphics/SVG/1.1/DTD/svg11.dtd">
<svg version="1.1" id="Layer_1" xmlns="http://www.w3.org/2000/svg" xmlns:xlink="http://www.w3.org/1999/xlink" x="0px" y="0px"
	 width="58px" height="58px" viewBox="0 0 58 58" enable-background="new 0 0 58 58" xml:space="preserve">
<g id="disposition">
	<path fill="#fff" d="M40.518,25.99c0,5.161-10.463,21.279-12.511,21.268c-2.08,0.011-12.51-16.038-12.51-21.268
		c0-6.909,5.603-12.51,12.51-12.51c2.045,0,3.969,0.501,5.674,1.37c0.474-0.737,1.091-1.37,1.819-1.856
		c-2.206-1.275-4.76-2.016-7.493-2.016c-8.291,0-15.012,6.722-15.012,15.012c0,6.278,12.516,25.035,15.012,25.021
		C30.464,51.024,43.02,32.183,43.02,25.99c0-0.905-0.094-1.786-0.247-2.647c-0.692,0.516-1.492,0.893-2.362,1.091
		C40.474,24.944,40.518,25.461,40.518,25.99z"/>
	<path fill-rule="evenodd" clip-rule="evenodd" fill="#ffffff" d="M26.922,24.812l12.093-12.093c0.664-0.665,1.518-0.658,2.177,0
		l3.267,3.267c0.657,0.658,0.665,1.513,0,2.177L32.366,30.256l-6.022,1.667c-0.835,0.179-1.268-0.253-1.088-1.089L26.922,24.812
		 M28.126,25.785l-1.229,4.495l4.496-1.229L28.126,25.785 M42.824,17.619c0.565-0.56,0.53-0.55,0.001-1.089l-2.178-2.177
		c-0.517-0.551-0.567-0.555-1.089,0l-2.177,2.178l3.266,3.267L42.824,17.619z M32.481,27.962l7.077-7.075l-3.267-3.268l-7.077,7.077
		C29.532,25.013,31.364,26.843,32.481,27.962z"/>
	<g>
		<!--<path fill="#000" d="M29,56.979C14.124,56.979,2.021,44.877,2.021,30C2.021,15.124,14.124,3.021,29,3.021
			c14.877,0,26.979,12.103,26.979,26.979C55.979,44.877,43.877,56.979,29,56.979z M29,5.021C15.226,5.021,4.021,16.226,4.021,30
			c0,13.773,11.206,24.979,24.979,24.979c13.773,0,24.979-11.206,24.979-24.979C53.979,16.226,42.773,5.021,29,5.021z"/>-->
	</g>
</g>
</svg>
