<?xml version="1.0" encoding="utf-8"?>
<!-- Generator: Adobe Illustrator 16.0.4, SVG Export Plug-In . SVG Version: 6.00 Build 0)  -->
<!DOCTYPE svg PUBLIC "-//W3C//DTD SVG 1.1//EN" "http://www.w3.org/Graphics/SVG/1.1/DTD/svg11.dtd">
<svg version="1.1" id="Layer_1" xmlns="http://www.w3.org/2000/svg" xmlns:xlink="http://www.w3.org/1999/xlink" x="0px" y="0px"
	 width="58px" height="58px" viewBox="0 0 58 58" enable-background="new 0 0 58 58" xml:space="preserve">
<g id="edit-with-O">
	<g>
		<path fill="#FFFFFF" d="M21.646,31.233l-4.103,8.304c-0.343,0.936,0.404,1.772,1.339,1.339l8.298-4.105
			c0.357-0.068,0.705-0.208,0.982-0.484l14.742-14.753c0.739-0.739,0.739-1.941,0-2.681l-3.352-3.353c-0.739-0.74-1.939-0.74-2.68,0
			L22.131,30.25C21.854,30.527,21.716,30.875,21.646,31.233z M37.542,17.511c0.371-0.371,0.972-0.371,1.342,0l2.01,2.011
			c0.369,0.372,0.369,0.971,0,1.342l-2.01,2.011l-3.304-3.401L37.542,17.511z M34.168,20.888l3.374,3.329L26.821,34.944
			c-1.256-1.258-2.994-2.996-3.35-3.353L34.168,20.888z M25.151,35.956l-5.123,3.104c-0.468,0.218-0.887-0.232-0.669-0.669
			l3.102-5.129L25.151,35.956z M42.525,40.707c0,1.048-1.035,1.918-2.082,1.918H17.699c-1.045,0-1.895-0.848-1.895-1.896V17.971
			c0-1.048,0.874-2.065,1.92-2.065h15.262v-1.908H17.725c-2.094,0-3.815,1.878-3.815,3.973v22.758c0,2.095,1.697,3.793,3.789,3.793
			h22.744c2.094,0,3.99-1.721,3.99-3.815V25.445h-1.908V40.707z M29,3.021C14.124,3.021,2.021,15.124,2.021,30
			c0,14.877,12.103,26.979,26.979,26.979c14.877,0,26.979-12.103,26.979-26.979C55.979,15.124,43.877,3.021,29,3.021z M29,54.979
			C15.226,54.979,4.021,43.773,4.021,30C4.021,16.226,15.226,5.021,29,5.021c13.773,0,24.979,11.206,24.979,24.979
			C53.979,43.773,42.773,54.979,29,54.979z"/>
	</g>
</g>
</svg>
