<?xml version="1.0" encoding="utf-8"?>
<!-- Generator: Adobe Illustrator 16.0.4, SVG Export Plug-In . SVG Version: 6.00 Build 0)  -->
<!DOCTYPE svg PUBLIC "-//W3C//DTD SVG 1.1//EN" "http://www.w3.org/Graphics/SVG/1.1/DTD/svg11.dtd">
<svg version="1.1" id="Layer_1" xmlns="http://www.w3.org/2000/svg" xmlns:xlink="http://www.w3.org/1999/xlink" x="0px" y="0px"
	 width="58px" height="58px" viewBox="0 0 58 58" enable-background="new 0 0 58 58" xml:space="preserve">
<g id="exdendedcards">
	<g>
		<path fill="#FFFFFF" d="M40.923,38.625c0,1.244-1.009,2.252-2.253,2.252H20.652c-1.244,0-2.252-1.008-2.252-2.252V20.607
			c0-1.244,1.008-2.252,2.252-2.252h2.252v-2.252h-2.252c-2.487,0-4.504,2.017-4.504,4.504v18.018c0,2.488,2.017,4.505,4.504,4.505
			H38.67c2.488,0,4.505-2.017,4.505-4.505v-2.252h-2.252V38.625z M47.68,7.093H29.661c-2.488,0-4.504,2.017-4.504,4.505v18.018
			c0,2.487,2.017,4.505,4.504,4.505H47.68c2.487,0,4.504-2.018,4.504-4.505V11.598C52.184,9.11,50.167,7.093,47.68,7.093z
			 M49.932,29.616c0,1.243-1.008,2.253-2.252,2.253H29.661c-1.244,0-2.252-1.01-2.252-2.253V11.598c0-1.244,1.009-2.252,2.252-2.252
			H47.68c1.244,0,2.252,1.008,2.252,2.252V29.616z M31.914,47.635c0,1.244-1.01,2.252-2.253,2.252H11.643
			c-1.244,0-2.252-1.008-2.252-2.252V29.616c0-1.244,1.008-2.252,2.252-2.252h2.252v-2.252h-2.252c-2.487,0-4.504,2.017-4.504,4.504
			v18.019c0,2.487,2.017,4.504,4.504,4.504h18.019c2.487,0,4.505-2.017,4.505-4.504v-2.252h-2.252V47.635z"/>
	</g>
</g>
</svg>
