<?xml version="1.0" encoding="utf-8"?>
<!-- Generator: Adobe Illustrator 16.0.4, SVG Export Plug-In . SVG Version: 6.00 Build 0)  -->
<!DOCTYPE svg PUBLIC "-//W3C//DTD SVG 1.1//EN" "http://www.w3.org/Graphics/SVG/1.1/DTD/svg11.dtd">
<svg version="1.1" id="Layer_1" xmlns="http://www.w3.org/2000/svg" xmlns:xlink="http://www.w3.org/1999/xlink" x="0px" y="0px"
	 width="58px" height="58px" viewBox="0 0 58 58" enable-background="new 0 0 58 58" xml:space="preserve">
<g id="filter">
	<g>
		<path fill="#FFFFFF" d="M29,55.979C14.124,55.979,2.021,43.877,2.021,29C2.021,14.124,14.124,2.021,29,2.021
			c14.877,0,26.979,12.103,26.979,26.979C55.979,43.877,43.877,55.979,29,55.979z M29,4.021C15.226,4.021,4.021,15.226,4.021,29
			c0,13.773,11.206,24.979,24.979,24.979c13.773,0,24.979-11.206,24.979-24.979C53.979,15.226,42.773,4.021,29,4.021z"/>
	</g>
	<path fill="#FFFFFF" d="M31.807,47.199c-0.605,0-1.155-0.234-1.55-0.664l-5.591-5.588c-0.414-0.416-0.642-0.959-0.642-1.529V29.082
		L13.443,18.501c-0.621-0.589-0.817-1.547-0.473-2.373c0.353-0.811,1.138-1.327,2.002-1.327H43.03c0.864,0,1.648,0.517,1.997,1.315
		c0.349,0.838,0.152,1.796-0.482,2.398L33.978,29.082v15.947c0,0.863-0.517,1.648-1.315,1.996
		C32.431,47.113,32.133,47.199,31.807,47.199z M14.972,16.337c-0.25,0-0.487,0.157-0.589,0.393c-0.096,0.23-0.045,0.504,0.13,0.67
		L25.56,28.446v10.972c0,0.16,0.068,0.32,0.192,0.443l5.61,5.611c0.127,0.137,0.266,0.191,0.444,0.191
		c0.057,0,0.159-0.018,0.279-0.061c0.197-0.088,0.355-0.324,0.355-0.574V28.446l11.032-11.031c0.19-0.182,0.241-0.455,0.142-0.697
		c-0.099-0.224-0.335-0.381-0.585-0.381H14.972z"/>
</g>
</svg>
