<?xml version="1.0" encoding="utf-8"?>
<!-- Generator: Adobe Illustrator 16.0.4, SVG Export Plug-In . SVG Version: 6.00 Build 0)  -->
<!DOCTYPE svg PUBLIC "-//W3C//DTD SVG 1.1//EN" "http://www.w3.org/Graphics/SVG/1.1/DTD/svg11.dtd">
<svg version="1.1" id="Layer_1" xmlns="http://www.w3.org/2000/svg" xmlns:xlink="http://www.w3.org/1999/xlink" x="0px" y="0px"
	 width="58px" height="58px" viewBox="0 0 58 58" enable-background="new 0 0 58 58" xml:space="preserve">
<g id="help">
	<g>
		<path fill="#c1c1c1" d="M29.36,3.075c-14.473,0-26.242,11.77-26.242,26.242c0,14.469,11.77,26.238,26.242,26.238
			c14.469,0,26.238-11.77,26.238-26.238C55.599,14.845,43.829,3.075,29.36,3.075L29.36,3.075z M29.36,53.202
			c-13.173,0-23.89-10.717-23.89-23.885c0-13.172,10.717-23.885,23.89-23.885c13.168,0,23.886,10.713,23.886,23.881
			C53.246,42.485,42.528,53.202,29.36,53.202L29.36,53.202z M29.36,53.202"/>
		<path fill="#c1c1c1" d="M29.55,13.179c-2.204,0-4.586,0.605-6.108,1.537l0.688,1.812c1.273-0.723,2.973-1.166,4.555-1.166
			c3.27,0.055,5.222,1.845,5.222,4.794c0,2.394-1.292,4.386-3.529,7.021c-2.175,2.607-3.127,5.25-2.843,7.857l0.056,0.683h2.501
			l-0.023-0.591c-0.156-2.679,0.706-4.941,2.902-7.529c2.334-2.777,3.995-4.973,3.995-7.973
			C36.959,16.649,35.018,13.179,29.55,13.179L29.55,13.179z M29.55,13.179"/>
		<path fill="#c1c1c1" d="M28.827,40.714c-1.349,0-2.25,0.959-2.25,2.39c0,1.384,0.906,2.349,2.203,2.349
			c1.347,0,2.251-0.941,2.251-2.349C31.031,41.673,30.146,40.714,28.827,40.714L28.827,40.714z M28.827,40.714"/>
	</g>
</g>
</svg>
