<?xml version="1.0" encoding="utf-8"?>
<!-- Generator: Adobe Illustrator 16.0.4, SVG Export Plug-In . SVG Version: 6.00 Build 0)  -->
<!DOCTYPE svg PUBLIC "-//W3C//DTD SVG 1.1//EN" "http://www.w3.org/Graphics/SVG/1.1/DTD/svg11.dtd">
<svg version="1.1" id="Layer_1" xmlns="http://www.w3.org/2000/svg" xmlns:xlink="http://www.w3.org/1999/xlink" x="0px" y="0px"
	 width="58px" height="58px" viewBox="0 0 58 58" enable-background="new 0 0 58 58" xml:space="preserve">
<g id="history">
	<g>
		<path fill="#FFFFFF" d="M30.262,31.385l11.869-13.418c0.595-0.672,0.532-1.698-0.141-2.293c-0.672-0.594-1.699-0.533-2.294,0.141
			L28.904,28.014L19.168,19.4c-0.674-0.595-1.7-0.53-2.295,0.142c-0.595,0.673-0.532,1.698,0.141,2.294l10.955,9.689
			C28.642,32.12,29.667,32.058,30.262,31.385z M14.934,43.809l2.434,2.153l2.154-2.435l-2.435-2.153L14.934,43.809z M10.436,28.617
			l0.191,3.179l3.178-0.198l-0.191-3.178L10.436,28.617z M29.658,14.145L29.459,10.9L26.216,11.1l0.198,3.244L29.658,14.145z
			 M28.812,44.756L29.01,48l3.244-0.199l-0.199-3.244L28.812,44.756z M46.297,10.805C35.541,1.291,19.109,2.299,9.596,13.053
			c-9.514,10.756-8.508,27.187,2.248,36.701s27.188,8.508,36.701-2.248C58.059,36.751,57.053,20.319,46.297,10.805z M46.11,45.353
			c-8.325,9.411-22.701,10.292-32.113,1.967C4.586,38.994,3.705,24.618,12.03,15.206c8.323-9.41,22.701-10.292,32.113-1.967
			C53.555,21.564,54.435,35.942,46.11,45.353z M47.961,27.219l-3.176,0.198l0.191,3.177l3.177-0.197L47.961,27.219z M40.165,42.263
			l2.435,2.153l2.153-2.434l-2.435-2.154L40.165,42.263z"/>
	</g>
</g>
</svg>
