<?xml version="1.0" encoding="utf-8"?>
<!-- Generator: Adobe Illustrator 16.0.4, SVG Export Plug-In . SVG Version: 6.00 Build 0)  -->
<!DOCTYPE svg PUBLIC "-//W3C//DTD SVG 1.1//EN" "http://www.w3.org/Graphics/SVG/1.1/DTD/svg11.dtd">
<svg version="1.1" id="Layer_1" xmlns="http://www.w3.org/2000/svg" xmlns:xlink="http://www.w3.org/1999/xlink" x="0px" y="0px"
	 width="58px" height="58px" viewBox="0 0 58 58" enable-background="new 0 0 58 58" xml:space="preserve">
<g id="likes-name">
	<path fill="#b3b4b6" d="M29.472,51.596c-1.176,0.006-4.405-3.939-7.678-8.956c-0.458,1.145-1.069,2.146-1.795,2.956
		c4.015,6.065,8.031,10.883,9.473,10.875c1.396,0.008,5.307-4.677,9.263-10.622c-0.715-0.827-1.313-1.848-1.755-3.005
		C33.756,47.76,30.611,51.602,29.472,51.596z"/>
	<path fill="#b3b4b6" d="M47.43,29.998c0.962-2.41,1.542-4.512,1.542-6.027c0-10.769-8.729-19.5-19.5-19.5
		c-10.77,0-19.5,8.731-19.5,19.5c0,1.458,0.526,3.439,1.398,5.702c0.793-0.834,1.709-1.443,2.707-1.753
		c-0.539-1.559-0.855-2.918-0.855-3.949c0-8.975,7.277-16.25,16.25-16.25c8.975,0,16.25,7.275,16.25,16.25
		c0,1.102-0.372,2.59-0.996,4.303C45.722,28.574,46.636,29.175,47.43,29.998z"/>
	<circle fill="#b3b4b6" cx="13.625" cy="38.072" r="3.271"/>
	<circle fill="#b3b4b6" cx="45.25" cy="38.072" r="3.358"/>
	<g>
		<path fill="#b3b4b6" d="M29.367,15.002c-4.486,0-8.125,3.637-8.125,8.125s3.639,8.125,8.125,8.125s8.125-3.637,8.125-8.125
			S33.854,15.002,29.367,15.002z M29.367,28.002c-2.693,0-4.875-2.182-4.875-4.875s2.182-4.875,4.875-4.875s4.875,2.182,4.875,4.875
			S32.061,28.002,29.367,28.002z"/>
	</g>
	<path fill="#b3b4b6" d="M13.626,27.061c-6.092,0-11.029,4.938-11.029,11.029c0,4.611,9.195,18.391,11.029,18.381
		c1.805,0.01,11.028-13.832,11.028-18.381C24.654,31.999,19.718,27.061,13.626,27.061z M13.626,52.75
		c-1.409,0.006-8.478-10.867-8.478-14.41c0-4.684,3.796-8.479,8.478-8.479s8.477,3.795,8.477,8.479
		C22.103,41.836,15.013,52.756,13.626,52.75z"/>
	<path fill="#b3b4b6" d="M45.251,27.061c-6.092,0-11.029,4.938-11.029,11.029c0,4.611,9.195,18.391,11.029,18.381
		c1.805,0.01,11.028-13.832,11.028-18.381C56.279,31.999,51.343,27.061,45.251,27.061z M45.251,52.75
		c-1.409,0.006-8.478-10.867-8.478-14.41c0-4.684,3.796-8.479,8.478-8.479s8.477,3.795,8.477,8.479
		C53.728,41.836,46.638,52.756,45.251,52.75z"/>
</g>
</svg>
