<?xml version="1.0" encoding="utf-8"?>
<!-- Generator: Adobe Illustrator 16.0.4, SVG Export Plug-In . SVG Version: 6.00 Build 0)  -->
<!DOCTYPE svg PUBLIC "-//W3C//DTD SVG 1.1//EN" "http://www.w3.org/Graphics/SVG/1.1/DTD/svg11.dtd">
<svg version="1.1" id="Layer_1" xmlns="http://www.w3.org/2000/svg" xmlns:xlink="http://www.w3.org/1999/xlink" x="0px" y="0px"
	 width="58px" height="58px" viewBox="0 0 58 58" enable-background="new 0 0 58 58" xml:space="preserve">
<g id="list">
	<g>
		<path fill="#FFFFFF" d="M44.867,34.039H13.665c-0.664,0-1.201,0.538-1.201,1.2c0,0.663,0.537,1.199,1.201,1.199h31.203
			c0.664,0,1.2-0.536,1.2-1.199C46.067,34.577,45.531,34.039,44.867,34.039z M13.665,26.838h21.601c0.664,0,1.201-0.537,1.201-1.199
			s-0.537-1.201-1.201-1.201H13.665c-0.664,0-1.201,0.538-1.201,1.201S13,26.838,13.665,26.838z M31.666,43.641H13.665
			c-0.664,0-1.201,0.536-1.201,1.199s0.537,1.2,1.201,1.2h18.001c0.664,0,1.2-0.537,1.2-1.2S32.33,43.641,31.666,43.641z
			 M44.867,14.837H13.665c-0.664,0-1.201,0.538-1.201,1.2c0,0.663,0.537,1.2,1.201,1.2h31.203c0.664,0,1.2-0.537,1.2-1.2
			C46.067,15.375,45.531,14.837,44.867,14.837z M29,3.021C14.124,3.021,2.021,15.124,2.021,30c0,14.877,12.103,26.979,26.979,26.979
			c14.877,0,26.979-12.103,26.979-26.979C55.979,15.124,43.877,3.021,29,3.021z M29,54.979C15.226,54.979,4.021,43.773,4.021,30
			C4.021,16.226,15.226,5.021,29,5.021c13.773,0,24.979,11.206,24.979,24.979C53.979,43.773,42.773,54.979,29,54.979z"/>
	</g>
</g>
</svg>
