<?xml version="1.0" encoding="utf-8"?>
<!-- Generator: Adobe Illustrator 16.0.4, SVG Export Plug-In . SVG Version: 6.00 Build 0)  -->
<!DOCTYPE svg PUBLIC "-//W3C//DTD SVG 1.1//EN" "http://www.w3.org/Graphics/SVG/1.1/DTD/svg11.dtd">
<svg version="1.1" id="Layer_1" xmlns="http://www.w3.org/2000/svg" xmlns:xlink="http://www.w3.org/1999/xlink" x="0px" y="0px"
	 width="58px" height="58px" viewBox="0 0 58 58" enable-background="new 0 0 58 58" xml:space="preserve">
<g id="locator">
	<g>
		<path fill="#FFFFFF" d="M28.974,3.988c-14.608,0-26.451,11.843-26.451,26.452c0,14.607,11.843,26.451,26.451,26.451
			c14.609,0,26.452-11.844,26.452-26.451C55.426,15.831,43.583,3.988,28.974,3.988z M30.737,53.273v-8.727
			c0-0.973-0.788-1.764-1.764-1.764c-0.975,0-1.763,0.791-1.763,1.764v8.727C15.96,52.416,6.992,43.451,6.134,32.203h8.732
			c0.976,0,1.764-0.789,1.764-1.764c0-0.975-0.788-1.764-1.764-1.764H6.134C6.992,17.427,15.96,8.461,27.211,7.604v8.728
			c0,0.975,0.788,1.764,1.763,1.764c0.976,0,1.764-0.789,1.764-1.764V7.604c11.25,0.857,20.219,9.823,21.078,21.071h-8.733
			c-0.976,0-1.764,0.789-1.764,1.764c0,0.975,0.788,1.764,1.764,1.764h8.733C50.956,43.451,41.987,52.416,30.737,53.273z"/>
	</g>
</g>
</svg>
