<?xml version="1.0" encoding="utf-8"?>
<!-- Generator: Adobe Illustrator 16.0.4, SVG Export Plug-In . SVG Version: 6.00 Build 0)  -->
<!DOCTYPE svg PUBLIC "-//W3C//DTD SVG 1.1//EN" "http://www.w3.org/Graphics/SVG/1.1/DTD/svg11.dtd">
<svg version="1.1" id="Layer_1" xmlns="http://www.w3.org/2000/svg" xmlns:xlink="http://www.w3.org/1999/xlink" x="0px" y="0px"
	 width="58px" height="58px" viewBox="0 0 58 58" enable-background="new 0 0 58 58" xml:space="preserve">
<g id="Menu">
	<g>
		<path fill="#FFFFFF" d="M5.114,13.947H52.7c1.459,0,2.643-0.988,2.643-2.211c0-1.22-1.184-2.211-2.643-2.211H5.114
			c-1.46,0-2.644,0.991-2.644,2.211C2.471,12.958,3.654,13.947,5.114,13.947z M52.7,44.898H5.114c-1.46,0-2.644,0.99-2.644,2.211
			s1.184,2.211,2.644,2.211H52.7c1.459,0,2.643-0.99,2.643-2.211S54.159,44.898,52.7,44.898z M52.7,27.211H5.114
			c-1.46,0-2.644,0.991-2.644,2.211c0,1.222,1.184,2.21,2.644,2.21H52.7c1.459,0,2.643-0.988,2.643-2.21
			C55.343,28.203,54.159,27.211,52.7,27.211z"/>
	</g>
</g>
</svg>
