<?xml version="1.0" encoding="utf-8"?>
<!-- Generator: Adobe Illustrator 16.0.4, SVG Export Plug-In . SVG Version: 6.00 Build 0)  -->
<!DOCTYPE svg PUBLIC "-//W3C//DTD SVG 1.1//EN" "http://www.w3.org/Graphics/SVG/1.1/DTD/svg11.dtd">
<svg version="1.1" id="Layer_1" xmlns="http://www.w3.org/2000/svg" xmlns:xlink="http://www.w3.org/1999/xlink" x="0px" y="0px"
	 width="58px" height="58px" viewBox="0 0 58 58" enable-background="new 0 0 58 58" xml:space="preserve">
<g id="minus">
	<g>
		<path fill="#FFFFFF" d="M37.961,28.475H19.763c-0.839,0-1.517,0.68-1.517,1.517c0,0.839,0.678,1.517,1.517,1.517h18.198
			c0.838,0,1.517-0.678,1.517-1.517C39.478,29.154,38.799,28.475,37.961,28.475z M28.861,5.727
			c-13.402,0-24.265,10.865-24.265,24.265c0,13.401,10.862,24.265,24.265,24.265c13.4,0,24.265-10.863,24.265-24.265
			C53.126,16.592,42.262,5.727,28.861,5.727z M28.861,51.223c-11.727,0-21.231-9.505-21.231-21.231
			c0-11.726,9.505-21.231,21.231-21.231s21.231,9.506,21.231,21.231C50.093,41.718,40.588,51.223,28.861,51.223z"/>
	</g>
</g>
</svg>
