<?xml version="1.0" encoding="utf-8"?>
<!-- Generator: Adobe Illustrator 16.0.4, SVG Export Plug-In . SVG Version: 6.00 Build 0)  -->
<!DOCTYPE svg PUBLIC "-//W3C//DTD SVG 1.1//EN" "http://www.w3.org/Graphics/SVG/1.1/DTD/svg11.dtd">
<svg version="1.1" id="Layer_1" xmlns="http://www.w3.org/2000/svg" xmlns:xlink="http://www.w3.org/1999/xlink" x="0px" y="0px"
	 width="58px" height="58px" viewBox="0 0 58 58" enable-background="new 0 0 58 58" xml:space="preserve">
<g id="reset">
	<g>
		<path fill="#FFFFFF" d="M44.342,16.03c0-0.554-0.45-1.004-1.004-1.004H33.301c-0.121,0-1.004,0-1.004,1.004v10.037
			c0,0.555,0.45,1.004,1.004,1.004c0.555,0,1.004-0.449,1.004-1.004v-7.669c4.745,2.254,8.029,7.084,8.029,12.687
			c0,7.761-6.291,14.052-14.052,14.052c-7.76,0-14.052-6.291-14.052-14.052c0-7.076,5.238-12.915,12.044-13.892v-2.027
			c-7.92,0.989-14.052,7.731-14.052,15.919c0,8.869,7.19,16.06,16.059,16.06c8.869,0,16.06-7.19,16.06-16.06
			c0-6.05-3.349-11.313-8.291-14.051h7.287C43.892,17.034,44.342,16.584,44.342,16.03z M29,3.021
			C14.124,3.021,2.021,15.124,2.021,30c0,14.877,12.103,26.979,26.979,26.979c14.877,0,26.979-12.103,26.979-26.979
			C55.979,15.124,43.877,3.021,29,3.021z M29,54.979C15.226,54.979,4.021,43.773,4.021,30C4.021,16.226,15.226,5.021,29,5.021
			c13.773,0,24.979,11.206,24.979,24.979C53.979,43.773,42.773,54.979,29,54.979z"/>
	</g>
</g>
</svg>
