<?xml version="1.0" encoding="utf-8"?>
<!-- Generator: Adobe Illustrator 16.0.4, SVG Export Plug-In . SVG Version: 6.00 Build 0)  -->
<!DOCTYPE svg PUBLIC "-//W3C//DTD SVG 1.1//EN" "http://www.w3.org/Graphics/SVG/1.1/DTD/svg11.dtd">
<svg version="1.1" id="Layer_1" xmlns="http://www.w3.org/2000/svg" xmlns:xlink="http://www.w3.org/1999/xlink" x="0px" y="0px"
	 width="58px" height="58px" viewBox="0 0 58 58" enable-background="new 0 0 58 58" xml:space="preserve">
<g id="result">
	<g>
		<path fill="#FFFFFF" d="M45.709,9.94h-4.956V6.635h-4.45c-1.432-1.967-4.066-3.305-7.116-3.305c-3.049,0-5.684,1.338-7.115,3.305
			h-4.45V9.94h-4.957c-3.649,0-6.608,2.959-6.608,6.609v33.044c0,3.65,2.959,6.609,6.608,6.609h33.045
			c3.65,0,6.609-2.959,6.609-6.609V16.549C52.318,12.899,49.359,9.94,45.709,9.94z M20.926,9.94h3.672
			c0-1.825,2.055-3.305,4.589-3.305c2.535,0,4.589,1.479,4.589,3.305h3.673v6.609H20.926V9.94z M49.014,49.594
			c0,1.824-1.48,3.305-3.305,3.305H12.664c-1.824,0-3.304-1.48-3.304-3.305V16.549c0-1.825,1.479-3.305,3.304-3.305h4.957v6.609
			h23.132v-6.609h4.956c1.824,0,3.305,1.479,3.305,3.305V49.594z M40.753,42.984H17.621c-0.913,0-1.652,0.74-1.652,1.652
			c0,0.914,0.739,1.652,1.652,1.652h23.132c0.913,0,1.652-0.738,1.652-1.652C42.405,43.725,41.666,42.984,40.753,42.984z
			 M40.753,26.462H17.621c-0.913,0-1.652,0.741-1.652,1.652c0,0.913,0.739,1.652,1.652,1.652h23.132
			c0.913,0,1.652-0.739,1.652-1.652C42.405,27.204,41.666,26.462,40.753,26.462z M40.753,34.723H17.621
			c-0.913,0-1.652,0.742-1.652,1.652c0,0.914,0.739,1.652,1.652,1.652h23.132c0.913,0,1.652-0.738,1.652-1.652
			C42.405,35.465,41.666,34.723,40.753,34.723z"/>
	</g>
</g>
</svg>
