<?xml version="1.0" encoding="utf-8"?>
<!-- Generator: Adobe Illustrator 16.0.4, SVG Export Plug-In . SVG Version: 6.00 Build 0)  -->
<!DOCTYPE svg PUBLIC "-//W3C//DTD SVG 1.1//EN" "http://www.w3.org/Graphics/SVG/1.1/DTD/svg11.dtd">
<svg version="1.1" id="Layer_1" xmlns="http://www.w3.org/2000/svg" xmlns:xlink="http://www.w3.org/1999/xlink" x="0px" y="0px"
	 width="58px" height="58px" viewBox="0 0 58 58" enable-background="new 0 0 58 58" xml:space="preserve">
<g id="XMLID_4686_">
	<g id="XMLID_4687_">
		<path id="XMLID_4689_" fill="#FFFFFF" d="M16.574,52.951c-0.414,0-0.826-0.18-1.109-0.523c-0.501-0.611-0.413-1.515,0.197-2.018
			l24.101-19.801c0.308-0.318,0.533-0.864,0.533-1.446s-0.226-1.128-0.638-1.54L15.374,7.629c-0.611-0.502-0.698-1.406-0.195-2.017
			c0.502-0.609,1.404-0.699,2.019-0.194l24.387,20.088c2.068,2.059,2.068,5.259,0.102,7.224L17.481,52.625
			C17.216,52.845,16.894,52.951,16.574,52.951z"/>
		<path id="XMLID_4688_" fill="#FFFFFF" d="M16.291,2.846c0.849,0,1.665,0.291,2.329,0.837l24.392,20.092
			c0.055,0.045,0.105,0.093,0.156,0.141c1.432,1.428,2.221,3.304,2.225,5.281c0.002,1.933-0.751,3.751-2.12,5.121
			c-0.052,0.053-0.104,0.1-0.161,0.146L18.906,54.358c-1.493,1.235-3.93,1.006-5.175-0.504c-1.286-1.566-1.059-3.889,0.505-5.177
			l23.758-19.517L13.949,9.36c-0.759-0.623-1.229-1.505-1.324-2.484c-0.095-0.979,0.199-1.935,0.827-2.693
			c0.617-0.752,1.499-1.224,2.477-1.317C16.05,2.853,16.171,2.846,16.291,2.846z"/>
	</g>
</g>
</svg>
