<?xml version="1.0" encoding="utf-8"?>
<!-- Generator: Adobe Illustrator 16.0.4, SVG Export Plug-In . SVG Version: 6.00 Build 0)  -->
<!DOCTYPE svg PUBLIC "-//W3C//DTD SVG 1.1//EN" "http://www.w3.org/Graphics/SVG/1.1/DTD/svg11.dtd">
<svg version="1.1" id="Layer_1" xmlns="http://www.w3.org/2000/svg" xmlns:xlink="http://www.w3.org/1999/xlink" x="0px" y="0px"
	 width="58px" height="58px" viewBox="0 0 58 58" enable-background="new 0 0 58 58" xml:space="preserve">
<g id="rightarrow-with-O">
	<g>
		<path fill="#FFFFFF" d="M22.625,10.491c-0.625-0.624-1.643-0.624-2.271,0c-0.626,0.624-0.626,1.635,0,2.259l17.96,16.368
			l-17.96,16.368c-0.626,0.624-0.626,1.637,0,2.259c0.628,0.624,1.646,0.624,2.271,0l19.113-17.416
			c0.334-0.334,0.476-0.775,0.454-1.21c0.021-0.435-0.12-0.876-0.454-1.21L22.625,10.491z M29,2.021
			C14.124,2.021,2.021,14.124,2.021,29c0,14.877,12.103,26.979,26.979,26.979c14.877,0,26.979-12.103,26.979-26.979
			C55.979,14.124,43.877,2.021,29,2.021z M29,53.979C15.226,53.979,4.021,42.773,4.021,29C4.021,15.226,15.226,4.021,29,4.021
			c13.773,0,24.979,11.206,24.979,24.979C53.979,42.773,42.773,53.979,29,53.979z"/>
	</g>
</g>
</svg>
