<?xml version="1.0" encoding="utf-8"?>
<!-- Generator: Adobe Illustrator 16.0.0, SVG Export Plug-In . SVG Version: 6.00 Build 0)  -->
<!DOCTYPE svg PUBLIC "-//W3C//DTD SVG 1.1//EN" "http://www.w3.org/Graphics/SVG/1.1/DTD/svg11.dtd">
<svg version="1.1" id="Layer_1" xmlns="http://www.w3.org/2000/svg" xmlns:xlink="http://www.w3.org/1999/xlink" x="0px" y="0px"
	 width="58px" height="58px" viewBox="0 0 58 58" enable-background="new 0 0 58 58" xml:space="preserve">
<g>
	<g>
		<path fill="#22205F" d="M29,2.099C14.186,2.099,2.101,14.185,2.101,29C2.101,43.814,14.106,55.9,29,55.9
			C43.813,55.9,55.899,43.814,55.899,29C55.899,14.185,43.813,2.099,29,2.099z M42.962,28.682v0.549c0,0.079,0,0.079,0,0.159
			c-0.079,0.079-0.079,0.079-0.079,0.158c0,0.08-0.079,0.08-0.079,0.159l-0.08,0.079c0,0.072-0.079,0.152-0.158,0.231L31.96,40.537
			c-0.311,0.23-0.621,0.391-1.011,0.391s-0.7-0.08-1.011-0.391c-0.549-0.549-0.549-1.48,0-2.029l8.107-8.107h-22.85
			c-0.779,0-1.4-0.621-1.4-1.401c0-0.779,0.628-1.479,1.408-1.479h22.842l-8.193-8.281c-0.549-0.549-0.549-1.48,0-2.029
			c0.548-0.549,1.479-0.549,2.028,0l10.685,10.685c0.079,0.073,0.079,0.151,0.158,0.231c0.08,0,0.08,0.08,0.08,0.08
			c0,0.079,0.079,0.079,0.079,0.159c0.079,0.079,0.079,0.079,0.079,0.158C42.962,28.603,42.962,28.603,42.962,28.682z"/>
	</g>
</g>
</svg>
