<?xml version="1.0" encoding="utf-8"?>
<!DOCTYPE svg PUBLIC "-//W3C//DTD SVG 1.1//EN" "http://www.w3.org/Graphics/SVG/1.1/DTD/svg11.dtd">
<svg version="1.1" id="Layer_1" xmlns="http://www.w3.org/2000/svg" xmlns:xlink="http://www.w3.org/1999/xlink" x="0px" y="0px"
	 width="58px" height="58px" viewBox="0 0 58 58" enable-background="new 0 0 58 58" xml:space="preserve">
<g>
	<g>
		<path fill="#FDFEFF" d="M29.76,5.721c-8.973,0-16.25,7.275-16.25,16.25c0,6.793,13.549,27.639,16.25,27.625
			c2.66,0.014,16.25-20.922,16.25-27.625C46.01,12.996,38.734,5.721,29.76,5.721z"/>
		<path fill="#686969" d="M29.76,2.471c-10.77,0-19.5,8.731-19.5,19.5c0,8.153,16.258,32.518,19.5,32.5
			c3.191,0.018,19.5-24.456,19.5-32.5C49.26,11.202,40.531,2.471,29.76,2.471z M29.76,49.596
			c-2.701,0.014-16.25-20.832-16.25-27.625c0-8.975,7.277-16.25,16.25-16.25c8.974,0,16.25,7.275,16.25,16.25
			C46.01,28.674,32.42,49.609,29.76,49.596z"/>
	</g>
	<g>
		<circle fill="#1B8B46" cx="29.76" cy="21.971" r="13.264"/>
	</g>
</g>
</svg>
