<?xml version="1.0" encoding="utf-8"?>
<!-- Generator: Adobe Illustrator 16.0.4, SVG Export Plug-In . SVG Version: 6.00 Build 0)  -->
<!DOCTYPE svg PUBLIC "-//W3C//DTD SVG 1.1//EN" "http://www.w3.org/Graphics/SVG/1.1/DTD/svg11.dtd">
<svg version="1.1" id="Layer_1" xmlns="http://www.w3.org/2000/svg" xmlns:xlink="http://www.w3.org/1999/xlink" x="0px" y="0px"
	 width="58px" height="58px" viewBox="0 0 58 58" enable-background="new 0 0 58 58" xml:space="preserve">
<g>
	<g>
		<path fill="#FDFEFF" d="M28.76,5.24c-8.972,0-16.25,7.275-16.25,16.25c0,6.793,13.548,27.639,16.25,27.625
			c2.66,0.014,16.25-20.921,16.25-27.625C45.01,12.516,37.734,5.24,28.76,5.24z"/>
		<path fill="#686969" d="M28.76,1.99c-10.769,0-19.5,8.731-19.5,19.5c0,8.153,16.257,32.518,19.5,32.5
			c3.191,0.018,19.5-24.456,19.5-32.5C48.26,10.722,39.531,1.99,28.76,1.99z M28.76,49.115c-2.701,0.014-16.25-20.832-16.25-27.625
			c0-8.975,7.277-16.25,16.25-16.25c8.975,0,16.25,7.275,16.25,16.25C45.01,28.194,31.42,49.129,28.76,49.115z"/>
	</g>
	<path fill="#1B8B46" d="M39.152,13.264L26.559,25.858c0.829,0.834,1.939,1.302,3.273,1.302c1.537,0,2.929-0.552,4.201-1.392
		l0.432,2.736c-1.32,0.84-3,1.416-4.873,1.416c-2.134,0-3.914-0.669-5.238-1.858l-3.82,3.82c2.262,1.793,5.117,2.871,8.226,2.871
		c7.324,0,13.264-5.937,13.264-13.264C42.023,18.379,40.945,15.526,39.152,13.264z"/>
	<path fill="#1B8B46" d="M21.744,21.376c0-5.137,3.145-8.593,7.825-8.593c1.917,0,3.402,0.455,4.626,1.197l2.844-2.844
		c-2.271-1.817-5.146-2.91-8.278-2.91c-7.324,0-13.263,5.937-13.263,13.264c0,3.134,1.093,6.008,2.91,8.277l4.171-4.171
		C22.035,24.388,21.744,22.965,21.744,21.376z"/>
	<path fill="#1B8B46" d="M24.984,21.353c0,0.603,0.071,1.147,0.17,1.667l6.982-6.981c-0.729-0.315-1.534-0.519-2.424-0.519
		C26.784,15.52,24.984,17.752,24.984,21.353z"/>
</g>
</svg>
