<?xml version="1.0" encoding="utf-8"?>
<!-- Generator: Adobe Illustrator 16.0.4, SVG Export Plug-In . SVG Version: 6.00 Build 0)  -->
<!DOCTYPE svg PUBLIC "-//W3C//DTD SVG 1.1//EN" "http://www.w3.org/Graphics/SVG/1.1/DTD/svg11.dtd">
<svg version="1.1" id="Layer_1" xmlns="http://www.w3.org/2000/svg" xmlns:xlink="http://www.w3.org/1999/xlink" x="0px" y="0px"
	 width="58px" height="58px" viewBox="0 0 58 58" enable-background="new 0 0 58 58" xml:space="preserve">
<g>
	<g>
		<g>
			<path fill="#FDFEFF" d="M29.76,5.24c-8.972,0-16.25,7.275-16.25,16.25c0,6.793,13.548,27.639,16.25,27.625
				c2.66,0.014,16.25-20.921,16.25-27.625C46.01,12.516,38.734,5.24,29.76,5.24z"/>
			<path fill="#686969" d="M29.76,1.99c-10.769,0-19.5,8.731-19.5,19.5c0,8.153,16.257,32.518,19.5,32.5
				c3.191,0.018,19.5-24.456,19.5-32.5C49.26,10.722,40.531,1.99,29.76,1.99z M29.76,49.115c-2.701,0.014-16.25-20.832-16.25-27.625
				c0-8.975,7.277-16.25,16.25-16.25c8.975,0,16.25,7.275,16.25,16.25C46.01,28.194,32.42,49.129,29.76,49.115z"/>
		</g>
		<g>
			<path fill="#1B8B46" d="M30.343,21.906h-1.656v5.064h1.704c2.016,0,3.192-0.841,3.192-2.497
				C33.583,22.794,32.455,21.906,30.343,21.906z"/>
			<path fill="#1B8B46" d="M33.007,17.394c0-1.32-0.792-2.136-2.712-2.136h-1.608v4.392h1.464
				C32.023,19.649,33.007,18.81,33.007,17.394z"/>
		</g>
	</g>
	<path fill="#1B8B46" d="M40.152,13.264l-4.218,4.22c-0.125,1.524-1.038,2.544-2.376,3.103c1.849,0.576,3.072,1.776,3.072,3.984
		c0,3.264-2.352,4.824-6.24,4.824h-4.752v-1.616l-4.104,4.104c2.262,1.793,5.117,2.871,8.226,2.871
		c7.324,0,13.264-5.937,13.264-13.264C43.023,18.379,41.945,15.526,40.152,13.264z"/>
	<path fill="#1B8B46" d="M25.638,12.833h4.825c2.077,0,3.527,0.538,4.422,1.457l3.153-3.153c-2.271-1.817-5.146-2.91-8.278-2.91
		c-7.324,0-13.263,5.937-13.263,13.264c0,3.134,1.093,6.008,2.91,8.277l6.232-6.232V12.833z"/>
</g>
</svg>
