<?xml version="1.0" encoding="utf-8"?>
<!-- Generator: Adobe Illustrator 16.0.4, SVG Export Plug-In . SVG Version: 6.00 Build 0)  -->
<!DOCTYPE svg PUBLIC "-//W3C//DTD SVG 1.1//EN" "http://www.w3.org/Graphics/SVG/1.1/DTD/svg11.dtd">
<svg version="1.1" id="Layer_1" xmlns="http://www.w3.org/2000/svg" xmlns:xlink="http://www.w3.org/1999/xlink" x="0px" y="0px"
	 width="58px" height="58px" viewBox="0 0 58 58" enable-background="new 0 0 58 58" xml:space="preserve">
<g>
	<g>
		<path fill="#FDFEFF" d="M29.76,5.24c-8.972,0-16.25,7.275-16.25,16.25c0,6.793,13.548,27.639,16.25,27.625
			c2.66,0.014,16.25-20.921,16.25-27.625C46.01,12.516,38.734,5.24,29.76,5.24z"/>
		<path fill="#686969" d="M29.76,1.99c-10.769,0-19.5,8.731-19.5,19.5c0,8.153,16.257,32.518,19.5,32.5
			c3.191,0.018,19.5-24.456,19.5-32.5C49.26,10.722,40.531,1.99,29.76,1.99z M29.76,49.115c-2.701,0.014-16.25-20.832-16.25-27.625
			c0-8.975,7.277-16.25,16.25-16.25c8.975,0,16.25,7.275,16.25,16.25C46.01,28.194,32.42,49.129,29.76,49.115z"/>
	</g>
	<path fill="#1B8B46" d="M28.526,12.165h3.384l1.462,3.905l4.819-4.818c-2.292-1.891-5.229-3.025-8.432-3.025
		c-7.324,0-13.263,5.937-13.263,13.264c0,3.204,1.135,6.139,3.024,8.432l3.783-3.783L28.526,12.165z"/>
	<polygon fill="#1B8B46" points="27.807,22.006 32.343,22.006 30.086,15.598 	"/>
	<path fill="#1B8B46" d="M40.268,13.418l-5.74,5.74l3.455,9.232l-3.168,0.576l-1.584-4.368h-4.145l-3.32,3.32l-0.312,0.88h-0.568
		l-3.198,3.198c2.237,1.722,5.031,2.757,8.072,2.757c7.324,0,13.264-5.937,13.264-13.264C43.023,18.448,41.989,15.655,40.268,13.418
		z"/>
</g>
</svg>
