<?xml version="1.0" encoding="utf-8"?>
<!-- Generator: Adobe Illustrator 16.0.4, SVG Export Plug-In . SVG Version: 6.00 Build 0)  -->
<!DOCTYPE svg PUBLIC "-//W3C//DTD SVG 1.1//EN" "http://www.w3.org/Graphics/SVG/1.1/DTD/svg11.dtd">
<svg version="1.1" id="Layer_1" xmlns="http://www.w3.org/2000/svg" xmlns:xlink="http://www.w3.org/1999/xlink" x="0px" y="0px"
	 width="58px" height="58px" viewBox="0 0 58 58" enable-background="new 0 0 58 58" xml:space="preserve">
<g>
	<g>
		<path fill="#FDFEFF" d="M30.441,6.05c-8.973,0-16.25,7.275-16.25,16.25c0,6.793,13.549,27.639,16.25,27.625
			c2.66,0.014,16.25-20.922,16.25-27.625C46.691,13.325,39.416,6.05,30.441,6.05z"/>
		<path fill="#686969" d="M30.441,2.8c-10.77,0-19.5,8.731-19.5,19.5c0,8.153,16.258,32.518,19.5,32.5
			c3.191,0.018,19.5-24.456,19.5-32.5C49.941,11.531,41.213,2.8,30.441,2.8z M30.441,49.925c-2.701,0.014-16.25-20.832-16.25-27.625
			c0-8.975,7.277-16.25,16.25-16.25c8.975,0,16.25,7.275,16.25,16.25C46.691,29.003,33.102,49.938,30.441,49.925z"/>
	</g>
	<polygon fill="#2D6CA5" points="28.101,22.815 32.638,22.815 30.382,16.407 	"/>
	<path fill="#2D6CA5" d="M30.441,9.036c-7.324,0-13.264,5.937-13.264,13.264c0,7.326,5.939,13.264,13.264,13.264
		c7.323,0,13.264-5.938,13.264-13.264C43.705,14.973,37.765,9.036,30.441,9.036z M35.11,29.776l-1.585-4.368h-6.288l-1.488,4.2
		h-3.145l6.217-16.634h3.385L38.278,29.2L35.11,29.776z"/>
</g>
</svg>
