<?xml version="1.0" encoding="utf-8"?>
<!-- Generator: Adobe Illustrator 16.0.4, SVG Export Plug-In . SVG Version: 6.00 Build 0)  -->
<!DOCTYPE svg PUBLIC "-//W3C//DTD SVG 1.1//EN" "http://www.w3.org/Graphics/SVG/1.1/DTD/svg11.dtd">
<svg version="1.1" id="Layer_1" xmlns="http://www.w3.org/2000/svg" xmlns:xlink="http://www.w3.org/1999/xlink" x="0px" y="0px"
	 width="58px" height="58px" viewBox="0 0 58 58" enable-background="new 0 0 58 58" xml:space="preserve">
<g>
	<g>
		<g>
			<path fill="#FDFEFF" d="M30.441,6.24c-8.973,0-16.25,7.275-16.25,16.25c0,6.793,13.549,27.639,16.25,27.625
				c2.66,0.014,16.25-20.921,16.25-27.625C46.691,13.516,39.416,6.24,30.441,6.24z"/>
			<path fill="#686969" d="M30.441,2.99c-10.77,0-19.5,8.731-19.5,19.5c0,8.153,16.258,32.518,19.5,32.5
				c3.191,0.018,19.5-24.456,19.5-32.5C49.941,11.722,41.213,2.99,30.441,2.99z M30.441,50.115
				c-2.701,0.014-16.25-20.832-16.25-27.625c0-8.975,7.277-16.25,16.25-16.25c8.975,0,16.25,7.275,16.25,16.25
				C46.691,29.194,33.102,50.129,30.441,50.115z"/>
		</g>
		<polygon fill="#2D6CA5" points="28.101,23.006 32.638,23.006 30.382,16.598 		"/>
	</g>
	<path fill="#2D6CA5" d="M28.821,13.165h3.385l1.6,4.274l5.131-5.131c-2.302-1.922-5.263-3.082-8.495-3.082
		c-7.324,0-13.264,5.937-13.264,13.264c0,3.233,1.159,6.193,3.082,8.495l3.036-3.036L28.821,13.165z"/>
	<path fill="#2D6CA5" d="M41.001,14.488l-6.039,6.039l3.316,8.863l-3.168,0.576l-1.585-4.368H29.89l-4.108,4.108l-0.032,0.092h-0.06
		l-3.251,3.252c2.227,1.688,4.993,2.703,8.003,2.703c7.323,0,13.264-5.937,13.264-13.264C43.705,19.48,42.69,16.713,41.001,14.488z"
		/>
</g>
</svg>
