<?xml version="1.0" encoding="utf-8"?>
<!-- Generator: Adobe Illustrator 16.0.4, SVG Export Plug-In . SVG Version: 6.00 Build 0)  -->
<!DOCTYPE svg PUBLIC "-//W3C//DTD SVG 1.1//EN" "http://www.w3.org/Graphics/SVG/1.1/DTD/svg11.dtd">
<svg version="1.1" id="Layer_1" xmlns="http://www.w3.org/2000/svg" xmlns:xlink="http://www.w3.org/1999/xlink" x="0px" y="0px"
	 width="58px" height="58px" viewBox="0 0 58 58" enable-background="new 0 0 58 58" xml:space="preserve">
<g>
	<g>
		<g>
			<path fill="#FDFEFF" d="M30.441,6.24c-8.973,0-16.25,7.275-16.25,16.25c0,6.793,13.549,27.639,16.25,27.625
				c2.66,0.014,16.25-20.921,16.25-27.625C46.691,13.516,39.416,6.24,30.441,6.24z"/>
			<path fill="#686969" d="M30.441,2.99c-10.77,0-19.5,8.731-19.5,19.5c0,8.153,16.258,32.518,19.5,32.5
				c3.191,0.018,19.5-24.456,19.5-32.5C49.941,11.722,41.213,2.99,30.441,2.99z M30.441,50.115
				c-2.701,0.014-16.25-20.832-16.25-27.625c0-8.975,7.277-16.25,16.25-16.25c8.975,0,16.25,7.275,16.25,16.25
				C46.691,29.194,33.102,50.129,30.441,50.115z"/>
		</g>
		<path fill="#2D6CA5" d="M30.478,17.615h-1.513v5.353h1.392c2.041,0,3.24-0.84,3.24-2.736
			C33.597,18.504,32.517,17.615,30.478,17.615z"/>
	</g>
	<path fill="#2D6CA5" d="M40.887,14.334l-4.361,4.361c0.113,0.452,0.192,0.931,0.192,1.465c0,3.576-2.545,5.376-6.337,5.376h-0.697
		l-0.719,0.72v5.377h-3.169v-2.209l-3.511,3.511c2.251,1.761,5.077,2.819,8.156,2.819c7.323,0,13.264-5.937,13.264-13.264
		C43.705,19.411,42.646,16.585,40.887,14.334z"/>
	<path fill="#2D6CA5" d="M25.796,15.071h4.85c1.733,0,3.132,0.384,4.16,1.101l3.982-3.984c-2.28-1.85-5.183-2.961-8.347-2.961
		c-7.324,0-13.264,5.937-13.264,13.264c0,3.164,1.112,6.067,2.962,8.348l5.656-5.657V15.071z"/>
</g>
</svg>
