<?xml version="1.0" encoding="utf-8"?>
<!-- Generator: Adobe Illustrator 16.0.4, SVG Export Plug-In . SVG Version: 6.00 Build 0)  -->
<!DOCTYPE svg PUBLIC "-//W3C//DTD SVG 1.1//EN" "http://www.w3.org/Graphics/SVG/1.1/DTD/svg11.dtd">
<svg version="1.1" id="Layer_1" xmlns="http://www.w3.org/2000/svg" xmlns:xlink="http://www.w3.org/1999/xlink" x="0px" y="0px"
	 width="58px" height="58px" viewBox="0 0 58 58" enable-background="new 0 0 58 58" xml:space="preserve">
<g>
	<g>
		<path fill="#FDFEFF" d="M30.441,6.24c-8.973,0-16.25,7.275-16.25,16.25c0,6.793,13.549,27.639,16.25,27.625
			c2.66,0.014,16.25-20.921,16.25-27.625C46.691,13.516,39.416,6.24,30.441,6.24z"/>
		<path fill="#686969" d="M30.441,2.99c-10.77,0-19.5,8.731-19.5,19.5c0,8.153,16.258,32.518,19.5,32.5
			c3.191,0.018,19.5-24.456,19.5-32.5C49.941,11.722,41.213,2.99,30.441,2.99z M30.441,50.115
			c-2.701,0.014-16.25-20.832-16.25-27.625c0-8.975,7.277-16.25,16.25-16.25c8.975,0,16.25,7.275,16.25,16.25
			C46.691,29.194,33.102,50.129,30.441,50.115z"/>
	</g>
	<g>
		<path fill="#2D6CA5" d="M30.441,9.227c-7.324,0-13.264,5.937-13.264,13.264s5.939,13.264,13.264,13.264
			c7.323,0,13.264-5.937,13.264-13.264S37.765,9.227,30.441,9.227z M30.799,30.395h-4.753V13.833h4.825
			c3.72,0,5.497,1.681,5.497,4.297c0,1.729-0.961,2.855-2.4,3.456c1.848,0.576,3.072,1.776,3.072,3.984
			C37.04,28.834,34.688,30.395,30.799,30.395z"/>
		<path fill="#2D6CA5" d="M33.415,18.394c0-1.32-0.792-2.136-2.712-2.136h-1.608v4.392h1.465
			C32.431,20.649,33.415,19.81,33.415,18.394z"/>
		<path fill="#2D6CA5" d="M30.751,22.906h-1.656v5.064h1.704c2.017,0,3.192-0.841,3.192-2.497
			C33.991,23.794,32.863,22.906,30.751,22.906z"/>
	</g>
</g>
</svg>
