<?xml version="1.0" encoding="utf-8"?>
<!-- Generator: Adobe Illustrator 16.0.4, SVG Export Plug-In . SVG Version: 6.00 Build 0)  -->
<!DOCTYPE svg PUBLIC "-//W3C//DTD SVG 1.1//EN" "http://www.w3.org/Graphics/SVG/1.1/DTD/svg11.dtd">
<svg version="1.1" id="Layer_1" xmlns="http://www.w3.org/2000/svg" xmlns:xlink="http://www.w3.org/1999/xlink" x="0px" y="0px"
	 width="58px" height="58px" viewBox="0 0 58 58" enable-background="new 0 0 58 58" xml:space="preserve">
<g>
	<g>
		<g>
			<path fill="#FDFEFF" d="M29.761,6.24c-8.973,0-16.25,7.275-16.25,16.25c0,6.793,13.549,27.639,16.25,27.625
				c2.66,0.014,16.25-20.921,16.25-27.625C46.011,13.516,38.735,6.24,29.761,6.24z"/>
			<path fill="#686969" d="M29.761,2.99c-10.77,0-19.5,8.731-19.5,19.5c0,8.153,16.258,32.518,19.5,32.5
				c3.191,0.018,19.5-24.456,19.5-32.5C49.261,11.722,40.532,2.99,29.761,2.99z M29.761,50.115
				c-2.701,0.014-16.25-20.832-16.25-27.625c0-8.975,7.277-16.25,16.25-16.25c8.975,0,16.25,7.275,16.25,16.25
				C46.011,29.194,32.421,50.129,29.761,50.115z"/>
		</g>
		<polygon fill="#FDB515" points="27.421,23.006 31.957,23.006 29.701,16.598 		"/>
	</g>
	<path fill="#FDB515" d="M28.141,13.165h3.385l1.525,4.075l5.055-5.054c-2.28-1.849-5.182-2.96-8.345-2.96
		c-7.324,0-13.264,5.937-13.264,13.264c0,3.164,1.111,6.064,2.96,8.345l3.322-3.322L28.141,13.165z"/>
	<path fill="#FDB515" d="M40.203,14.331l-5.997,5.997l3.392,9.062l-3.168,0.576l-1.584-4.368h-3.91l-3.684,3.684l-0.183,0.517
		h-0.333l-3.134,3.134c2.251,1.762,5.079,2.821,8.159,2.821c7.322,0,13.264-5.937,13.264-13.264
		C43.024,19.41,41.965,16.582,40.203,14.331z"/>
</g>
</svg>
