<?xml version="1.0" encoding="utf-8"?>
<!-- Generator: Adobe Illustrator 16.0.4, SVG Export Plug-In . SVG Version: 6.00 Build 0)  -->
<!DOCTYPE svg PUBLIC "-//W3C//DTD SVG 1.1//EN" "http://www.w3.org/Graphics/SVG/1.1/DTD/svg11.dtd">
<svg version="1.1" id="Layer_1" xmlns="http://www.w3.org/2000/svg" xmlns:xlink="http://www.w3.org/1999/xlink" x="0px" y="0px"
	 width="58px" height="58px" viewBox="0 0 58 58" enable-background="new 0 0 58 58" xml:space="preserve">
<g>
	<g>
		<path fill="#FDFEFF" d="M29.761,6.05c-8.973,0-16.25,7.275-16.25,16.25c0,6.793,13.549,27.639,16.25,27.625
			c2.66,0.014,16.25-20.922,16.25-27.625C46.011,13.325,38.735,6.05,29.761,6.05z"/>
		<path fill="#686969" d="M29.761,2.8c-10.77,0-19.5,8.731-19.5,19.5c0,8.153,16.258,32.518,19.5,32.5
			c3.191,0.018,19.5-24.456,19.5-32.5C49.261,11.531,40.532,2.8,29.761,2.8z M29.761,49.925c-2.701,0.014-16.25-20.832-16.25-27.625
			c0-8.975,7.277-16.25,16.25-16.25c8.975,0,16.25,7.275,16.25,16.25C46.011,29.003,32.421,49.938,29.761,49.925z"/>
	</g>
	<path fill="#FDB515" d="M29.761,9.036c-7.324,0-13.264,5.937-13.264,13.264c0,7.326,5.939,13.264,13.264,13.264
		c7.322,0,13.264-5.938,13.264-13.264C43.024,14.973,37.083,9.036,29.761,9.036z M34.43,29.776l-1.584-4.368h-6.289l-1.488,4.2
		h-3.145l6.216-16.634h3.385L37.598,29.2L34.43,29.776z"/>
	<polygon fill="#FDB515" points="27.421,22.815 31.957,22.815 29.701,16.407 	"/>
</g>
</svg>
