<?xml version="1.0" encoding="utf-8"?>
<!-- Generator: Adobe Illustrator 16.0.4, SVG Export Plug-In . SVG Version: 6.00 Build 0)  -->
<!DOCTYPE svg PUBLIC "-//W3C//DTD SVG 1.1//EN" "http://www.w3.org/Graphics/SVG/1.1/DTD/svg11.dtd">
<svg version="1.1" id="Layer_1" xmlns="http://www.w3.org/2000/svg" xmlns:xlink="http://www.w3.org/1999/xlink" x="0px" y="0px"
	 width="58px" height="58px" viewBox="0 0 58 58" enable-background="new 0 0 58 58" xml:space="preserve">
<g>
	<g>
		<path fill="#FDFEFF" d="M29.761,6.24c-8.973,0-16.25,7.275-16.25,16.25c0,6.793,13.549,27.639,16.25,27.625
			c2.66,0.014,16.25-20.921,16.25-27.625C46.011,13.516,38.735,6.24,29.761,6.24z"/>
		<path fill="#686969" d="M29.761,2.99c-10.77,0-19.5,8.731-19.5,19.5c0,8.153,16.258,32.518,19.5,32.5
			c3.191,0.018,19.5-24.456,19.5-32.5C49.261,11.722,40.532,2.99,29.761,2.99z M29.761,50.115
			c-2.701,0.014-16.25-20.832-16.25-27.625c0-8.975,7.277-16.25,16.25-16.25c8.975,0,16.25,7.275,16.25,16.25
			C46.011,29.194,32.421,50.129,29.761,50.115z"/>
	</g>
	<path fill="#FDB515" d="M40.088,14.178l-12.93,12.931c0.797,0.675,1.812,1.052,3.008,1.052c1.536,0,2.928-0.552,4.2-1.392
		l0.433,2.736c-1.32,0.84-3.001,1.416-4.873,1.416c-1.988,0-3.664-0.587-4.955-1.626l-3.523,3.523
		c2.275,1.833,5.164,2.936,8.313,2.936c7.322,0,13.264-5.937,13.264-13.264C43.024,19.342,41.922,16.452,40.088,14.178z"/>
	<path fill="#FDB515" d="M22.077,22.376c0-5.137,3.145-8.593,7.825-8.593c1.92,0,3.408,0.456,4.632,1.2l-0.091,0.596l3.508-3.507
		c-2.256-1.777-5.097-2.846-8.19-2.846c-7.324,0-13.264,5.937-13.264,13.264c0,3.095,1.068,5.936,2.845,8.191l3.742-3.742
		C22.434,25.659,22.077,24.121,22.077,22.376z"/>
	<path fill="#FDB515" d="M25.317,22.353c0,0.77,0.103,1.456,0.266,2.087l7.24-7.24c-0.817-0.408-1.741-0.68-2.777-0.68
		C27.117,16.52,25.317,18.752,25.317,22.353z"/>
</g>
</svg>
