<?xml version="1.0" encoding="utf-8"?>
<!-- Generator: Adobe Illustrator 16.0.4, SVG Export Plug-In . SVG Version: 6.00 Build 0)  -->
<!DOCTYPE svg PUBLIC "-//W3C//DTD SVG 1.1//EN" "http://www.w3.org/Graphics/SVG/1.1/DTD/svg11.dtd">
<svg version="1.1" id="Layer_1" xmlns="http://www.w3.org/2000/svg" xmlns:xlink="http://www.w3.org/1999/xlink" x="0px" y="0px"
	 width="58px" height="58px" viewBox="0 0 58 58" enable-background="new 0 0 58 58" xml:space="preserve">
<g>
	<g>
		<g>
			<path fill="#FDFEFF" d="M30.232,6.24c-8.973,0-16.25,7.275-16.25,16.25c0,6.793,13.549,27.639,16.25,27.625
				c2.66,0.014,16.25-20.921,16.25-27.625C46.482,13.516,39.207,6.24,30.232,6.24z"/>
			<path fill="#686969" d="M30.232,2.99c-10.77,0-19.5,8.731-19.5,19.5c0,8.153,16.258,32.518,19.5,32.5
				c3.191,0.018,19.5-24.456,19.5-32.5C49.732,11.722,41.004,2.99,30.232,2.99z M30.232,50.115
				c-2.701,0.014-16.25-20.832-16.25-27.625c0-8.975,7.277-16.25,16.25-16.25c8.975,0,16.25,7.275,16.25,16.25
				C46.482,29.194,32.893,50.129,30.232,50.115z"/>
		</g>
		<g>
			<path fill="#D62731" d="M33.227,18.394c0-1.32-0.792-2.136-2.712-2.136h-1.608v4.392h1.464
				C32.243,20.649,33.227,19.81,33.227,18.394z"/>
			<path fill="#D62731" d="M30.562,22.906h-1.656v5.064h1.704c2.016,0,3.192-0.841,3.192-2.497
				C33.803,23.794,32.675,22.906,30.562,22.906z"/>
		</g>
	</g>
	<path fill="#D62731" d="M40.811,14.512l-4.806,4.806c-0.338,1.072-1.147,1.818-2.227,2.269c1.849,0.576,3.072,1.776,3.072,3.984
		c0,3.264-2.352,4.824-6.24,4.824h-4.752v-0.93l-3.604,3.604c2.223,1.678,4.979,2.686,7.979,2.686
		c7.323,0,13.264-5.937,13.264-13.264C43.496,19.49,42.488,16.733,40.811,14.512z"/>
	<path fill="#D62731" d="M25.858,13.833h4.824c2.341,0,3.909,0.667,4.752,1.812l3.316-3.314c-2.306-1.936-5.274-3.104-8.519-3.104
		c-7.324,0-13.264,5.937-13.264,13.264c0,3.245,1.168,6.213,3.103,8.518l5.787-5.787V13.833z"/>
</g>
</svg>
