<?xml version="1.0" encoding="utf-8"?>
<!-- Generator: Adobe Illustrator 16.0.4, SVG Export Plug-In . SVG Version: 6.00 Build 0)  -->
<!DOCTYPE svg PUBLIC "-//W3C//DTD SVG 1.1//EN" "http://www.w3.org/Graphics/SVG/1.1/DTD/svg11.dtd">
<svg version="1.1" id="Layer_1" xmlns="http://www.w3.org/2000/svg" xmlns:xlink="http://www.w3.org/1999/xlink" x="0px" y="0px"
	 width="58px" height="58px" viewBox="0 0 58 58" enable-background="new 0 0 58 58" xml:space="preserve">
<g>
	<g>
		<path fill="#FDFEFF" d="M30.232,7.24c-8.973,0-16.25,7.275-16.25,16.25c0,6.793,13.549,27.639,16.25,27.625
			c2.66,0.014,16.25-20.921,16.25-27.625C46.482,14.516,39.207,7.24,30.232,7.24z"/>
		<path fill="#686969" d="M30.232,3.99c-10.77,0-19.5,8.731-19.5,19.5c0,8.153,16.258,32.518,19.5,32.5
			c3.191,0.018,19.5-24.456,19.5-32.5C49.732,12.722,41.004,3.99,30.232,3.99z M30.232,51.115
			c-2.701,0.014-16.25-20.832-16.25-27.625c0-8.975,7.277-16.25,16.25-16.25c8.975,0,16.25,7.275,16.25,16.25
			C46.482,30.194,32.893,51.129,30.232,51.115z"/>
	</g>
	<g>
		<path fill="#D62731" d="M33.227,19.394c0-1.32-0.792-2.136-2.712-2.136h-1.608v4.392h1.464
			C32.243,21.649,33.227,20.81,33.227,19.394z"/>
		<path fill="#D62731" d="M30.232,10.227c-7.324,0-13.264,5.937-13.264,13.264s5.939,13.264,13.264,13.264
			c7.323,0,13.264-5.937,13.264-13.264S37.556,10.227,30.232,10.227z M30.61,31.395h-4.752V14.833h4.824
			c3.721,0,5.496,1.681,5.496,4.297c0,1.729-0.96,2.855-2.4,3.456c1.849,0.576,3.072,1.776,3.072,3.984
			C36.851,29.834,34.499,31.395,30.61,31.395z"/>
		<path fill="#D62731" d="M30.562,23.906h-1.656v5.064h1.704c2.016,0,3.192-0.841,3.192-2.497
			C33.803,24.794,32.675,23.906,30.562,23.906z"/>
	</g>
</g>
</svg>
