<?xml version="1.0" encoding="utf-8"?>
<!-- Generator: Adobe Illustrator 16.0.4, SVG Export Plug-In . SVG Version: 6.00 Build 0)  -->
<!DOCTYPE svg PUBLIC "-//W3C//DTD SVG 1.1//EN" "http://www.w3.org/Graphics/SVG/1.1/DTD/svg11.dtd">
<svg version="1.1" id="Layer_1" xmlns="http://www.w3.org/2000/svg" xmlns:xlink="http://www.w3.org/1999/xlink" x="0px" y="0px"
	 width="58px" height="58px" viewBox="0 0 58 58" enable-background="new 0 0 58 58" xml:space="preserve">
<g>
	<g>
		<path fill="#FDFEFF" d="M30.232,6.24c-8.973,0-16.25,7.275-16.25,16.25c0,6.793,13.549,27.639,16.25,27.625
			c2.66,0.014,16.25-20.921,16.25-27.625C46.482,13.516,39.207,6.24,30.232,6.24z"/>
		<path fill="#686969" d="M30.232,2.99c-10.77,0-19.5,8.731-19.5,19.5c0,8.153,16.258,32.518,19.5,32.5
			c3.191,0.018,19.5-24.456,19.5-32.5C49.732,11.722,41.004,2.99,30.232,2.99z M30.232,50.115
			c-2.701,0.014-16.25-20.832-16.25-27.625c0-8.975,7.277-16.25,16.25-16.25c8.975,0,16.25,7.275,16.25,16.25
			C46.482,29.194,32.893,50.129,30.232,50.115z"/>
	</g>
	<path fill="#D62731" d="M30.232,9.227c-7.324,0-13.264,5.937-13.264,13.264s5.939,13.264,13.264,13.264
		c7.323,0,13.264-5.937,13.264-13.264S37.556,9.227,30.232,9.227z M30.51,31.06c-4.824,0-7.849-3.408-7.849-8.545
		s3.145-8.593,7.825-8.593c1.92,0,3.408,0.456,4.632,1.2l-0.456,3c-1.08-0.815-2.424-1.464-4.032-1.464
		c-2.929,0-4.729,2.232-4.729,5.833c0,3.647,1.921,5.808,4.849,5.808c1.536,0,2.928-0.552,4.2-1.392l0.433,2.736
		C34.062,30.483,32.382,31.06,30.51,31.06z"/>
</g>
</svg>
