<?xml version="1.0" encoding="utf-8"?>
<!-- Generator: Adobe Illustrator 16.0.4, SVG Export Plug-In . SVG Version: 6.00 Build 0)  -->
<!DOCTYPE svg PUBLIC "-//W3C//DTD SVG 1.1//EN" "http://www.w3.org/Graphics/SVG/1.1/DTD/svg11.dtd">
<svg version="1.1" id="Layer_1" xmlns="http://www.w3.org/2000/svg" xmlns:xlink="http://www.w3.org/1999/xlink" x="0px" y="0px"
	 width="72px" height="72px" viewBox="0 0 72 72" enable-background="new 0 0 72 72" xml:space="preserve">
<g id="XMLID_4341_">
	<path id="XMLID_4349_" fill="#FFFFFF" d="M60.346,57.794v-5.537c0-2.524,2.048-4.573,4.574-4.573h5.747L60.346,57.794z"/>
	<g id="XMLID_4342_">
		<path id="XMLID_4348_" fill="#FFFFFF" d="M17.87,38.247l-0.997,6.382h0.1c2.659,0,3.987-1.097,3.987-3.058
			C20.96,40.143,20.33,39.145,17.87,38.247z"/>
		<path id="XMLID_4347_" fill="#FFFFFF" d="M16.873,28.178c-2.327,0-3.456,0.999-3.456,2.625c0,1.431,0.697,2.194,3.024,3.024
			l0.863-5.649H16.873z"/>
		<path id="XMLID_4343_" fill="#FFFFFF" d="M64.882,14.206H7.117c-3.194,0-5.784,2.59-5.784,5.785v32.02
			c0,3.195,2.59,5.783,5.784,5.783h51.595v-5.537c0-3.426,2.78-6.206,6.208-6.206h5.747v-26.06
			C70.667,16.796,68.077,14.206,64.882,14.206z M16.707,47.785h-0.166l-0.599,3.923l-2.292-0.499l0.531-3.589
			c-1.861-0.3-3.556-0.865-4.918-1.563l0.531-3.421c1.662,0.929,3.29,1.562,5.053,1.861l1.029-6.881
			c-4.021-1.362-6.048-2.824-6.048-6.381c0-3.986,2.892-6.181,7.478-6.181h0.333l0.399-2.492l2.326,0.531l-0.366,2.194
			c1.43,0.267,2.658,0.698,3.723,1.229l-0.566,3.423c-1.096-0.664-2.392-1.197-3.789-1.496l-0.93,6.049
			c4.155,1.362,6.148,3.089,6.148,6.713C24.583,45.492,21.526,47.785,16.707,47.785z M51.933,46.891H28.867
			c-0.539,0-0.975-0.438-0.975-0.976s0.437-0.976,0.975-0.976h23.065c0.542,0,0.978,0.438,0.978,0.976S52.475,46.891,51.933,46.891z
			"/>
	</g>
</g>
</svg>
