<?xml version="1.0" encoding="utf-8"?>
<!-- Generator: Adobe Illustrator 16.0.4, SVG Export Plug-In . SVG Version: 6.00 Build 0)  -->
<!DOCTYPE svg PUBLIC "-//W3C//DTD SVG 1.1//EN" "http://www.w3.org/Graphics/SVG/1.1/DTD/svg11.dtd">
<svg version="1.1" id="Layer_1" xmlns="http://www.w3.org/2000/svg" xmlns:xlink="http://www.w3.org/1999/xlink" x="0px" y="0px"
	 width="72px" height="72px" viewBox="0 0 72 72" enable-background="new 0 0 72 72" xml:space="preserve">
<g id="XMLID_4483_">
	<path id="XMLID_4487_" fill="#FFFFFF" d="M44.194,63.905c-0.539-1.487-0.812-3.049-0.812-4.645c0-4.501,2.209-8.488,5.592-10.968
		c-2.021-0.917-3.874-1.695-5.262-2.257c-0.913-0.369-1.631-2.991-1.725-6.205c0.783-0.709,1.521-1.643,2.279-2.896
		c0.245-0.404,0.491-0.787,0.732-1.165c0.783-1.223,1.588-2.483,2.279-4.188c0.68-0.3,1.3-0.865,1.685-1.569
		c1.441-2.645,2.276-6.882,1.686-8.559c-0.237-0.674-0.729-1.163-1.405-1.424C49.246,12.15,45.756,6.1,39.82,3.749
		c-1.186-0.521-6.547-2.659-8.6-2.694c-1.322,0-2.54,0.522-2.865,1.218c-0.184,0.394-0.261,0.796-0.296,1.17
		c-2.016,0.261-4.016,1.222-4.589,3.29c-0.076,0.211-0.097,0.441-0.054,0.661c-2.161,2.406-4.23,6.34-4.227,12.573
		c-0.759,0.244-1.309,0.755-1.563,1.481c-0.594,1.672,0.24,5.905,1.682,8.549c0.412,0.755,1.094,1.342,1.831,1.615
		c0.672,1.686,1.438,2.891,2.245,4.158c0.229,0.36,0.462,0.726,0.697,1.108c0.812,1.333,1.635,2.326,2.551,3.073
		c-0.179,3.475-1.044,5.823-1.797,6.05c-2.185,0.652-18.784,7.014-20.232,12.61c-0.894,3.453-1.25,5.405-1.264,5.488
		c-0.001,0.004-0.001,0.013-0.002,0.021c0.697,2.088,2.854,3.597,5.207,3.705c0.001,0,37.949,0,37.949,0
		c-0.294-0.356-0.609-0.695-0.866-1.083C45.047,65.866,44.568,64.918,44.194,63.905z"/>
	<path id="XMLID_4484_" fill="#FFFFFF" d="M56.984,47.58h-0.003c-6.455,0-11.683,5.231-11.683,11.681
		c0,1.404,0.246,2.744,0.698,3.992c0.002,0.004,0.007,0.013,0.009,0.021c0.315,0.856,0.724,1.665,1.22,2.413
		c1.551,2.353,3.927,4.105,6.719,4.857c0.968,0.257,1.985,0.4,3.035,0.4c6.453,0,11.685-5.231,11.685-11.685
		C68.664,52.812,63.436,47.58,56.984,47.58z M62.972,60.348h-4.822v4.822c0,0.618-0.498,1.113-1.113,1.113s-1.113-0.495-1.113-1.113
		v-4.822h-4.822c-0.613,0-1.113-0.496-1.113-1.113c0-0.613,0.5-1.113,1.113-1.113h4.822v-4.818c0-0.617,0.498-1.113,1.113-1.113
		s1.113,0.496,1.113,1.113v4.818h4.822c0.613,0,1.113,0.5,1.113,1.113C64.085,59.852,63.585,60.348,62.972,60.348z"/>
</g>
</svg>
