<?xml version="1.0" encoding="utf-8"?>
<!-- Generator: Adobe Illustrator 16.0.4, SVG Export Plug-In . SVG Version: 6.00 Build 0)  -->
<!DOCTYPE svg PUBLIC "-//W3C//DTD SVG 1.1//EN" "http://www.w3.org/Graphics/SVG/1.1/DTD/svg11.dtd">
<svg version="1.1" id="Layer_1" xmlns="http://www.w3.org/2000/svg" xmlns:xlink="http://www.w3.org/1999/xlink" x="0px" y="0px"
	 width="72px" height="72px" viewBox="0 0 72 72" enable-background="new 0 0 72 72" xml:space="preserve">
<g id="XMLID_4473_">
	<path id="XMLID_4480_" fill="#FFFFFF" d="M36,1.167C16.793,1.167,1.167,16.793,1.167,36S16.793,70.834,36,70.834
		S70.834,55.207,70.834,36S55.207,1.167,36,1.167z M36.851,52.196c-12.974,0-23.491-14.923-23.491-14.923
		s10.518-14.921,23.491-14.921c12.973,0,23.488,14.921,23.488,14.921S49.823,52.196,36.851,52.196z"/>
	<path id="XMLID_4477_" fill="#FFFFFF" d="M36.851,25.593c-8.562,0-16.248,7.964-19.369,11.681
		c3.119,3.717,10.806,11.683,19.369,11.683c8.56,0,16.247-7.964,19.368-11.683C53.098,33.559,45.414,25.593,36.851,25.593z
		 M36.851,47.683c-5.738,0-10.408-4.669-10.408-10.409c0-5.738,4.67-10.407,10.408-10.407c5.736,0,10.409,4.669,10.409,10.407
		C47.26,43.014,42.587,47.683,36.851,47.683z"/>
	<path id="XMLID_4474_" fill="#FFFFFF" d="M36.851,29.026c-4.549,0-8.248,3.7-8.248,8.247c0,4.55,3.699,8.249,8.248,8.249
		c4.55,0,8.249-3.699,8.249-8.249C45.1,32.726,41.4,29.026,36.851,29.026z M36.851,42.62c-2.953,0-5.347-2.394-5.347-5.347
		c0-2.951,2.394-5.345,5.347-5.345c0.593,0,1.163,0.1,1.696,0.278c-0.821,0.415-1.39,1.259-1.39,2.241
		c0,1.391,1.128,2.52,2.521,2.52c0.982,0,1.824-0.567,2.241-1.388c0.179,0.531,0.276,1.101,0.276,1.694
		C42.195,40.227,39.802,42.62,36.851,42.62z"/>
</g>
</svg>
