<?xml version="1.0" encoding="utf-8"?>
<!-- Generator: Adobe Illustrator 16.0.4, SVG Export Plug-In . SVG Version: 6.00 Build 0)  -->
<!DOCTYPE svg PUBLIC "-//W3C//DTD SVG 1.1//EN" "http://www.w3.org/Graphics/SVG/1.1/DTD/svg11.dtd">
<svg version="1.1" id="Layer_1" xmlns="http://www.w3.org/2000/svg" xmlns:xlink="http://www.w3.org/1999/xlink" x="0px" y="0px"
	 width="72px" height="72px" viewBox="0 0 72 72" enable-background="new 0 0 72 72" xml:space="preserve">
<g id="XMLID_4368_">
	<path id="XMLID_4374_" fill="#FFFFFF" d="M71.133,23.289c0-9.109-8.891-16.516-19.818-16.516c-7.91,0-14.735,3.892-17.91,9.491
		c11.372,2.678,19.748,11.477,19.748,21.916c0,0.526-0.051,1.041-0.094,1.556c0.488-0.034,0.978-0.082,1.462-0.146l0.489,0.078
		c0.961,0.682,6.72,4.645,10.792,4.645c0.269,0,0.509-0.163,0.609-0.408c0.101-0.248,0.045-0.531-0.144-0.72
		c-0.056-0.056-0.129-0.125-0.219-0.206c-0.772-0.712-2.797-2.582-2.878-6.332l0.219-0.259
		C68.313,33.234,71.133,28.465,71.133,23.289z M51.643,25.871c-1.089,0-1.975-0.886-1.975-1.977c0-1.092,0.886-1.975,1.975-1.975
		c1.094,0,1.978,0.883,1.978,1.975C53.62,24.985,52.736,25.871,51.643,25.871z M58.887,25.871c-1.09,0-1.976-0.886-1.976-1.977
		c0-1.092,0.886-1.975,1.976-1.975c1.094,0,1.977,0.883,1.977,1.975C60.863,24.985,59.98,25.871,58.887,25.871z"/>
	<path id="XMLID_4369_" fill="#FFFFFF" d="M26.166,17.307c-13.95,0-25.299,9.457-25.299,21.082c0,6.608,3.599,12.698,9.882,16.726
		l0.281,0.33c-0.106,4.786-2.688,7.171-3.672,8.08c-0.115,0.107-0.209,0.193-0.281,0.266c-0.241,0.24-0.313,0.601-0.182,0.918
		c0.129,0.313,0.436,0.519,0.776,0.519c5.2,0,12.552-5.056,13.78-5.927l0.625-0.103c1.347,0.185,2.722,0.278,4.09,0.278
		c13.951,0,25.301-9.461,25.301-21.087C51.467,26.763,40.117,17.307,26.166,17.307z M16.499,41.687
		c-1.393,0-2.522-1.128-2.522-2.521c0-1.393,1.129-2.523,2.522-2.523c1.393,0,2.521,1.13,2.521,2.523
		C19.02,40.559,17.891,41.687,16.499,41.687z M25.746,41.687c-1.393,0-2.521-1.128-2.521-2.521c0-1.393,1.129-2.523,2.521-2.523
		c1.394,0,2.523,1.13,2.523,2.523C28.269,40.559,27.14,41.687,25.746,41.687z M34.993,41.687c-1.393,0-2.521-1.128-2.521-2.521
		c0-1.393,1.129-2.523,2.521-2.523c1.394,0,2.522,1.13,2.522,2.523C37.516,40.559,36.387,41.687,34.993,41.687z"/>
</g>
</svg>
