<?xml version="1.0" encoding="utf-8"?>
<!-- Generator: Adobe Illustrator 16.0.4, SVG Export Plug-In . SVG Version: 6.00 Build 0)  -->
<!DOCTYPE svg PUBLIC "-//W3C//DTD SVG 1.1//EN" "http://www.w3.org/Graphics/SVG/1.1/DTD/svg11.dtd">
<svg version="1.1" id="Layer_1" xmlns="http://www.w3.org/2000/svg" xmlns:xlink="http://www.w3.org/1999/xlink" x="0px" y="0px"
	 width="72px" height="72px" viewBox="0 0 72 72" enable-background="new 0 0 72 72" xml:space="preserve">
<g id="XMLID_4302_">
	<path id="XMLID_4305_" fill="#FFFFFF" d="M30.233,26.519c1.211,0,2.36,0.247,3.426,0.662l4.173-4.017
		c0.344-0.329,0.715-0.62,1.11-0.872c-2.52-1.604-5.502-2.546-8.709-2.546c-8.976,0-16.254,7.277-16.254,16.254
		s7.278,16.254,16.254,16.254c8.977,0,16.253-7.277,16.253-16.254c0-2.05-0.394-4.004-1.087-5.81l-2.191-1.918
		c-0.021-0.019-0.094-0.055-0.218-0.055c-0.146,0-0.232,0.053-0.245,0.063l-3.916,3.77c0.555,1.206,0.886,2.536,0.886,3.95
		c0,5.236-4.246,9.481-9.482,9.481c-5.237,0-9.481-4.245-9.481-9.481C20.752,30.764,24.996,26.519,30.233,26.519z"/>
	<path id="XMLID_4304_" fill="#FFFFFF" d="M70.094,15.637c-0.289-0.249-0.662-0.385-1.048-0.385c-0.167,0-0.335,0.025-0.498,0.078
		L58.44,18.598c-0.41,0.132-0.745,0.417-0.942,0.802s-0.232,0.823-0.101,1.233c0.218,0.67,0.838,1.119,1.542,1.119
		c0.167,0,0.335-0.025,0.494-0.078l4.004-1.294l-8.589,8.482c-0.396,0.392-0.966,0.616-1.566,0.616
		c-0.551,0-1.068-0.184-1.451-0.521l-5.224-4.572c-0.978-0.854-2.262-1.326-3.614-1.326c-1.458,0-2.815,0.532-3.825,1.5
		l-7.717,7.427c-0.388-0.118-0.792-0.199-1.218-0.199c-2.328,0-4.214,1.887-4.214,4.214c0,2.327,1.886,4.214,4.214,4.214
		c2.327,0,4.214-1.887,4.214-4.214c0-0.702-0.188-1.355-0.492-1.938l7.453-7.173c0.4-0.383,0.979-0.603,1.583-0.603
		c0.57,0,1.1,0.19,1.489,0.532l5.224,4.574c0.972,0.848,2.241,1.315,3.577,1.315c1.449,0,2.848-0.563,3.841-1.543l9.55-9.433
		l-0.653,4.287c-0.062,0.427,0.042,0.854,0.298,1.202c0.255,0.348,0.632,0.576,1.06,0.641c0.082,0.011,0.163,0.017,0.243,0.017
		c0.791,0,1.479-0.59,1.598-1.374l1.429-9.393C70.73,16.554,70.522,16.003,70.094,15.637z"/>
	<path id="XMLID_4303_" fill="#FFFFFF" d="M58.479,32.536c-1.352,1.336-3.246,2.103-5.198,2.103c-0.335,0-0.666-0.044-0.997-0.088
		c0.033,0.481,0.075,0.959,0.075,1.449c0,12.219-9.906,22.122-22.125,22.122C18.015,58.122,8.109,48.219,8.109,36
		c0-12.218,9.905-22.123,22.124-22.123c7.524,0,14.161,3.764,18.159,9.502l4.708,4.124c0.013,0.012,0.073,0.044,0.183,0.044
		c0.123,0,0.199-0.044,0.212-0.057l3.173-3.135C52.187,14.2,42.046,7.104,30.233,7.104C14.274,7.104,1.337,20.041,1.337,36
		s12.937,28.896,28.896,28.896C46.192,64.896,59.13,51.959,59.13,36c0-1.301-0.115-2.572-0.283-3.829L58.479,32.536z"/>
</g>
</svg>
