<?xml version="1.0" encoding="utf-8"?>
<!-- Generator: Adobe Illustrator 16.0.4, SVG Export Plug-In . SVG Version: 6.00 Build 0)  -->
<!DOCTYPE svg PUBLIC "-//W3C//DTD SVG 1.1//EN" "http://www.w3.org/Graphics/SVG/1.1/DTD/svg11.dtd">
<svg version="1.1" id="Layer_1" xmlns="http://www.w3.org/2000/svg" xmlns:xlink="http://www.w3.org/1999/xlink" x="0px" y="0px"
	 width="72px" height="72px" viewBox="0 0 72 72" enable-background="new 0 0 72 72" xml:space="preserve">
<g id="XMLID_4358_">
	<path id="XMLID_4364_" fill="#FFFFFF" d="M56.224,58.213c-0.929-3.589-8.637-7.516-13.89-9.765
		c-1.632-0.733-3.125-1.359-4.265-1.822c-0.839-0.34-1.498-2.747-1.584-5.697c0.72-0.649,1.395-1.509,2.093-2.658
		c0.225-0.369,0.451-0.722,0.673-1.067c0.718-1.124,1.457-2.282,2.092-3.848c0.013-0.004,0.023-0.017,0.034-0.023
		c-4.109-3.068-6.453-7.419-6.453-12.136c0-3.834,1.584-7.357,4.213-10.132c-1.281-1.412-2.824-2.542-4.643-3.262
		c-1.086-0.479-6.01-2.442-7.895-2.474c-1.214,0-2.332,0.48-2.63,1.119c-0.168,0.361-0.24,0.73-0.271,1.072
		c-1.851,0.242-3.688,1.124-4.214,3.021c-0.069,0.194-0.09,0.406-0.05,0.606c-1.983,2.211-3.884,5.824-3.88,11.546
		c-0.696,0.222-1.202,0.692-1.436,1.359c-0.545,1.534,0.221,5.421,1.544,7.851c0.378,0.692,1.004,1.23,1.681,1.482
		c0.617,1.546,1.32,2.653,2.061,3.818c0.21,0.328,0.424,0.664,0.64,1.017c0.747,1.224,1.501,2.136,2.341,2.824
		c-0.163,3.185-0.958,5.343-1.65,5.55c-2.006,0.6-17.245,6.442-18.575,11.578c-0.82,3.172-1.147,4.963-1.161,5.037
		C1,63.218,1.001,63.225,1,63.232c0.013,1.806,2.62,3.301,4.78,3.399l46.828,0.04c2.157-0.098,4.875-1.36,4.778-3.4
		c-0.002-0.007,0-0.016-0.002-0.021C57.371,63.175,57.044,61.383,56.224,58.213z"/>
	<path id="XMLID_4359_" fill="#FFFFFF" d="M53.944,6.981c-9.403,0-17.056,6.376-17.056,14.214c0,4.454,2.427,8.56,6.663,11.273
		l0.19,0.225c-0.073,3.228-1.814,4.834-2.479,5.447c-0.077,0.07-0.141,0.13-0.188,0.18c-0.163,0.162-0.212,0.405-0.124,0.617
		c0.087,0.211,0.294,0.351,0.523,0.351c3.505,0,8.461-3.41,9.29-3.997l0.421-0.066c0.908,0.122,1.835,0.186,2.758,0.186
		C63.348,35.41,71,29.034,71,21.196S63.348,6.981,53.944,6.981z M47.427,23.417c-0.94,0-1.7-0.76-1.7-1.7
		c0-0.938,0.76-1.701,1.7-1.701c0.938,0,1.698,0.763,1.698,1.701C49.125,22.657,48.364,23.417,47.427,23.417z M53.66,23.417
		c-0.938,0-1.698-0.76-1.698-1.7c0-0.938,0.761-1.701,1.698-1.701c0.94,0,1.7,0.763,1.7,1.701
		C55.36,22.657,54.601,23.417,53.66,23.417z M59.896,23.417c-0.939,0-1.7-0.76-1.7-1.7c0-0.938,0.761-1.701,1.7-1.701
		c0.938,0,1.701,0.763,1.701,1.701C61.597,22.657,60.834,23.417,59.896,23.417z"/>
</g>
</svg>
