<?xml version="1.0" encoding="utf-8"?>
<!-- Generator: Adobe Illustrator 16.0.4, SVG Export Plug-In . SVG Version: 6.00 Build 0)  -->
<!DOCTYPE svg PUBLIC "-//W3C//DTD SVG 1.1//EN" "http://www.w3.org/Graphics/SVG/1.1/DTD/svg11.dtd">
<svg version="1.1" id="Layer_1" xmlns="http://www.w3.org/2000/svg" xmlns:xlink="http://www.w3.org/1999/xlink" x="0px" y="0px"
	 width="72px" height="72px" viewBox="0 0 72 72" enable-background="new 0 0 72 72" xml:space="preserve">
<g id="XMLID_4427_">
	<path id="XMLID_4429_" fill-rule="evenodd" clip-rule="evenodd" fill="#FFFFFF" d="M36,1.167c-13.59,0-24.607,11.132-24.607,24.864
		c0,12.368,15.706,32.882,22.881,43.866c0.819,1.25,2.634,1.25,3.453,0c7.176-10.985,22.881-31.498,22.881-43.866
		C60.607,12.299,49.59,1.167,36,1.167z M53.021,31.174c-0.287,1.121-0.695,2.198-1.208,3.221c-0.166,0.333-0.571,0.421-0.92,0.261
		c-1.425-0.648-3.139-0.521-4.448,0.383c-0.314,0.219-0.759,0.645-0.986,0.944c-1.035,1.365-1.102,3.194-0.195,4.618
		c0.204,0.315,0.152,0.708-0.181,0.901c-1.015,0.59-2.099,1.083-3.234,1.468c-0.365,0.123-0.716-0.088-0.846-0.434
		c-0.6-1.627-2.22-2.792-4.127-2.792c-2.06,0-3.787,1.358-4.252,3.189c-0.092,0.359-0.419,0.602-0.795,0.517
		c-1.173-0.274-2.3-0.666-3.37-1.154c-0.351-0.162-0.442-0.547-0.274-0.883c0.774-1.552,0.491-3.468-0.859-4.756
		c-1.454-1.391-3.678-1.597-5.36-0.619c-0.334,0.191-0.744,0.14-0.946-0.177c-0.616-0.967-1.14-2-1.542-3.087
		c-0.129-0.349,0.092-0.683,0.455-0.808c1.703-0.572,2.923-2.122,2.923-3.941c0-1.971-1.422-3.619-3.338-4.063
		c-0.378-0.087-0.631-0.4-0.54-0.761c0.289-1.123,0.695-2.203,1.208-3.221c0.168-0.336,0.57-0.423,0.921-0.264
		c1.626,0.742,3.633,0.472,4.979-0.816c1.458-1.39,1.671-3.516,0.648-5.126c-0.202-0.316-0.148-0.71,0.183-0.901
		c1.014-0.591,2.098-1.084,3.234-1.471c0.368-0.121,0.718,0.089,0.844,0.438c0.602,1.626,2.22,2.79,4.129,2.79
		c2.061,0,3.786-1.361,4.254-3.191c0.09-0.357,0.417-0.602,0.793-0.512c1.176,0.272,2.305,0.663,3.375,1.152
		c0.349,0.157,0.439,0.546,0.271,0.878c-0.678,1.363-0.544,3.002,0.399,4.25c0.23,0.302,0.677,0.729,0.989,0.944
		c1.429,0.989,3.34,1.05,4.832,0.188c0.332-0.194,0.742-0.145,0.944,0.17c0.616,0.972,1.133,2.007,1.539,3.093
		c0.128,0.347-0.094,0.683-0.459,0.806c-1.701,0.574-2.921,2.122-2.921,3.944c0,1.969,1.424,3.616,3.342,4.062
		C52.859,30.5,53.113,30.812,53.021,31.174z"/>
	<ellipse id="XMLID_4428_" fill-rule="evenodd" clip-rule="evenodd" fill="#FFFFFF" cx="36" cy="27.184" rx="7.707" ry="7.366"/>
</g>
</svg>
