<?xml version="1.0" encoding="utf-8"?>
<!-- Generator: Adobe Illustrator 16.0.4, SVG Export Plug-In . SVG Version: 6.00 Build 0)  -->
<!DOCTYPE svg PUBLIC "-//W3C//DTD SVG 1.1//EN" "http://www.w3.org/Graphics/SVG/1.1/DTD/svg11.dtd">
<svg version="1.1" id="Icons" xmlns="http://www.w3.org/2000/svg" xmlns:xlink="http://www.w3.org/1999/xlink" x="0px" y="0px"
	 width="58px" height="58px" viewBox="0 0 58 58" enable-background="new 0 0 58 58" xml:space="preserve">
<g id="New-Contact_1_" display="none">
	<g display="inline">
		<path fill="#989898" d="M40.18,29.59c2.078-2.807,3.328-6.402,3.328-10.322c0-8.975-6.547-16.25-14.625-16.25
			c-8.077,0-14.625,7.275-14.625,16.25c0,3.92,1.25,7.516,3.329,10.322c-3.818,1.32-6.579,4.91-6.579,9.177v6.5
			c0,5.385,4.366,9.75,9.75,9.75h16.25c5.385,0,9.75-4.365,9.75-9.75v-6.5C46.758,34.5,43.997,30.91,40.18,29.59z M17.508,19.268
			c0-7.18,5.092-13,11.375-13s11.375,5.82,11.375,13s-5.092,13-11.375,13S17.508,26.448,17.508,19.268z M43.508,44.455
			c0,4.039-3.572,7.312-7.977,7.312H22.236c-4.405,0-7.978-3.273-7.978-7.312V39.58c0-3.455,2.622-6.332,6.135-7.096
			c2.396,1.902,5.321,3.033,8.49,3.033c3.169,0,6.093-1.131,8.49-3.033c3.514,0.764,6.135,3.641,6.135,7.096V44.455z"/>
	</g>
</g>
<g id="password" display="none">
	<g display="inline">
		<path fill="#989898" d="M29.751,35.838c-0.907,0-1.641,0.734-1.641,1.641v6.564c0,0.906,0.734,1.641,1.641,1.641
			s1.641-0.734,1.641-1.641v-6.564C31.392,36.572,30.658,35.838,29.751,35.838z M42.879,29.304V16.146
			c0-7.25-5.879-13.128-13.128-13.128c-7.25,0-13.128,5.878-13.128,13.128v13.158c-2.051,2.739-3.282,6.129-3.282,9.815
			c0,9.064,7.348,16.41,16.41,16.41c9.062,0,16.409-7.346,16.409-16.41C46.16,35.434,44.93,32.043,42.879,29.304z M19.905,16.146
			c0-5.438,4.409-9.846,9.846-9.846c5.437,0,9.847,4.408,9.847,9.846v9.868c-2.746-2.066-6.146-3.305-9.847-3.305
			c-3.699,0-7.101,1.238-9.846,3.305V16.146z M29.751,52.246c-7.25,0-13.128-5.877-13.128-13.127s5.878-13.127,13.128-13.127
			c7.003,0,13.128,6.125,13.128,13.127C42.879,46.369,37,52.246,29.751,52.246z"/>
	</g>
	<g display="inline">
		<path fill="#989898" d="M29.751,35.838c-0.907,0-1.641,0.734-1.641,1.641v6.564c0,0.906,0.734,1.641,1.641,1.641
			s1.641-0.734,1.641-1.641v-6.564C31.392,36.572,30.658,35.838,29.751,35.838z M42.879,29.304V16.146
			c0-7.25-5.879-13.128-13.128-13.128c-7.25,0-13.128,5.878-13.128,13.128v13.158c-2.051,2.739-3.282,6.129-3.282,9.815
			c0,9.064,7.348,16.41,16.41,16.41c9.062,0,16.409-7.346,16.409-16.41C46.16,35.434,44.93,32.043,42.879,29.304z M19.905,16.146
			c0-5.438,4.409-9.846,9.846-9.846c5.437,0,9.847,4.408,9.847,9.846v9.868c-2.746-2.066-6.146-3.305-9.847-3.305
			c-3.699,0-7.101,1.238-9.846,3.305V16.146z M29.751,52.246c-7.25,0-13.128-5.877-13.128-13.127s5.878-13.127,13.128-13.127
			c7.003,0,13.128,6.125,13.128,13.127C42.879,46.369,37,52.246,29.751,52.246z"/>
	</g>
</g>
<g id="Menu" display="none">
	<g display="inline">
		<path fill="#989898" d="M5.114,13.947H52.7c1.459,0,2.643-0.988,2.643-2.211c0-1.22-1.184-2.211-2.643-2.211H5.114
			c-1.46,0-2.644,0.991-2.644,2.211C2.471,12.958,3.654,13.947,5.114,13.947z M52.7,27.211H5.114c-1.46,0-2.644,0.991-2.644,2.211
			c0,1.222,1.184,2.21,2.644,2.21H52.7c1.459,0,2.643-0.988,2.643-2.21C55.343,28.203,54.159,27.211,52.7,27.211z M52.7,44.898
			H5.114c-1.46,0-2.644,0.99-2.644,2.211s1.184,2.211,2.644,2.211H52.7c1.459,0,2.643-0.99,2.643-2.211S54.159,44.898,52.7,44.898z"
			/>
	</g>
</g>
<g id="search" display="none">
	<g display="inline">
		<path fill="#989898" d="M54.939,53.104L41.265,39.645c3.58-3.891,5.78-9.035,5.78-14.697c0-12.111-9.977-21.93-22.283-21.93
			c-12.308,0-22.284,9.818-22.284,21.93c0,12.111,9.977,21.927,22.284,21.927c5.317,0,10.195-1.838,14.025-4.896l13.728,13.51
			c0.671,0.66,1.756,0.66,2.425,0C55.609,54.83,55.609,53.762,54.939,53.104z M24.762,43.504c-10.414,0-18.855-8.309-18.855-18.556
			c0-10.248,8.441-18.555,18.855-18.555c10.413,0,18.855,8.307,18.855,18.555C43.617,35.195,35.175,43.504,24.762,43.504z"/>
	</g>
</g>
<g id="map" display="none">
	<g display="inline">
		<path fill="#989898" d="M29.298,3.245c-10.771,0-19.5,8.731-19.5,19.5c0,8.154,16.258,32.517,19.5,32.5
			c3.191,0.018,19.5-24.455,19.5-32.5C48.798,11.976,40.068,3.245,29.298,3.245z M29.298,50.369
			c-2.702,0.014-16.25-20.832-16.25-27.625c0-8.975,7.276-16.25,16.25-16.25s16.25,7.275,16.25,16.25
			C45.548,29.448,31.957,50.383,29.298,50.369z M29.298,14.62c-4.486,0-8.125,3.637-8.125,8.125s3.639,8.125,8.125,8.125
			s8.125-3.636,8.125-8.125S33.784,14.62,29.298,14.62z M29.298,27.62c-2.693,0-4.875-2.182-4.875-4.875s2.182-4.875,4.875-4.875
			s4.875,2.182,4.875,4.875S31.991,27.62,29.298,27.62z"/>
	</g>
</g>
<g id="leftarrrow" display="none">
	<g display="inline">
		<path fill="#989898" d="M19.192,29.119L43.831,6.611c0.862-0.857,0.862-2.25,0-3.105c-0.858-0.859-2.255-0.859-3.114,0
			L14.495,27.455c-0.458,0.457-0.654,1.064-0.622,1.664c-0.032,0.598,0.165,1.206,0.622,1.665l26.222,23.949
			c0.859,0.859,2.256,0.859,3.114,0c0.862-0.857,0.862-2.25,0-3.107L19.192,29.119z"/>
	</g>
</g>
<g id="rightarrow" display="none">
	<g display="inline">
		<path fill="#989898" d="M43.744,27.457L17.475,3.515c-0.861-0.857-2.258-0.857-3.122,0c-0.861,0.857-0.861,2.248,0,3.105
			l24.686,22.498L14.353,51.617c-0.861,0.857-0.861,2.248,0,3.104c0.863,0.859,2.261,0.859,3.122,0l26.27-23.938
			c0.459-0.459,0.655-1.067,0.625-1.665C44.399,28.521,44.203,27.914,43.744,27.457z"/>
	</g>
</g>
<g id="uparrow" display="none">
	<g display="inline">
		<path fill="#989898" d="M55.471,40.723L31.398,14.366c-0.463-0.461-1.072-0.66-1.674-0.627c-0.602-0.033-1.212,0.166-1.674,0.627
			L3.975,40.723c-0.861,0.863-0.861,2.266,0,3.131c0.864,0.865,2.263,0.865,3.125,0l22.624-24.767l22.624,24.767
			c0.861,0.865,2.26,0.865,3.123,0S56.334,41.586,55.471,40.723z"/>
	</g>
</g>
<g id="downarrow" display="none">
	<g display="inline">
		<path fill="#989898" d="M55.491,14.779c-0.883-0.842-2.313-0.842-3.194,0L29.16,38.881L6.025,14.779
			c-0.884-0.842-2.313-0.842-3.194,0c-0.883,0.843-0.883,2.207,0,3.05L27.45,43.475c0.471,0.447,1.095,0.641,1.71,0.611
			c0.615,0.029,1.239-0.164,1.712-0.611l24.619-25.646C56.372,16.986,56.372,15.622,55.491,14.779z"/>
	</g>
</g>
<g id="filter" display="none">
	<path display="inline" fill="#989898" d="M34.189,55.217c-0.976,0-1.862-0.379-2.498-1.068l-9.007-9.004
		c-0.667-0.67-1.033-1.545-1.033-2.465V26.029L4.604,8.981c-1-0.947-1.316-2.492-0.762-3.822C4.411,3.852,5.675,3.02,7.067,3.02
		h45.203c1.393,0,2.656,0.832,3.218,2.12c0.562,1.349,0.245,2.894-0.777,3.863L37.687,26.029v25.692c0,1.393-0.833,2.656-2.12,3.217
		C35.194,55.078,34.715,55.217,34.189,55.217z M7.067,5.495c-0.402,0-0.784,0.254-0.949,0.634c-0.155,0.37-0.073,0.812,0.21,1.079
		l17.797,17.797V42.68c0,0.26,0.11,0.516,0.31,0.715l9.039,9.041c0.204,0.219,0.427,0.307,0.716,0.307
		c0.09,0,0.256-0.025,0.449-0.098c0.318-0.139,0.573-0.521,0.573-0.924V25.004L52.985,7.233c0.307-0.293,0.389-0.734,0.228-1.124
		c-0.158-0.36-0.54-0.614-0.942-0.614H7.067z"/>
</g>
<g id="sorting" display="none">
	<g display="inline">
		<path fill="#989898" d="M28.888,7.571l25.165-0.003c0.994,0,1.798-0.802,1.798-1.796c0-0.993-0.804-1.799-1.798-1.799H28.888
			c-0.993,0-1.797,0.806-1.797,1.799C27.091,6.766,27.895,7.571,28.888,7.571z M31.92,36.871c-0.704-0.707-1.847-0.707-2.551,0
			L19.9,47.768V3.973h-3.595v43.859L6.78,36.871c-0.703-0.707-1.846-0.707-2.55,0c-0.706,0.711-0.706,1.855,0,2.564l12.477,14.357
			c0.378,0.379,0.876,0.539,1.368,0.514c0.491,0.025,0.989-0.135,1.367-0.514L31.92,39.436
			C32.625,38.727,32.625,37.582,31.92,36.871z M54.053,47.162H32.483c-0.994,0-1.798,0.807-1.798,1.799
			c0,0.994,0.804,1.799,1.798,1.799l21.569-0.053c0.994,0,1.798-0.752,1.798-1.746C55.851,47.969,55.047,47.162,54.053,47.162z
			 M54.053,36.365h-14.38c-0.993,0-1.797,0.805-1.797,1.799s0.804,1.76,1.797,1.76h14.38c0.994,0,1.798-0.766,1.798-1.76
			S55.047,36.365,54.053,36.365z M54.053,14.77H28.888c-0.993,0-1.797,0.807-1.797,1.799c0,0.994,0.804,1.784,1.797,1.784h25.165
			c0.994,0,1.798-0.79,1.798-1.784C55.851,15.577,55.047,14.77,54.053,14.77z M54.053,25.568H28.888
			c-0.993,0-1.797,0.806-1.797,1.799s0.804,1.771,1.797,1.771l25.165,0.028c0.994,0,1.798-0.807,1.798-1.8
			S55.047,25.568,54.053,25.568z"/>
	</g>
</g>
<g id="contactlist" display="none">
	<g display="inline">
		<path fill="#989898" d="M32.482,30.232c2.079-2.807,3.33-6.403,3.33-10.323c0-8.975-6.548-16.25-14.625-16.25
			S6.562,10.935,6.562,19.91c0,3.92,1.25,7.516,3.329,10.323c-3.818,1.32-6.579,4.908-6.579,9.178v6.5c0,5.385,4.366,9.75,9.75,9.75
			h16.25c5.384,0,9.75-4.365,9.75-9.75v-6.5C39.062,35.141,36.301,31.553,32.482,30.232z M9.812,19.91c0-7.18,5.092-13,11.375-13
			s11.375,5.82,11.375,13s-5.093,13-11.375,13S9.812,27.089,9.812,19.91z M35.812,45.098c0,4.039-3.572,7.312-7.978,7.312H14.54
			c-4.405,0-7.978-3.273-7.978-7.312v-4.875c0-3.455,2.622-6.332,6.135-7.098c2.396,1.904,5.321,3.035,8.49,3.035
			s6.094-1.131,8.49-3.035c3.513,0.766,6.135,3.643,6.135,7.098V45.098z M40.688,16.66h13c0.898,0,1.625-0.727,1.625-1.625
			c0-0.896-0.727-1.625-1.625-1.625h-13c-0.898,0-1.625,0.729-1.625,1.625C39.062,15.933,39.789,16.66,40.688,16.66z M53.688,23.16
			h-13c-0.898,0-1.625,0.727-1.625,1.625s0.727,1.625,1.625,1.625h13c0.898,0,1.625-0.727,1.625-1.625S54.586,23.16,53.688,23.16z
			 M53.688,32.91h-9.75c-0.898,0-1.625,0.729-1.625,1.625c0,0.898,0.727,1.625,1.625,1.625h9.75c0.898,0,1.625-0.727,1.625-1.625
			C55.312,33.639,54.586,32.91,53.688,32.91z M53.688,42.66h-9.75c-0.898,0-1.625,0.729-1.625,1.625
			c0,0.898,0.727,1.625,1.625,1.625h9.75c0.898,0,1.625-0.727,1.625-1.625C55.312,43.389,54.586,42.66,53.688,42.66z"/>
	</g>
</g>
<g id="hotlist" display="none">
	<g display="inline">
		<path fill="#989898" d="M55.064,23.117l-17.977-2.743L29.006,3.175l-8.082,17.198L2.947,23.117l13.006,13.317l-3.08,18.859
			l16.133-8.908l16.133,8.908l-3.08-18.859L55.064,23.117z M29.006,42.605l-12.099,6.783l2.31-13.688L8.8,25.068l14.09-1.832
			l6.116-13.037l6.062,13.037l14.042,1.992L38.795,35.752l2.157,13.688L29.006,42.605z"/>
	</g>
</g>
<g id="sync" display="none">
	<g display="inline">
		<path fill="#989898" d="M4.976,23.09h16.27c0.898,0,1.627-0.728,1.627-1.627c0-0.897-0.729-1.627-1.627-1.627H8.815
			C12.47,12.145,20.297,6.821,29.38,6.821c11.472,0,20.935,8.489,22.519,19.523h3.287C53.583,13.506,42.653,3.567,29.38,3.567
			c-9.807,0-18.339,5.428-22.777,13.438V5.194c0-0.897-0.729-1.627-1.627-1.627S3.349,4.296,3.349,5.194v16.27
			C3.349,23.04,4.976,23.09,4.976,23.09z M53.784,36.105H37.516c-0.898,0-1.627,0.73-1.627,1.627c0,0.9,0.729,1.627,1.627,1.627
			h12.421c-3.658,7.689-11.476,13.016-20.556,13.016c-11.472,0-20.936-8.488-22.519-19.523H3.574
			C5.179,45.689,16.108,55.629,29.38,55.629c9.807,0,18.339-5.428,22.777-13.438v11.811c0,0.9,0.729,1.627,1.627,1.627
			s1.627-0.727,1.627-1.627v-16.27C55.411,36.004,53.784,36.105,53.784,36.105z"/>
	</g>
</g>
<g id="list" display="none">
	<g display="inline">
		<path fill="#989898" d="M5.075,8.97h48.381c1.029,0,1.861-0.833,1.861-1.861c0-1.026-0.832-1.86-1.861-1.86H5.075
			c-1.029,0-1.861,0.834-1.861,1.86C3.214,8.137,4.046,8.97,5.075,8.97z M5.075,23.856h33.494c1.029,0,1.861-0.832,1.861-1.859
			s-0.832-1.861-1.861-1.861H5.075c-1.029,0-1.861,0.834-1.861,1.861S4.046,23.856,5.075,23.856z M32.987,49.908H5.075
			c-1.029,0-1.861,0.832-1.861,1.859c0,1.029,0.832,1.861,1.861,1.861h27.912c1.029,0,1.861-0.832,1.861-1.861
			C34.849,50.74,34.017,49.908,32.987,49.908z M53.456,35.021H5.075c-1.029,0-1.861,0.834-1.861,1.861s0.832,1.859,1.861,1.859
			h48.381c1.029,0,1.861-0.832,1.861-1.859S54.485,35.021,53.456,35.021z"/>
	</g>
</g>
<g id="locator" display="none">
	<g display="inline">
		<path fill="#989898" d="M28.974,2.988c-14.608,0-26.451,11.843-26.451,26.451c0,14.608,11.843,26.452,26.451,26.452
			c14.609,0,26.452-11.844,26.452-26.452C55.426,14.831,43.583,2.988,28.974,2.988z M30.737,52.273v-8.727
			c0-0.973-0.788-1.764-1.764-1.764c-0.975,0-1.763,0.791-1.763,1.764v8.727C15.96,51.416,6.992,42.451,6.134,31.203h8.732
			c0.976,0,1.764-0.789,1.764-1.764c0-0.975-0.788-1.764-1.764-1.764H6.134C6.992,16.427,15.96,7.461,27.211,6.604v8.728
			c0,0.975,0.788,1.764,1.763,1.764c0.976,0,1.764-0.789,1.764-1.764V6.604c11.25,0.857,20.219,9.823,21.078,21.071h-8.733
			c-0.976,0-1.764,0.789-1.764,1.764c0,0.975,0.788,1.764,1.764,1.764h8.733C50.956,42.451,41.987,51.416,30.737,52.273z"/>
	</g>
</g>
<g id="t-newcontact" display="none">
	<g display="inline">
		<path fill="#989898" d="M41.606,3.106H17.162c-3.857,0-6.984,3.127-6.984,6.984v38.412c0,3.857,3.127,6.984,6.984,6.984
			l12.222-12.223l12.223,12.223c3.856,0,6.984-3.127,6.984-6.984V10.09C48.591,6.233,45.463,3.106,41.606,3.106z"/>
	</g>
</g>
<g id="check_x5F_active" display="none">
	<g display="inline">
		<path fill="#989898" d="M29.44,3.104c-14.405,0-26.083,11.68-26.083,26.084c0,14.406,11.678,26.083,26.083,26.083
			c14.406,0,26.083-11.678,26.083-26.083C55.523,14.784,43.846,3.104,29.44,3.104z M29.44,52.01
			c-12.605,0-22.823-10.217-22.823-22.822c0-12.605,10.218-22.824,22.823-22.824c12.604,0,22.824,10.219,22.824,22.824
			C52.264,41.793,42.044,52.01,29.44,52.01z M39.264,17.887c-0.779-0.45-1.776-0.183-2.225,0.598L26.612,36.543l-5.833-5.381
			c-0.616-0.656-1.647-0.689-2.304-0.076c-0.657,0.617-0.691,1.648-0.075,2.307l7.453,6.873c0.615,0.656,1.647,0.689,2.305,0.076
			c0.198-0.188,11.704-20.227,11.704-20.227C40.312,19.334,40.045,18.338,39.264,17.887z"/>
	</g>
</g>
<g id="check_x5F_inactive" display="none">
	<g display="inline">
		<path fill="#989898" d="M29.44,3.104c-14.405,0-26.083,11.68-26.083,26.084c0,14.406,11.678,26.083,26.083,26.083
			c14.406,0,26.083-11.678,26.083-26.083C55.523,14.784,43.846,3.104,29.44,3.104z M29.44,52.01
			c-12.605,0-22.823-10.217-22.823-22.822c0-12.605,10.218-22.824,22.823-22.824c12.604,0,22.824,10.219,22.824,22.824
			C52.264,41.793,42.044,52.01,29.44,52.01z"/>
	</g>
</g>
<g id="reset">
	<g>
		<path fill="#989898" d="M41.889,6.284h11.824c0.898,0,1.629-0.729,1.629-1.629c0-0.898-0.73-1.629-1.629-1.629H37.426
			c-0.196,0-1.629,0-1.629,1.629v16.287c0,0.9,0.729,1.629,1.629,1.629s1.629-0.729,1.629-1.629V8.498
			c7.7,3.658,13.029,11.495,13.029,20.587c0,12.593-10.209,22.802-22.802,22.802S6.48,41.678,6.48,29.084
			c0-11.482,8.499-20.957,19.544-22.542v-3.29C13.173,4.858,3.223,15.797,3.223,29.084c0,14.392,11.667,26.06,26.059,26.06
			s26.06-11.668,26.06-26.06C55.342,19.268,49.907,10.727,41.889,6.284z"/>
	</g>
</g>
</svg>
