<?xml version="1.0" encoding="utf-8"?>
<!-- Generator: Adobe Illustrator 16.0.4, SVG Export Plug-In . SVG Version: 6.00 Build 0)  -->
<!DOCTYPE svg PUBLIC "-//W3C//DTD SVG 1.1//EN" "http://www.w3.org/Graphics/SVG/1.1/DTD/svg11.dtd">
<svg version="1.1" id="Icons" xmlns="http://www.w3.org/2000/svg" xmlns:xlink="http://www.w3.org/1999/xlink" x="0px" y="0px"
	 width="58px" height="58px" viewBox="0 0 58 58" enable-background="new 0 0 58 58" xml:space="preserve">
<g id="New-Contact_1_" display="none">
	<g display="inline">
		<path fill="#989898" d="M40.18,29.59c2.078-2.807,3.328-6.402,3.328-10.322c0-8.975-6.547-16.25-14.625-16.25
			c-8.077,0-14.625,7.275-14.625,16.25c0,3.92,1.25,7.516,3.329,10.322c-3.818,1.32-6.579,4.91-6.579,9.177v6.5
			c0,5.385,4.366,9.75,9.75,9.75h16.25c5.385,0,9.75-4.365,9.75-9.75v-6.5C46.758,34.5,43.997,30.91,40.18,29.59z M17.508,19.268
			c0-7.18,5.092-13,11.375-13s11.375,5.82,11.375,13s-5.092,13-11.375,13S17.508,26.448,17.508,19.268z M43.508,44.455
			c0,4.039-3.572,7.312-7.977,7.312H22.236c-4.405,0-7.978-3.273-7.978-7.312V39.58c0-3.455,2.622-6.332,6.135-7.096
			c2.396,1.902,5.321,3.033,8.49,3.033c3.169,0,6.093-1.131,8.49-3.033c3.514,0.764,6.135,3.641,6.135,7.096V44.455z"/>
	</g>
</g>
<g id="password" display="none">
	<g display="inline">
		<path fill="#989898" d="M29.751,35.838c-0.907,0-1.641,0.734-1.641,1.641v6.564c0,0.906,0.734,1.641,1.641,1.641
			s1.641-0.734,1.641-1.641v-6.564C31.392,36.572,30.658,35.838,29.751,35.838z M42.879,29.304V16.146
			c0-7.25-5.879-13.128-13.128-13.128c-7.25,0-13.128,5.878-13.128,13.128v13.158c-2.051,2.739-3.282,6.129-3.282,9.815
			c0,9.064,7.348,16.41,16.41,16.41c9.062,0,16.409-7.346,16.409-16.41C46.16,35.434,44.93,32.043,42.879,29.304z M19.905,16.146
			c0-5.438,4.409-9.846,9.846-9.846c5.437,0,9.847,4.408,9.847,9.846v9.868c-2.746-2.066-6.146-3.305-9.847-3.305
			c-3.699,0-7.101,1.238-9.846,3.305V16.146z M29.751,52.246c-7.25,0-13.128-5.877-13.128-13.127s5.878-13.127,13.128-13.127
			c7.003,0,13.128,6.125,13.128,13.127C42.879,46.369,37,52.246,29.751,52.246z"/>
	</g>
	<g display="inline">
		<path fill="#989898" d="M29.751,35.838c-0.907,0-1.641,0.734-1.641,1.641v6.564c0,0.906,0.734,1.641,1.641,1.641
			s1.641-0.734,1.641-1.641v-6.564C31.392,36.572,30.658,35.838,29.751,35.838z M42.879,29.304V16.146
			c0-7.25-5.879-13.128-13.128-13.128c-7.25,0-13.128,5.878-13.128,13.128v13.158c-2.051,2.739-3.282,6.129-3.282,9.815
			c0,9.064,7.348,16.41,16.41,16.41c9.062,0,16.409-7.346,16.409-16.41C46.16,35.434,44.93,32.043,42.879,29.304z M19.905,16.146
			c0-5.438,4.409-9.846,9.846-9.846c5.437,0,9.847,4.408,9.847,9.846v9.868c-2.746-2.066-6.146-3.305-9.847-3.305
			c-3.699,0-7.101,1.238-9.846,3.305V16.146z M29.751,52.246c-7.25,0-13.128-5.877-13.128-13.127s5.878-13.127,13.128-13.127
			c7.003,0,13.128,6.125,13.128,13.127C42.879,46.369,37,52.246,29.751,52.246z"/>
	</g>
</g>
<g id="Menu" display="none">
	<g display="inline">
		<path fill="#989898" d="M5.114,13.947H52.7c1.459,0,2.643-0.988,2.643-2.211c0-1.22-1.184-2.211-2.643-2.211H5.114
			c-1.46,0-2.644,0.991-2.644,2.211C2.471,12.958,3.654,13.947,5.114,13.947z M52.7,27.211H5.114c-1.46,0-2.644,0.991-2.644,2.211
			c0,1.222,1.184,2.21,2.644,2.21H52.7c1.459,0,2.643-0.988,2.643-2.21C55.343,28.203,54.159,27.211,52.7,27.211z M52.7,44.898
			H5.114c-1.46,0-2.644,0.99-2.644,2.211s1.184,2.211,2.644,2.211H52.7c1.459,0,2.643-0.99,2.643-2.211S54.159,44.898,52.7,44.898z"
			/>
	</g>
</g>
<g id="search" display="none">
	<g display="inline">
		<path fill="#989898" d="M54.939,53.104L41.265,39.645c3.58-3.891,5.78-9.035,5.78-14.697c0-12.111-9.977-21.93-22.283-21.93
			c-12.308,0-22.284,9.818-22.284,21.93c0,12.111,9.977,21.927,22.284,21.927c5.317,0,10.195-1.838,14.025-4.896l13.728,13.51
			c0.671,0.66,1.756,0.66,2.425,0C55.609,54.83,55.609,53.762,54.939,53.104z M24.762,43.504c-10.414,0-18.855-8.309-18.855-18.556
			c0-10.248,8.441-18.555,18.855-18.555c10.413,0,18.855,8.307,18.855,18.555C43.617,35.195,35.175,43.504,24.762,43.504z"/>
	</g>
</g>
<g id="map" display="none">
	<g display="inline">
		<path fill="#989898" d="M29.298,3.245c-10.771,0-19.5,8.731-19.5,19.5c0,8.154,16.258,32.517,19.5,32.5
			c3.191,0.018,19.5-24.455,19.5-32.5C48.798,11.976,40.068,3.245,29.298,3.245z M29.298,50.369
			c-2.702,0.014-16.25-20.832-16.25-27.625c0-8.975,7.276-16.25,16.25-16.25s16.25,7.275,16.25,16.25
			C45.548,29.448,31.957,50.383,29.298,50.369z M29.298,14.62c-4.486,0-8.125,3.637-8.125,8.125s3.639,8.125,8.125,8.125
			s8.125-3.636,8.125-8.125S33.784,14.62,29.298,14.62z M29.298,27.62c-2.693,0-4.875-2.182-4.875-4.875s2.182-4.875,4.875-4.875
			s4.875,2.182,4.875,4.875S31.991,27.62,29.298,27.62z"/>
	</g>
</g>
<g id="leftarrrow" display="none">
	<g display="inline">
		<path fill="#989898" d="M19.192,29.119L43.831,6.611c0.862-0.857,0.862-2.25,0-3.105c-0.858-0.859-2.255-0.859-3.114,0
			L14.495,27.455c-0.458,0.457-0.654,1.064-0.622,1.664c-0.032,0.598,0.165,1.206,0.622,1.665l26.222,23.949
			c0.859,0.859,2.256,0.859,3.114,0c0.862-0.857,0.862-2.25,0-3.107L19.192,29.119z"/>
	</g>
</g>
<g id="rightarrow" display="none">
	<g display="inline">
		<path fill="#989898" d="M43.744,27.457L17.475,3.515c-0.861-0.857-2.258-0.857-3.122,0c-0.861,0.857-0.861,2.248,0,3.105
			l24.686,22.498L14.353,51.617c-0.861,0.857-0.861,2.248,0,3.104c0.863,0.859,2.261,0.859,3.122,0l26.27-23.938
			c0.459-0.459,0.655-1.067,0.625-1.665C44.399,28.521,44.203,27.914,43.744,27.457z"/>
	</g>
</g>
<g id="uparrow">
	<g>
		<path fill="#989898" d="M55.471,40.723L31.398,14.366c-0.463-0.461-1.072-0.66-1.674-0.627c-0.602-0.033-1.212,0.166-1.674,0.627
			L3.975,40.723c-0.861,0.863-0.861,2.266,0,3.131c0.864,0.865,2.263,0.865,3.125,0l22.624-24.767l22.624,24.767
			c0.861,0.865,2.26,0.865,3.123,0S56.334,41.586,55.471,40.723z"/>
	</g>
</g>
</svg>
