<?xml version="1.0" encoding="utf-8"?>
<!-- Generator: Adobe Illustrator 16.0.4, SVG Export Plug-In . SVG Version: 6.00 Build 0)  -->
<!DOCTYPE svg PUBLIC "-//W3C//DTD SVG 1.1//EN" "http://www.w3.org/Graphics/SVG/1.1/DTD/svg11.dtd">
<svg version="1.1" id="Layer_1" xmlns="http://www.w3.org/2000/svg" xmlns:xlink="http://www.w3.org/1999/xlink" x="0px" y="0px"
	 width="58px" height="58px" viewBox="0 0 58 58" enable-background="new 0 0 58 58" xml:space="preserve">
<g id="about">
	<g>
		<path fill="#020151" d="M28.804,2.928c-14.357,0-26.039,11.68-26.039,26.034C2.765,43.321,14.442,55,28.804,55
			c14.354,0,26.037-11.679,26.037-26.038C54.841,14.607,43.157,2.928,28.804,2.928L28.804,2.928z M28.804,52.661
			c-13.068,0-23.699-10.628-23.699-23.699c0-13.066,10.631-23.698,23.699-23.698c13.064,0,23.701,10.632,23.701,23.698
			C52.505,42.033,41.868,52.661,28.804,52.661L28.804,52.661z M28.804,52.661"/>
		<path fill="#020151" d="M28.634,20.47c-0.965,0-1.752,0.782-1.752,1.752v19.789c0,0.969,0.787,1.756,1.752,1.756
			c0.969,0,1.752-0.787,1.752-1.756V22.222C30.386,21.252,29.603,20.47,28.634,20.47L28.634,20.47z M28.634,20.47"/>
		<path fill="#020151" d="M30.874,15.613c0,1.173-0.957,2.125-2.131,2.125s-2.129-0.952-2.129-2.125c0-1.18,0.955-2.132,2.129-2.132
			S30.874,14.434,30.874,15.613L30.874,15.613z M30.874,15.613"/>
	</g>
</g>
</svg>
