<?xml version="1.0" encoding="utf-8"?>
<!-- Generator: Adobe Illustrator 16.0.4, SVG Export Plug-In . SVG Version: 6.00 Build 0)  -->
<!DOCTYPE svg PUBLIC "-//W3C//DTD SVG 1.1//EN" "http://www.w3.org/Graphics/SVG/1.1/DTD/svg11.dtd">
<svg version="1.1" id="Layer_1" xmlns="http://www.w3.org/2000/svg" xmlns:xlink="http://www.w3.org/1999/xlink" x="0px" y="0px"
	 width="58px" height="58px" viewBox="0 0 58 58" enable-background="new 0 0 58 58" xml:space="preserve">
<g id="calendar">
	<g>
		<path fill="#FFFFFF" d="M40.492,36.688h3.259c1.799,0,3.257-1.459,3.257-3.258v-3.258c0-1.799-1.458-3.257-3.257-3.257h-3.259
			c-1.799,0-3.257,1.458-3.257,3.257v3.258C37.235,35.229,38.693,36.688,40.492,36.688z M40.492,30.172h3.259v3.258h-3.259V30.172z
			 M40.492,49.717h3.259c1.799,0,3.257-1.459,3.257-3.258v-3.258c0-1.799-1.458-3.257-3.257-3.257h-3.259
			c-1.799,0-3.257,1.458-3.257,3.257v3.258C37.235,48.258,38.693,49.717,40.492,49.717z M40.492,43.201h3.259v3.258h-3.259V43.201z
			 M47.008,7.371h-6.516V5.742c0-0.898-0.729-1.629-1.628-1.629c-0.9,0-1.629,0.73-1.629,1.629v1.629H20.948V5.742
			c0-0.898-0.729-1.629-1.629-1.629s-1.629,0.73-1.629,1.629v1.629h-6.515c-3.598,0-6.515,2.916-6.515,6.514v35.832
			c0,3.598,2.917,6.515,6.515,6.515h35.832c3.598,0,6.516-2.917,6.516-6.515V13.885C53.523,10.287,50.605,7.371,47.008,7.371z
			 M50.266,49.717c0,1.799-1.459,3.258-3.258,3.258H11.176c-1.799,0-3.257-1.459-3.257-3.258V20.4h42.347V49.717z M50.266,17.143
			H7.919v-3.258c0-1.799,1.458-3.257,3.257-3.257h6.515v1.629c0,0.899,0.729,1.628,1.629,1.628s1.629-0.729,1.629-1.628v-1.629
			h16.287v1.629c0,0.899,0.729,1.628,1.629,1.628c0.899,0,1.628-0.729,1.628-1.628v-1.629h6.516c1.799,0,3.258,1.458,3.258,3.257
			V17.143z M14.434,49.717h3.257c1.8,0,3.258-1.459,3.258-3.258v-3.258c0-1.799-1.458-3.257-3.258-3.257h-3.257
			c-1.799,0-3.258,1.458-3.258,3.257v3.258C11.176,48.258,12.635,49.717,14.434,49.717z M14.434,43.201h3.257v3.258h-3.257V43.201z
			 M27.463,36.688h3.258c1.799,0,3.257-1.459,3.257-3.258v-3.258c0-1.799-1.458-3.257-3.257-3.257h-3.258
			c-1.799,0-3.257,1.458-3.257,3.257v3.258C24.206,35.229,25.664,36.688,27.463,36.688z M27.463,30.172h3.258v3.258h-3.258V30.172z
			 M27.463,49.717h3.258c1.799,0,3.257-1.459,3.257-3.258v-3.258c0-1.799-1.458-3.257-3.257-3.257h-3.258
			c-1.799,0-3.257,1.458-3.257,3.257v3.258C24.206,48.258,25.664,49.717,27.463,49.717z M27.463,43.201h3.258v3.258h-3.258V43.201z
			 M14.434,36.688h3.257c1.8,0,3.258-1.459,3.258-3.258v-3.258c0-1.799-1.458-3.257-3.258-3.257h-3.257
			c-1.799,0-3.258,1.458-3.258,3.257v3.258C11.176,35.229,12.635,36.688,14.434,36.688z M14.434,30.172h3.257v3.258h-3.257V30.172z"
			/>
	</g>
</g>
</svg>
