<?xml version="1.0" encoding="utf-8"?>
<!-- Generator: Adobe Illustrator 16.0.4, SVG Export Plug-In . SVG Version: 6.00 Build 0)  -->
<!DOCTYPE svg PUBLIC "-//W3C//DTD SVG 1.1//EN" "http://www.w3.org/Graphics/SVG/1.1/DTD/svg11.dtd">
<svg version="1.1" id="Layer_1" xmlns="http://www.w3.org/2000/svg" xmlns:xlink="http://www.w3.org/1999/xlink" x="0px" y="0px"
	 width="58px" height="58px" viewBox="0 0 58 58" enable-background="new 0 0 58 58" xml:space="preserve">
<g id="New-Contact_1_">
	<g>
		<path fill="#FFFFFF" d="M40.18,29.59c2.078-2.807,3.328-6.402,3.328-10.322c0-8.975-6.547-16.25-14.625-16.25
			c-8.077,0-14.625,7.275-14.625,16.25c0,3.92,1.25,7.516,3.329,10.322c-3.818,1.32-6.579,4.91-6.579,9.177v6.5
			c0,5.385,4.366,9.75,9.75,9.75h16.25c5.385,0,9.75-4.365,9.75-9.75v-6.5C46.758,34.5,43.997,30.91,40.18,29.59z M17.508,19.268
			c0-7.18,5.092-13,11.375-13s11.375,5.82,11.375,13s-5.092,13-11.375,13S17.508,26.448,17.508,19.268z M43.508,44.455
			c0,4.039-3.572,7.312-7.977,7.312H22.236c-4.405,0-7.978-3.273-7.978-7.312V39.58c0-3.455,2.622-6.332,6.135-7.096
			c2.396,1.902,5.321,3.033,8.49,3.033c3.169,0,6.093-1.131,8.49-3.033c3.514,0.764,6.135,3.641,6.135,7.096V44.455z"/>
	</g>
	<g>
		<path fill="none" stroke="#FFFFFF" d="M40.18,29.59c2.078-2.807,3.328-6.402,3.328-10.322c0-8.975-6.547-16.25-14.625-16.25
			c-8.077,0-14.625,7.275-14.625,16.25c0,3.92,1.25,7.516,3.329,10.322c-3.818,1.32-6.579,4.91-6.579,9.177v6.5
			c0,5.385,4.366,9.75,9.75,9.75h16.25c5.385,0,9.75-4.365,9.75-9.75v-6.5C46.758,34.5,43.997,30.91,40.18,29.59z M17.508,19.268
			c0-7.18,5.092-13,11.375-13s11.375,5.82,11.375,13s-5.092,13-11.375,13S17.508,26.448,17.508,19.268z M43.508,44.455
			c0,4.039-3.572,7.312-7.977,7.312H22.236c-4.405,0-7.978-3.273-7.978-7.312V39.58c0-3.455,2.622-6.332,6.135-7.096
			c2.396,1.902,5.321,3.033,8.49,3.033c3.169,0,6.093-1.131,8.49-3.033c3.514,0.764,6.135,3.641,6.135,7.096V44.455z"/>
	</g>
</g>
</svg>
