<?xml version="1.0" encoding="utf-8"?>
<!-- Generator: Adobe Illustrator 16.0.4, SVG Export Plug-In . SVG Version: 6.00 Build 0)  -->
<!DOCTYPE svg PUBLIC "-//W3C//DTD SVG 1.1//EN" "http://www.w3.org/Graphics/SVG/1.1/DTD/svg11.dtd">
<svg version="1.1" id="Layer_1" xmlns="http://www.w3.org/2000/svg" xmlns:xlink="http://www.w3.org/1999/xlink" x="0px" y="0px"
	 width="58px" height="58px" viewBox="0 0 58 58" enable-background="new 0 0 58 58" xml:space="preserve">
<g id="check_x5F_active">
	<g>
		<path fill="#04196a" d="M39.264,18.887c-0.779-0.45-1.776-0.183-2.225,0.598L26.612,37.543l-5.833-5.381
			c-0.616-0.656-1.647-0.689-2.304-0.076c-0.657,0.617-0.691,1.648-0.075,2.307l7.453,6.873c0.615,0.656,1.647,0.689,2.305,0.076
			c0.198-0.188,11.704-20.227,11.704-20.227C40.312,20.334,40.045,19.338,39.264,18.887z M29.44,4.104
			c-14.405,0-26.083,11.68-26.083,26.083c0,14.406,11.678,26.084,26.083,26.084c14.406,0,26.083-11.678,26.083-26.084
			C55.523,15.784,43.846,4.104,29.44,4.104z M29.44,53.01c-12.605,0-22.823-10.217-22.823-22.822
			c0-12.605,10.218-22.824,22.823-22.824c12.604,0,22.824,10.219,22.824,22.824C52.264,42.793,42.044,53.01,29.44,53.01z"/>
	</g>
</g>
</svg>
