<?xml version="1.0" encoding="utf-8"?>
<!-- Generator: Adobe Illustrator 16.0.4, SVG Export Plug-In . SVG Version: 6.00 Build 0)  -->
<!DOCTYPE svg PUBLIC "-//W3C//DTD SVG 1.1//EN" "http://www.w3.org/Graphics/SVG/1.1/DTD/svg11.dtd">
<svg version="1.1" id="Layer_1" xmlns="http://www.w3.org/2000/svg" xmlns:xlink="http://www.w3.org/1999/xlink" x="0px" y="0px"
	 width="58px" height="58px" viewBox="0 0 58 58" enable-background="new 0 0 58 58" xml:space="preserve">
<g id="currentlocation">
	<g>
		<path fill="#FFFFFF" d="M29.222,4.471c-10.77,0-19.5,8.731-19.5,19.5c0,8.153,16.258,32.518,19.5,32.5
			c3.191,0.018,19.5-24.456,19.5-32.5C48.722,13.202,39.993,4.471,29.222,4.471z M29.222,51.596
			c-2.701,0.014-16.25-20.832-16.25-27.625c0-8.975,7.277-16.25,16.25-16.25c8.975,0,16.25,7.275,16.25,16.25
			C45.472,30.674,31.882,51.609,29.222,51.596z M29.222,10.707c-7.324,0-13.264,5.937-13.264,13.264
			c0,7.326,5.939,13.264,13.264,13.264c7.323,0,13.264-5.938,13.264-13.264C42.485,16.644,36.545,10.707,29.222,10.707z
			 M30.413,34.265v-4.021c0-0.691-0.561-1.25-1.25-1.25c-0.691,0-1.25,0.559-1.25,1.25v4.002c-4.794-0.604-8.564-4.47-9.011-9.311
			h3.702c0.69,0,1.25-0.56,1.25-1.25s-0.56-1.25-1.25-1.25h-3.625c0.68-4.571,4.331-8.161,8.934-8.742v3.433
			c0,0.691,0.559,1.25,1.25,1.25c0.689,0,1.25-0.559,1.25-1.25v-3.451c4.657,0.533,8.364,4.149,9.05,8.759h-3.742
			c-0.69,0-1.25,0.56-1.25,1.25s0.56,1.25,1.25,1.25h3.819C39.09,29.816,35.262,33.709,30.413,34.265z"/>
	</g>
</g>
</svg>
