<?xml version="1.0" encoding="utf-8"?>
<!-- Generator: Adobe Illustrator 16.0.4, SVG Export Plug-In . SVG Version: 6.00 Build 0)  -->
<!DOCTYPE svg PUBLIC "-//W3C//DTD SVG 1.1//EN" "http://www.w3.org/Graphics/SVG/1.1/DTD/svg11.dtd">
<svg version="1.1" id="Layer_1" xmlns="http://www.w3.org/2000/svg" xmlns:xlink="http://www.w3.org/1999/xlink" x="0px" y="0px"
	 width="58px" height="58px" viewBox="0 0 58 58" enable-background="new 0 0 58 58" xml:space="preserve">
<g id="dashboard">
	<g>
		<path fill="#020151" d="M34.512,11.693c-0.612-0.239-1.297,0.062-1.535,0.674l-2.164,5.655c-1.458-0.04-2.853,0.811-3.412,2.249
			c-0.71,1.828,0.192,3.886,2.021,4.598c1.828,0.707,3.885-0.198,4.596-2.023c0.559-1.438,0.105-3.012-0.998-3.967l2.164-5.654
			C35.422,12.615,35.121,11.929,34.512,11.693z M43.35,24.536l1.869-2.111l-2.113-1.871l-1.871,2.113L43.35,24.536z M30.461,10.619
			l-2.821-0.006l-0.005,2.824l2.823,0.004L30.461,10.619z M12.902,22.667l2.113,1.869l1.871-2.113l-2.114-1.869L12.902,22.667z
			 M44.063,40.252H14.032c-0.69,0-1.25,0.56-1.25,1.25s0.56,1.25,1.25,1.25h30.031c0.69,0,1.25-0.56,1.25-1.25
			S44.754,40.252,44.063,40.252z M44.063,34.303H14.032c-0.69,0-1.25,0.56-1.25,1.25s0.56,1.25,1.25,1.25h30.031
			c0.69,0,1.25-0.56,1.25-1.25S44.754,34.303,44.063,34.303z M34.188,46.512H14.156c-0.69,0-1.25,0.561-1.25,1.25
			c0,0.69,0.56,1.25,1.25,1.25h20.031c0.69,0,1.25-0.56,1.25-1.25C35.438,47.072,34.878,46.512,34.188,46.512z M51.42,27.036v-0.003
			c0-11.885-8.898-21.787-22.372-22.372C15.281,5.422,6.676,15.148,6.676,27.033c0,1.137,0,0.627,0,1.397
			c0,0.053,0.01,0.104,0.016,0.155v22.109c0,3.083,2.5,5.584,5.584,5.584h33.506c3.084,0,5.584-2.501,5.584-5.584V32.621
			C51.463,28.944,51.42,27.036,51.42,27.036z M48.573,50.695c0,1.542-1.251,2.791-2.792,2.791H12.275
			c-1.542,0-2.792-1.249-2.792-2.791V32.621c0-1.543,1.25-2.793,2.792-2.793h33.506c1.541,0,2.792,1.25,2.792,2.793V50.695z
			 M9.472,27.033c0-10.812,8.764-19.576,19.576-19.576c10.812,0,19.576,8.764,19.576,19.576H9.472z"/>
	</g>
</g>
</svg>
