<?xml version="1.0" encoding="utf-8"?>
<!-- Generator: Adobe Illustrator 16.0.4, SVG Export Plug-In . SVG Version: 6.00 Build 0)  -->
<!DOCTYPE svg PUBLIC "-//W3C//DTD SVG 1.1//EN" "http://www.w3.org/Graphics/SVG/1.1/DTD/svg11.dtd">
<svg version="1.1" id="Layer_1" xmlns="http://www.w3.org/2000/svg" xmlns:xlink="http://www.w3.org/1999/xlink" x="0px" y="0px"
	 width="58px" height="58px" viewBox="0 0 58 58" enable-background="new 0 0 58 58" xml:space="preserve">
<g id="drag">
	<g>
		<path fill="#FFFFFF" d="M9.592,39.592c-3.564,0-6.454,2.89-6.454,6.453c0,3.564,2.89,6.454,6.454,6.454s6.453-2.89,6.453-6.454
			C16.045,42.481,13.156,39.592,9.592,39.592z M9.592,49.271c-1.782,0-3.227-1.444-3.227-3.227c0-1.781,1.445-3.227,3.227-3.227
			c1.782,0,3.227,1.445,3.227,3.227C12.818,47.827,11.374,49.271,9.592,49.271z M9.592,23.458c-3.564,0-6.454,2.89-6.454,6.453
			c0,3.564,2.89,6.454,6.454,6.454s6.453-2.89,6.453-6.454C16.045,26.348,13.156,23.458,9.592,23.458z M9.592,33.138
			c-1.782,0-3.227-1.444-3.227-3.227c0-1.781,1.445-3.227,3.227-3.227c1.782,0,3.227,1.445,3.227,3.227
			C12.818,31.693,11.374,33.138,9.592,33.138z M48.312,20.231c3.564,0,6.453-2.89,6.453-6.454c0-3.563-2.889-6.453-6.453-6.453
			s-6.453,2.89-6.453,6.453C41.859,17.342,44.748,20.231,48.312,20.231z M48.312,10.551c1.782,0,3.227,1.445,3.227,3.227
			c0,1.782-1.444,3.228-3.227,3.228c-1.781,0-3.227-1.445-3.227-3.228C45.086,11.996,46.531,10.551,48.312,10.551z M28.952,7.324
			c-3.564,0-6.454,2.89-6.454,6.453c0,3.564,2.89,6.454,6.454,6.454c3.563,0,6.454-2.89,6.454-6.454
			C35.406,10.214,32.516,7.324,28.952,7.324z M28.952,17.005c-1.782,0-3.227-1.445-3.227-3.228c0-1.781,1.445-3.227,3.227-3.227
			c1.782,0,3.227,1.445,3.227,3.227C32.179,15.56,30.734,17.005,28.952,17.005z M48.312,39.592c-3.564,0-6.453,2.89-6.453,6.453
			c0,3.564,2.889,6.454,6.453,6.454s6.453-2.89,6.453-6.454C54.766,42.481,51.877,39.592,48.312,39.592z M48.312,49.271
			c-1.781,0-3.227-1.444-3.227-3.227c0-1.781,1.445-3.227,3.227-3.227c1.782,0,3.227,1.445,3.227,3.227
			C51.539,47.827,50.095,49.271,48.312,49.271z M48.312,23.458c-3.564,0-6.453,2.89-6.453,6.453c0,3.564,2.889,6.454,6.453,6.454
			s6.453-2.89,6.453-6.454C54.766,26.348,51.877,23.458,48.312,23.458z M48.312,33.138c-1.781,0-3.227-1.444-3.227-3.227
			c0-1.781,1.445-3.227,3.227-3.227c1.782,0,3.227,1.445,3.227,3.227C51.539,31.693,50.095,33.138,48.312,33.138z M28.952,39.592
			c-3.564,0-6.454,2.89-6.454,6.453c0,3.564,2.89,6.454,6.454,6.454c3.563,0,6.454-2.89,6.454-6.454
			C35.406,42.481,32.516,39.592,28.952,39.592z M28.952,49.271c-1.782,0-3.227-1.444-3.227-3.227c0-1.781,1.445-3.227,3.227-3.227
			c1.782,0,3.227,1.445,3.227,3.227C32.179,47.827,30.734,49.271,28.952,49.271z M28.952,23.458c-3.564,0-6.454,2.89-6.454,6.453
			c0,3.564,2.89,6.454,6.454,6.454c3.563,0,6.454-2.89,6.454-6.454C35.406,26.348,32.516,23.458,28.952,23.458z M28.952,33.138
			c-1.782,0-3.227-1.444-3.227-3.227c0-1.781,1.445-3.227,3.227-3.227c1.782,0,3.227,1.445,3.227,3.227
			C32.179,31.693,30.734,33.138,28.952,33.138z M9.592,7.324c-3.564,0-6.454,2.89-6.454,6.453c0,3.564,2.89,6.454,6.454,6.454
			s6.453-2.89,6.453-6.454C16.045,10.214,13.156,7.324,9.592,7.324z M9.592,17.005c-1.782,0-3.227-1.445-3.227-3.228
			c0-1.781,1.445-3.227,3.227-3.227c1.782,0,3.227,1.445,3.227,3.227C12.818,15.56,11.374,17.005,9.592,17.005z"/>
	</g>
</g>
</svg>
