<?xml version="1.0" encoding="utf-8"?>
<!-- Generator: Adobe Illustrator 16.0.4, SVG Export Plug-In . SVG Version: 6.00 Build 0)  -->
<!DOCTYPE svg PUBLIC "-//W3C//DTD SVG 1.1//EN" "http://www.w3.org/Graphics/SVG/1.1/DTD/svg11.dtd">
<svg version="1.1" id="Layer_1" xmlns="http://www.w3.org/2000/svg" xmlns:xlink="http://www.w3.org/1999/xlink" x="0px" y="0px"
	 width="58px" height="58px" viewBox="0 0 58 58" enable-background="new 0 0 58 58" xml:space="preserve">
<path id="XMLID_4290_" fill="#ffb600" d="M29.011,2.876l6.774,19.358c0.09,0.256,0.328,0.43,0.602,0.436l18.715,0.441
	c0.615,0.015,0.869,0.796,0.381,1.171l-14.986,11.46c-0.215,0.164-0.309,0.443-0.23,0.703l5.278,17.82
	c0.177,0.59-0.491,1.071-0.997,0.721L29.381,44.434c-0.224-0.154-0.519-0.156-0.742-0.002L13.217,55.007
	c-0.506,0.349-1.17-0.133-0.994-0.723l5.287-17.841c0.075-0.26-0.014-0.537-0.225-0.703L2.515,24.279
	c-0.484-0.377-0.23-1.153,0.384-1.167l18.494-0.441c0.27-0.006,0.507-0.177,0.597-0.429L29.011,2.876L29.011,2.876z"/>
</svg>
