<?xml version="1.0" encoding="utf-8"?>
<!-- Generator: Adobe Illustrator 16.0.4, SVG Export Plug-In . SVG Version: 6.00 Build 0)  -->
<!DOCTYPE svg PUBLIC "-//W3C//DTD SVG 1.1//EN" "http://www.w3.org/Graphics/SVG/1.1/DTD/svg11.dtd">
<svg version="1.1" id="Layer_1" xmlns="http://www.w3.org/2000/svg" xmlns:xlink="http://www.w3.org/1999/xlink" x="0px" y="0px"
	 width="58px" height="58px" viewBox="0 0 58 58" enable-background="new 0 0 58 58" xml:space="preserve">
<g id="leftarrrow-with-O">
	<g>
		<path fill="#FFFFFF" d="M37.82,10.514c-0.623-0.625-1.638-0.625-2.262,0L16.511,27.91c-0.333,0.332-0.476,0.773-0.452,1.208
			c-0.023,0.434,0.12,0.876,0.452,1.209l19.047,17.396c0.624,0.624,1.639,0.624,2.262,0c0.627-0.623,0.627-1.635,0-2.258
			L19.923,29.119L37.82,12.77C38.447,12.146,38.447,11.135,37.82,10.514z M29,2.021C14.124,2.021,2.021,14.124,2.021,29
			c0,14.877,12.103,26.979,26.979,26.979c14.877,0,26.979-12.103,26.979-26.979C55.979,14.124,43.877,2.021,29,2.021z M29,53.979
			C15.226,53.979,4.021,42.773,4.021,29C4.021,15.226,15.226,4.021,29,4.021c13.773,0,24.979,11.206,24.979,24.979
			C53.979,42.773,42.773,53.979,29,53.979z"/>
	</g>
</g>
</svg>
