<?xml version="1.0" encoding="utf-8"?>
<!-- Generator: Adobe Illustrator 16.0.4, SVG Export Plug-In . SVG Version: 6.00 Build 0)  -->
<!DOCTYPE svg PUBLIC "-//W3C//DTD SVG 1.1//EN" "http://www.w3.org/Graphics/SVG/1.1/DTD/svg11.dtd">
<svg version="1.1" id="Layer_1" xmlns="http://www.w3.org/2000/svg" xmlns:xlink="http://www.w3.org/1999/xlink" x="0px" y="0px"
	 width="58px" height="58px" viewBox="0 0 58 58" enable-background="new 0 0 58 58" xml:space="preserve">
<g id="XMLID_4686_">
	<g id="XMLID_4687_">
		<path id="XMLID_4689_" fill="#FFFFFF" d="M41.426,5.049c0.414,0,0.826,0.179,1.109,0.523c0.501,0.611,0.413,1.515-0.197,2.017
			L18.237,27.391c-0.308,0.318-0.533,0.864-0.533,1.446s0.225,1.128,0.637,1.54l24.285,19.995c0.611,0.502,0.698,1.406,0.195,2.017
			c-0.502,0.609-1.404,0.699-2.019,0.194L16.417,32.494c-2.069-2.059-2.069-5.259-0.103-7.224L40.519,5.375
			C40.784,5.155,41.106,5.049,41.426,5.049z"/>
		<path id="XMLID_4688_" fill="#FFFFFF" d="M41.709,55.154c-0.849,0-1.665-0.291-2.329-0.837L14.988,34.226
			c-0.054-0.045-0.105-0.093-0.156-0.141c-1.432-1.428-2.221-3.304-2.224-5.281c-0.001-1.933,0.751-3.751,2.12-5.12
			c0.051-0.053,0.104-0.101,0.162-0.147L39.094,3.642c1.493-1.236,3.93-1.006,5.175,0.504c1.286,1.566,1.059,3.889-0.505,5.176
			L20.006,28.839l24.045,19.8c0.759,0.623,1.229,1.505,1.324,2.484c0.095,0.979-0.199,1.935-0.827,2.693
			c-0.617,0.752-1.499,1.224-2.477,1.317C41.95,55.147,41.829,55.154,41.709,55.154z"/>
	</g>
</g>
</svg>
