<?xml version="1.0" encoding="utf-8"?>
<!-- Generator: Adobe Illustrator 16.0.4, SVG Export Plug-In . SVG Version: 6.00 Build 0)  -->
<!DOCTYPE svg PUBLIC "-//W3C//DTD SVG 1.1//EN" "http://www.w3.org/Graphics/SVG/1.1/DTD/svg11.dtd">
<svg version="1.1" id="Layer_1" xmlns="http://www.w3.org/2000/svg" xmlns:xlink="http://www.w3.org/1999/xlink" x="0px" y="0px"
	 width="58px" height="58px" viewBox="0 0 58 58" enable-background="new 0 0 58 58" xml:space="preserve">
<g id="likes-name_1_">
	<path fill-rule="evenodd" clip-rule="evenodd" fill="#FFFFFF" d="M34.505,52.094c-2.945,0.015-17.717-22.12-17.717-29.528
		c0-9.784,7.931-17.717,17.717-17.717c9.784,0,17.716,7.934,17.716,17.717C52.221,29.874,37.404,52.108,34.505,52.094z
		 M34.505,7.801c-8.153,0-14.766,6.609-14.766,14.764c0,6.171,12.31,25.109,14.766,25.098c2.415,0.012,14.763-19.008,14.763-25.098
		C49.268,14.411,42.658,7.801,34.505,7.801z M34.505,29.947c-4.077,0-7.382-3.304-7.382-7.381c0-4.078,3.305-7.382,7.382-7.382
		c4.075,0,7.381,3.304,7.381,7.382C41.886,26.643,38.58,29.947,34.505,29.947z M34.505,18.136c-2.447,0-4.43,1.981-4.43,4.429
		c0,2.447,1.982,4.429,4.43,4.429c2.446,0,4.429-1.982,4.429-4.429C38.934,20.118,36.951,18.136,34.505,18.136z"/>
	<path fill-rule="evenodd" clip-rule="evenodd" fill="#FFFFFF" d="M11.567,54.704C9.976,54.712,2,42.76,2,38.76
		c0-5.281,4.283-9.566,9.567-9.566c5.283,0,9.566,4.285,9.566,9.566C21.133,42.707,13.132,54.712,11.567,54.704z M11.567,30.788
		c-4.403,0-7.974,3.57-7.974,7.972c0,3.333,6.647,13.559,7.974,13.552c1.303,0.007,7.971-10.264,7.971-13.552
		C19.538,34.358,15.968,30.788,11.567,30.788z M11.567,42.746c-2.202,0-3.985-1.784-3.985-3.986s1.784-3.984,3.985-3.984
		c2.201,0,3.984,1.782,3.984,3.984S13.768,42.746,11.567,42.746z M11.567,36.369c-1.323,0-2.393,1.069-2.393,2.391
		s1.07,2.392,2.393,2.392c1.321,0,2.392-1.07,2.392-2.392S12.888,36.369,11.567,36.369z"/>
	<path fill-rule="evenodd" clip-rule="evenodd" fill="#FFFFFF" d="M50.397,51.069c-0.87,0.006-5.234-6.532-5.234-8.722
		c0-2.889,2.344-5.233,5.234-5.233s5.232,2.345,5.232,5.233C55.63,44.508,51.254,51.075,50.397,51.069z M50.397,37.986
		c-2.409,0-4.362,1.953-4.362,4.361c0,1.824,3.637,7.418,4.362,7.412c0.713,0.006,4.361-5.613,4.361-7.412
		C54.759,39.939,52.806,37.986,50.397,37.986z M50.397,44.528c-1.204,0-2.18-0.976-2.18-2.181c0-1.203,0.976-2.179,2.18-2.179
		s2.18,0.976,2.18,2.179C52.577,43.553,51.602,44.528,50.397,44.528z M50.397,41.041c-0.723,0-1.309,0.584-1.309,1.307
		s0.586,1.309,1.309,1.309s1.308-0.586,1.308-1.309S51.12,41.041,50.397,41.041z"/>
</g>
</svg>
