<?xml version="1.0" encoding="utf-8"?>
<!-- Generator: Adobe Illustrator 16.0.4, SVG Export Plug-In . SVG Version: 6.00 Build 0)  -->
<!DOCTYPE svg PUBLIC "-//W3C//DTD SVG 1.1//EN" "http://www.w3.org/Graphics/SVG/1.1/DTD/svg11.dtd">
<svg version="1.1" id="Layer_1" xmlns="http://www.w3.org/2000/svg" xmlns:xlink="http://www.w3.org/1999/xlink" x="0px" y="0px"
	 width="58px" height="58px" viewBox="0 0 58 58" enable-background="new 0 0 58 58" xml:space="preserve">
<g id="list">
	<g>
		<path fill="#FFFFFF" d="M44.867,32.391H13.665c-0.664,0-1.201,0.537-1.201,1.199c0,0.664,0.537,1.199,1.201,1.199h31.203
			c0.664,0,1.2-0.535,1.2-1.199C46.067,32.928,45.531,32.391,44.867,32.391z M31.666,41.992H13.665
			c-0.664,0-1.201,0.535-1.201,1.199c0,0.662,0.537,1.199,1.201,1.199h18.001c0.664,0,1.2-0.537,1.2-1.199
			C32.866,42.527,32.33,41.992,31.666,41.992z M13.665,25.189h21.601c0.664,0,1.201-0.536,1.201-1.199c0-0.662-0.537-1.2-1.201-1.2
			H13.665c-0.664,0-1.201,0.538-1.201,1.2C12.464,24.653,13,25.189,13.665,25.189z M44.867,13.188H13.665
			c-0.664,0-1.201,0.538-1.201,1.2c0,0.663,0.537,1.2,1.201,1.2h31.203c0.664,0,1.2-0.537,1.2-1.2
			C46.067,13.727,45.531,13.188,44.867,13.188z M29,1.372c-14.876,0-26.979,12.103-26.979,26.979
			C2.021,43.229,14.124,55.33,29,55.33c14.877,0,26.979-12.102,26.979-26.979C55.979,13.475,43.877,1.372,29,1.372z M29,53.33
			c-13.774,0-24.979-11.205-24.979-24.979S15.226,3.372,29,3.372c13.773,0,24.979,11.206,24.979,24.979S42.773,53.33,29,53.33z"/>
	</g>
</g>
</svg>
