<?xml version="1.0" encoding="utf-8"?>
<!-- Generator: Adobe Illustrator 16.0.4, SVG Export Plug-In . SVG Version: 6.00 Build 0)  -->
<!DOCTYPE svg PUBLIC "-//W3C//DTD SVG 1.1//EN" "http://www.w3.org/Graphics/SVG/1.1/DTD/svg11.dtd">
<svg version="1.1" id="Layer_1" xmlns="http://www.w3.org/2000/svg" xmlns:xlink="http://www.w3.org/1999/xlink" x="0px" y="0px"
	 width="58px" height="58px" viewBox="0 0 58 58" enable-background="new 0 0 58 58" xml:space="preserve">
<g id="map">
	<g>
		<path fill="#FFFFFF" d="M29,17.141c-3.638,0-6.588,2.949-6.588,6.588s2.95,6.588,6.588,6.588c3.638,0,6.589-2.948,6.589-6.588
			S32.638,17.141,29,17.141z M29,27.683c-2.184,0-3.953-1.769-3.953-3.953s1.769-3.953,3.953-3.953c2.184,0,3.953,1.769,3.953,3.953
			S31.184,27.683,29,27.683z M29,7.917c-8.734,0-15.812,7.081-15.812,15.812c0,6.612,13.184,26.368,15.812,26.354
			c2.588,0.015,15.812-19.83,15.812-26.354C44.812,14.998,37.733,7.917,29,7.917z M29,46.13c-2.191,0.012-13.177-16.892-13.177-22.4
			c0-7.277,5.9-13.177,13.177-13.177c7.276,0,13.177,5.899,13.177,13.177C42.177,29.165,31.156,46.142,29,46.13z M29,2.021
			C14.124,2.021,2.021,14.124,2.021,29c0,14.877,12.103,26.979,26.979,26.979c14.877,0,26.979-12.103,26.979-26.979
			C55.979,14.124,43.877,2.021,29,2.021z M29,53.979C15.226,53.979,4.021,42.773,4.021,29C4.021,15.226,15.226,4.021,29,4.021
			c13.773,0,24.979,11.206,24.979,24.979C53.979,42.773,42.773,53.979,29,53.979z"/>
	</g>
</g>
</svg>
