<?xml version="1.0" encoding="utf-8"?>
<!-- Generator: Adobe Illustrator 16.0.4, SVG Export Plug-In . SVG Version: 6.00 Build 0)  -->
<!DOCTYPE svg PUBLIC "-//W3C//DTD SVG 1.1//EN" "http://www.w3.org/Graphics/SVG/1.1/DTD/svg11.dtd">
<svg version="1.1" id="Layer_1" xmlns="http://www.w3.org/2000/svg" xmlns:xlink="http://www.w3.org/1999/xlink" x="0px" y="0px"
	 width="58px" height="58px" viewBox="0 0 58 58" enable-background="new 0 0 58 58" xml:space="preserve">
<g id="map_x5F_view">
	<g id="mapview">
		<g>
			<path fill="#000c65" d="M19.328,25.735c-0.794,0-1.44,0.646-1.44,1.44v14.401c0,0.797,0.646,1.439,1.44,1.439
				c0.794,0,1.44-0.643,1.44-1.439V27.175C20.768,26.381,20.123,25.735,19.328,25.735z M30.849,30.057
				c-0.794,0-1.439,0.645-1.439,1.439v8.64c0,0.797,0.646,1.44,1.439,1.44c0.795,0,1.44-0.644,1.44-1.44v-8.64
				C32.289,30.701,31.644,30.057,30.849,30.057z M40.93,11.334l-11.521,8.642l-11.521-4.321L6.367,22.856v34.562l11.521-7.201
				l11.521,4.32l11.521-8.641l11.521,8.641V19.976L40.93,11.334z M49.57,49.497l-8.641-6.481l-11.521,8.642l-11.521-4.32
				l-8.64,5.399V23.935l8.64-5.4l11.521,4.321l11.521-8.641l8.641,6.48V49.497z M40.93,35.815c0,0.797,0.645,1.439,1.44,1.439
				c0.795,0,1.44-0.643,1.44-1.439v-11.52c0-0.795-0.646-1.44-1.44-1.44c-0.796,0-1.44,0.645-1.44,1.44V35.815z"/>
		</g>
	</g>
	<g>
		<path fill-rule="evenodd" clip-rule="evenodd" fill="#000c65" d="M18.679,14.833c0,0-0.36-13.244,10.652-13.316
			c11.012-0.072,12.452,11.876,12.452,11.876s-7.932,18.716-11.012,19.29C30.771,32.684,22.566,28.293,18.679,14.833z"/>
		<path fill-rule="evenodd" clip-rule="evenodd" fill="#FFFFFF" d="M30.052,34.363c-2.106,0.011-12.668-15.816-12.668-21.113
			c0-6.995,5.671-12.668,12.668-12.668c6.996,0,12.667,5.673,12.667,12.668C42.719,18.476,32.124,34.374,30.052,34.363z
			 M30.052,2.693c-5.83,0-10.558,4.727-10.558,10.557c0,4.413,8.802,17.954,10.558,17.945c1.727,0.009,10.556-13.591,10.556-17.945
			C40.607,7.42,35.881,2.693,30.052,2.693z M30.052,18.528c-2.916,0-5.278-2.362-5.278-5.278s2.363-5.278,5.278-5.278
			c2.914,0,5.277,2.362,5.277,5.278S32.966,18.528,30.052,18.528z M30.052,10.083c-1.75,0-3.168,1.417-3.168,3.167
			c0,1.75,1.417,3.167,3.168,3.167c1.749,0,3.167-1.417,3.167-3.167C33.219,11.5,31.801,10.083,30.052,10.083z"/>
	</g>
</g>
</svg>
