<?xml version="1.0" encoding="utf-8"?>
<!-- Generator: Adobe Illustrator 16.0.4, SVG Export Plug-In . SVG Version: 6.00 Build 0)  -->
<!DOCTYPE svg PUBLIC "-//W3C//DTD SVG 1.1//EN" "http://www.w3.org/Graphics/SVG/1.1/DTD/svg11.dtd">
<svg version="1.1" id="Layer_1" xmlns="http://www.w3.org/2000/svg" xmlns:xlink="http://www.w3.org/1999/xlink" x="0px" y="0px"
	 width="58px" height="58px" viewBox="0 0 58 58" enable-background="new 0 0 58 58" xml:space="preserve">
<g id="map_x5F_view_x5F_with-o">
	<g>
		<path fill="#FFFFFF" d="M31.28,37.597c0,0.536-0.433,0.969-0.969,0.969c-0.534,0-0.967-0.433-0.967-0.969v-5.624
			c-1.4-1.051-4.122-3.56-6.121-8.29l-1.626-0.61l-5.809,3.631v19.364l5.809-3.632l7.747,2.906l7.745-5.81l5.81,4.356V24.526
			l-5.555-4.167c-0.989,2.262-4.056,9.089-6.063,11.432V37.597z M23.534,38.565c0,0.536-0.434,0.968-0.968,0.968
			s-0.968-0.432-0.968-0.968v-9.683c0-0.534,0.434-0.968,0.968-0.968s0.968,0.434,0.968,0.968V38.565z M37.089,26.946
			c0-0.534,0.434-0.968,0.969-0.968s0.969,0.434,0.969,0.968v7.745c0,0.536-0.434,0.968-0.969,0.968s-0.969-0.432-0.969-0.968
			V26.946z"/>
		<path fill="#FFFFFF" d="M22.566,27.915c-0.534,0-0.968,0.434-0.968,0.968v9.683c0,0.536,0.434,0.968,0.968,0.968
			s0.968-0.432,0.968-0.968v-9.683C23.534,28.349,23.1,27.915,22.566,27.915z"/>
		<path fill="#FFFFFF" d="M38.058,35.659c0.535,0,0.969-0.432,0.969-0.968v-7.745c0-0.534-0.434-0.968-0.969-0.968
			s-0.969,0.434-0.969,0.968v7.745C37.089,35.228,37.522,35.659,38.058,35.659z"/>
		<path fill="#FFFFFF" d="M37.429,18.486c0.18,0.681,0.233,1.131,0.233,1.131s-0.115,0.277-0.318,0.742l5.555,4.167V43.89
			l-5.81-4.356l-7.745,5.81l-7.747-2.906l-5.809,3.632V26.704l5.809-3.631l1.626,0.61c-0.294-0.693-0.564-1.451-0.82-2.244
			l-0.806-0.302l-7.746,4.842v23.238l7.746-4.843l7.747,2.905l7.745-5.809l7.746,5.809V24.042L37.429,18.486z"/>
		<path fill="#FFFFFF" d="M30.312,38.565c0.536,0,0.969-0.433,0.969-0.969v-5.806c-0.388,0.45-0.735,0.743-1.021,0.795
			c0,0-0.351-0.189-0.916-0.613v5.624C29.344,38.133,29.778,38.565,30.312,38.565z"/>
	</g>
	<g>
		<path fill-rule="evenodd" clip-rule="evenodd" fill="#FFFFFF" d="M29.775,33.715c-1.416,0.009-8.518-10.633-8.518-14.194
			c0-4.704,3.813-8.518,8.518-8.518c4.705,0,8.518,3.814,8.518,8.518C38.293,23.033,31.169,33.724,29.775,33.715z M29.775,12.423
			c-3.919,0-7.098,3.177-7.098,7.098c0,2.966,5.918,12.07,7.098,12.064c1.161,0.006,7.098-9.137,7.098-12.064
			C36.873,15.6,33.695,12.423,29.775,12.423z M29.775,23.068c-1.959,0-3.548-1.588-3.548-3.548c0-1.961,1.589-3.549,3.548-3.549
			c1.96,0,3.549,1.588,3.549,3.549C33.324,21.48,31.735,23.068,29.775,23.068z M29.775,17.391c-1.177,0-2.13,0.952-2.13,2.129
			c0,1.176,0.953,2.129,2.13,2.129s2.13-0.953,2.13-2.129C31.905,18.343,30.952,17.391,29.775,17.391z"/>
	</g>
	<g>
		<path fill="#FFFFFF" d="M29,56.979C14.124,56.979,2.021,44.877,2.021,30C2.021,15.124,14.124,3.021,29,3.021
			c14.877,0,26.979,12.103,26.979,26.979C55.979,44.877,43.877,56.979,29,56.979z M29,5.021C15.226,5.021,4.021,16.226,4.021,30
			c0,13.773,11.206,24.979,24.979,24.979c13.773,0,24.979-11.206,24.979-24.979C53.979,16.226,42.773,5.021,29,5.021z"/>
	</g>
</g>
</svg>
