<?xml version="1.0" encoding="utf-8"?>
<!-- Generator: Adobe Illustrator 16.0.4, SVG Export Plug-In . SVG Version: 6.00 Build 0)  -->
<!DOCTYPE svg PUBLIC "-//W3C//DTD SVG 1.1//EN" "http://www.w3.org/Graphics/SVG/1.1/DTD/svg11.dtd">
<svg version="1.1" id="Layer_1" xmlns="http://www.w3.org/2000/svg" xmlns:xlink="http://www.w3.org/1999/xlink" x="0px" y="0px"
	 width="58px" height="58px" viewBox="0 0 58 58" enable-background="new 0 0 58 58" xml:space="preserve">
<g id="notification">
	<g>
		<path fill="#FFFFFF" d="M46.112,35.444V21.613c0-9.548-7.741-17.289-17.289-17.289s-17.289,7.741-17.289,17.289v13.831
			L4.619,49.275h15.734c0.802,3.946,4.289,6.916,8.471,6.916c4.183,0,7.669-2.97,8.471-6.916h15.733L46.112,35.444z M28.823,52.733
			c-2.256,0-4.155-1.447-4.869-3.458h9.738C32.979,51.286,31.078,52.733,28.823,52.733z M9.805,45.818l5.187-10.374V21.613
			c0-7.638,6.193-13.831,13.831-13.831c7.638,0,13.831,6.193,13.831,13.831v13.831l5.187,10.374H9.805z"/>
	</g>
</g>
</svg>
