<?xml version="1.0" encoding="utf-8"?>
<!-- Generator: Adobe Illustrator 16.0.4, SVG Export Plug-In . SVG Version: 6.00 Build 0)  -->
<!DOCTYPE svg PUBLIC "-//W3C//DTD SVG 1.1//EN" "http://www.w3.org/Graphics/SVG/1.1/DTD/svg11.dtd">
<svg version="1.1" id="Layer_1" xmlns="http://www.w3.org/2000/svg" xmlns:xlink="http://www.w3.org/1999/xlink" x="0px" y="0px"
	 width="27.718px" height="38.371px" viewBox="0 0 27.718 38.371" enable-background="new 0 0 27.718 38.371" xml:space="preserve">
<circle fill="#FFFFFF" cx="13.859" cy="13.859" r="11.359"/>
<g display="none">
	<path display="inline" fill="#333333" d="M27.718,13.859C27.718,6.217,21.501,0,13.859,0C6.217,0,0,6.217,0,13.859
		c0,4.944,1.61,9.279,5.517,11.733l8.379,12.779l8.416-12.847C26.158,23.059,27.718,18.757,27.718,13.859z M13.859,23.718
		C10.047,23.718,5,17.744,5,12.859C5,7.974,8.974,5,13.859,5s8.859,2.974,8.859,7.859C22.718,17.744,17.214,23.718,13.859,23.718z"
		/>
</g>
<g>
	<path fill="#333333" d="M27.718,13.859C27.718,6.217,21.501,0,13.859,0C6.217,0,0,6.217,0,13.859c0,4.944,1.61,9.279,5.517,11.733
		l8.379,12.779l8.416-12.847C26.158,23.059,27.718,18.757,27.718,13.859z M13.859,23.718C10.047,23.718,5,17.744,5,12.859
		C5,7.974,8.974,5,13.859,5s8.859,2.974,8.859,7.859C22.718,17.744,17.214,23.718,13.859,23.718z"/>
	<path fill="#333333" d="M12.705,6.898h2.723l4.074,11.516h-2.609l-0.76-2.367h-4.241l-0.78,2.367H8.593L12.705,6.898z
		 M12.546,14.062h2.949l-1.455-4.531L12.546,14.062z"/>
</g>
<g display="none">
	<path display="inline" fill="none" d="M20.124,7.101C18.519,5.745,16.303,5,13.859,5C8.974,5,5,7.974,5,12.859
		c0,2.253,1.08,4.731,2.61,6.754L20.124,7.101z"/>
	<path display="inline" fill="none" d="M8.926,21.126c1.559,1.554,3.351,2.592,4.933,2.592c3.355,0,8.859-5.974,8.859-10.859
		c0-1.657-0.466-3.088-1.261-4.264L8.926,21.126z"/>
	<path display="inline" fill="#333333" d="M13.859,0C6.217,0,0,6.217,0,13.859c0,4.944,1.61,9.279,5.517,11.733l8.379,12.779
		l8.416-12.847c3.846-2.466,5.406-6.768,5.406-11.665C27.718,6.217,21.501,0,13.859,0z M5,12.859C5,7.974,8.974,5,13.859,5
		c2.444,0,4.66,0.745,6.265,2.101L7.61,19.614C6.08,17.59,5,15.112,5,12.859z M13.859,23.718c-1.582,0-3.374-1.038-4.933-2.592
		L21.458,8.596c0.795,1.176,1.261,2.606,1.261,4.264C22.718,17.744,17.214,23.718,13.859,23.718z"/>
</g>
</svg>
