<?xml version="1.0" encoding="utf-8"?>
<!-- Generator: Adobe Illustrator 16.0.4, SVG Export Plug-In . SVG Version: 6.00 Build 0)  -->
<!DOCTYPE svg PUBLIC "-//W3C//DTD SVG 1.1//EN" "http://www.w3.org/Graphics/SVG/1.1/DTD/svg11.dtd">
<svg version="1.1" id="Layer_1" xmlns="http://www.w3.org/2000/svg" xmlns:xlink="http://www.w3.org/1999/xlink" x="0px" y="0px"
	 width="58px" height="58px" viewBox="0 0 58 58" enable-background="new 0 0 58 58" xml:space="preserve">
<g id="XMLID_4293_">
	<path fill="#000066" d="M45.713,21.425h-1.422v-3.748c0-7.652-5.414-14.5-12.984-15.612c-9.45-1.39-17.597,5.93-17.597,15.121
		v4.239h-1.42c-2.318,0-4.197,1.877-4.197,4.197v26.287c0,2.315,1.879,4.196,4.197,4.196h33.423c2.316,0,4.193-1.881,4.193-4.196
		V25.622C49.906,23.302,48.029,21.425,45.713,21.425z M19.057,17.186c0-6.211,5.723-11.109,12.171-9.7
		c4.59,1.004,7.713,5.305,7.713,10.006v3.934H19.057V17.186z M30.832,39.373v6.997h-3.661v-6.997
		c-1.825-0.855-2.951-2.954-2.291-5.205c0.402-1.37,1.539-2.473,2.917-2.848c2.898-0.783,5.514,1.377,5.514,4.148
		C33.311,37.197,32.296,38.688,30.832,39.373z"/>
</g>
</svg>
