<?xml version="1.0" encoding="utf-8"?>
<!-- Generator: Adobe Illustrator 16.0.4, SVG Export Plug-In . SVG Version: 6.00 Build 0)  -->
<!DOCTYPE svg PUBLIC "-//W3C//DTD SVG 1.1//EN" "http://www.w3.org/Graphics/SVG/1.1/DTD/svg11.dtd">
<svg version="1.1" id="Layer_1" xmlns="http://www.w3.org/2000/svg" xmlns:xlink="http://www.w3.org/1999/xlink" x="0px" y="0px"
	 width="58px" height="58px" viewBox="0 0 58 58" enable-background="new 0 0 58 58" xml:space="preserve">
<g id="XMLID_4378_">
	<path id="XMLID_4379_" fill="#000066" d="M48.271,54.247H19.595c0.008-0.011,0.017-0.022,0.026-0.032c-5.415,0-9.893,0-9.893,0
		c-1.778-0.082-3.409-1.224-3.936-2.799c0.001-0.006,0.001-0.012,0.001-0.02c0.011-0.062,0.281-1.537,0.956-4.146
		c1.096-4.229,13.639-9.038,15.291-9.53c0.568-0.172,1.223-1.945,1.357-4.57c-0.692-0.565-1.313-1.315-1.928-2.322
		c-0.177-0.291-0.353-0.566-0.525-0.839c-0.61-0.958-1.19-1.868-1.697-3.141c-0.558-0.208-1.072-0.651-1.384-1.221
		c-1.089-1.998-1.72-5.198-1.271-6.461c0.192-0.549,0.607-0.936,1.182-1.119c-0.003-4.711,1.561-7.685,3.194-9.503
		c-0.034-0.165-0.017-0.34,0.04-0.5c0.433-1.562,1.945-2.288,3.469-2.486c0.026-0.282,0.085-0.586,0.224-0.884
		c0.245-0.525,1.165-0.92,2.164-0.92c1.551,0.026,5.604,1.642,6.5,2.036c4.484,1.777,7.123,6.35,7.121,12.305
		c0.512,0.197,0.883,0.566,1.062,1.076c0.445,1.267-0.187,4.47-1.274,6.467c-0.291,0.533-0.758,0.959-1.271,1.186
		c-0.523,1.288-1.131,2.241-1.723,3.166c-0.182,0.285-0.367,0.574-0.555,0.88c-0.574,0.946-1.132,1.653-1.724,2.188
		c0.072,2.43,0.612,4.41,1.306,4.688c0.938,0.381,2.168,0.897,3.51,1.5c4.324,1.853,10.668,5.083,11.434,8.037
		c0.676,2.61,0.945,4.085,0.955,4.146c0,0.006,0,0.012,0.002,0.02C51.68,53.025,50.051,54.165,48.271,54.247z"/>
</g>
</svg>
