<?xml version="1.0" encoding="utf-8"?>
<!-- Generator: Adobe Illustrator 16.0.4, SVG Export Plug-In . SVG Version: 6.00 Build 0)  -->
<!DOCTYPE svg PUBLIC "-//W3C//DTD SVG 1.1//EN" "http://www.w3.org/Graphics/SVG/1.1/DTD/svg11.dtd">
<svg version="1.1" id="Layer_1" xmlns="http://www.w3.org/2000/svg" xmlns:xlink="http://www.w3.org/1999/xlink" x="0px" y="0px"
	 width="58px" height="58px" viewBox="0 0 58 58" enable-background="new 0 0 58 58" xml:space="preserve">
<g id="policies">
	<g>
		<path fill="#FFFFFF" d="M40.744,35.06h-14.87c-0.913,0-1.652,0.738-1.652,1.65s0.74,1.65,1.652,1.65h14.87
			c0.912,0,1.652-0.738,1.652-1.65S41.656,35.06,40.744,35.06z M40.744,26.806h-14.87c-0.913,0-1.652,0.739-1.652,1.65
			c0,0.912,0.74,1.651,1.652,1.651h14.87c0.912,0,1.652-0.739,1.652-1.651C42.396,27.545,41.656,26.806,40.744,26.806z
			 M40.744,3.646c-0.205,0-19.827,0-19.827,0c-3.496,0-6.609,3.207-6.609,6.609L12.399,10.3c-3.497,0-6.353,3.162-6.353,6.565
			v33.044c0,3.4,3.113,6.608,6.609,6.608h24.784c3.496,0,6.609-3.208,6.609-6.608h1.652c3.496,0,6.609-3.208,6.609-6.609V16.902
			L40.744,3.646z M37.439,53.214H12.656c-1.734,0-3.304-1.623-3.304-3.305V16.865c0-1.685,1.413-3.253,3.147-3.253l1.81-0.053V43.3
			c0,3.401,3.113,6.609,6.609,6.609h19.827C40.744,51.591,39.174,53.214,37.439,53.214z M49.006,43.3
			c0,1.683-1.57,3.305-3.305,3.305H20.917c-1.734,0-3.304-1.622-3.304-3.305V10.255c0-1.683,1.57-3.305,3.304-3.305h16.522
			c-0.026,3.807,0,6.65,0,6.65c0,3.433,3.09,6.567,6.609,6.567c0,0,1.756,0,4.957,0V43.3z M44.049,16.865
			c-1.761,0-3.305-3.198-3.305-4.915c0,0,0-1.738,0-4.948V6.999l8.262,9.866H44.049z"/>
	</g>
</g>
</svg>
