<?xml version="1.0" encoding="utf-8"?>
<!-- Generator: Adobe Illustrator 16.0.4, SVG Export Plug-In . SVG Version: 6.00 Build 0)  -->
<!DOCTYPE svg PUBLIC "-//W3C//DTD SVG 1.1//EN" "http://www.w3.org/Graphics/SVG/1.1/DTD/svg11.dtd">
<svg version="1.1" id="Layer_1" xmlns="http://www.w3.org/2000/svg" xmlns:xlink="http://www.w3.org/1999/xlink" x="0px" y="0px"
	 width="58px" height="58px" viewBox="0 0 58 58" enable-background="new 0 0 58 58" xml:space="preserve">
<g id="referral">
	<g id="_x36__39_">
		<g>
			<path fill="#FFFFFF" d="M26.193,29.844c1.175-1.586,1.88-3.617,1.88-5.831c0-5.069-3.698-9.178-8.259-9.178
				c-4.562,0-8.26,4.108-8.26,9.178c0,2.214,0.705,4.245,1.879,5.831c-2.155,0.746-3.715,2.772-3.715,5.183v3.671
				c0,3.042,2.466,5.509,5.507,5.509h9.178c3.042,0,5.509-2.467,5.509-5.509v-3.671C29.911,32.616,28.349,30.59,26.193,29.844z
				 M13.388,24.014c0-4.055,2.877-7.342,6.426-7.342c3.548,0,6.425,3.288,6.425,7.342c0,4.055-2.877,7.343-6.425,7.343
				C16.265,31.356,13.388,28.069,13.388,24.014z M28.073,38.241c0,2.28-2.017,4.128-4.506,4.128h-7.509
				c-2.488,0-4.505-1.848-4.505-4.128v-2.755c0-1.951,1.48-3.576,3.464-4.008c1.354,1.074,3.005,1.713,4.796,1.713
				c1.789,0,3.441-0.639,4.795-1.713c1.984,0.432,3.464,2.057,3.464,4.008V38.241z"/>
		</g>
	</g>
	<g id="_x36__41_">
		<g>
			<path fill="#FFFFFF" d="M44.995,30.113c0.739-0.996,1.182-2.271,1.182-3.659c0-3.181-2.322-5.758-5.185-5.758
				s-5.18,2.578-5.18,5.758c0,1.389,0.44,2.663,1.177,3.659c-1.352,0.467-2.331,1.738-2.331,3.252v2.302
				c0,1.908,1.547,3.455,3.455,3.455h5.758c1.909,0,3.456-1.547,3.456-3.455v-2.302C47.327,31.852,46.35,30.58,44.995,30.113z
				 M40.992,22.2c2.057,0,3.724,1.905,3.724,4.254c0,2.35-1.667,4.255-3.724,4.255c-2.055,0-3.721-1.905-3.721-4.255
				C37.271,24.105,38.938,22.2,40.992,22.2z M45.854,35.327c0,1.345-1.188,2.434-2.651,2.434h-4.419
				c-1.464,0-2.651-1.089-2.651-2.434v-1.62c0-1.148,0.87-2.103,2.037-2.357c0.796,0.632,1.771,1.008,2.822,1.008
				c1.054,0,2.026-0.376,2.822-1.008c1.169,0.255,2.04,1.209,2.04,2.357V35.327z"/>
		</g>
	</g>
	<g id="_x33__7_">
		<g>
			<path fill="#FFFFFF" d="M44.027,45.245l-2.11-5.238c-0.223-0.558-0.734-0.312-0.734-0.312l-5.238,2.109
				c-0.289,0.118-0.431,0.446-0.312,0.734c0.114,0.29,0.443,0.432,0.732,0.313l3.999-1.611c-0.179,2.951-2.006,5.681-4.931,6.859
				c-3.693,1.487-7.842-0.02-9.783-3.367l-1.059,0.427c2.181,3.927,6.991,5.708,11.265,3.988c3.158-1.272,5.203-4.127,5.592-7.283
				l1.532,3.803c0.116,0.29,0.445,0.431,0.734,0.314C44.004,45.864,44.146,45.534,44.027,45.245z M25.107,15.65l5.559,0.993
				c0.308,0.055,0.602-0.149,0.657-0.456c0.056-0.307-0.149-0.602-0.457-0.656l-4.249-0.759c1.719-2.405,4.719-3.747,7.824-3.192
				c3.92,0.7,6.636,4.178,6.502,8.046l1.125,0.201c0.235-4.485-2.894-8.55-7.43-9.36c-3.352-0.599-6.599,0.735-8.604,3.203
				l0.72-4.037c0.056-0.307-0.149-0.6-0.456-0.655c-0.308-0.055-0.6,0.15-0.656,0.457l-0.994,5.561
				C24.555,15.533,25.107,15.65,25.107,15.65z"/>
		</g>
	</g>
	<g>
		<path fill="#FFFFFF" d="M29,56.979C14.124,56.979,2.021,44.877,2.021,30C2.021,15.124,14.124,3.021,29,3.021
			c14.877,0,26.979,12.103,26.979,26.979C55.979,44.877,43.877,56.979,29,56.979z M29,5.021C15.226,5.021,4.021,16.226,4.021,30
			c0,13.773,11.206,24.979,24.979,24.979c13.773,0,24.979-11.206,24.979-24.979C53.979,16.226,42.773,5.021,29,5.021z"/>
	</g>
</g>
</svg>
