<?xml version="1.0" encoding="utf-8"?>
<!-- Generator: Adobe Illustrator 16.0.4, SVG Export Plug-In . SVG Version: 6.00 Build 0)  -->
<!DOCTYPE svg PUBLIC "-//W3C//DTD SVG 1.1//EN" "http://www.w3.org/Graphics/SVG/1.1/DTD/svg11.dtd">
<svg version="1.1" id="Layer_1" xmlns="http://www.w3.org/2000/svg" xmlns:xlink="http://www.w3.org/1999/xlink" x="0px" y="0px"
	 width="58px" height="58px" viewBox="0 0 58 58" enable-background="new 0 0 58 58" xml:space="preserve">
<g id="reset">
	<g>
		<path fill="#FFFFFF" d="M44.342,14.338c0-0.554-0.45-1.004-1.004-1.004H33.301c-0.121,0-1.004,0-1.004,1.004v10.037
			c0,0.555,0.45,1.004,1.004,1.004c0.555,0,1.004-0.449,1.004-1.004v-7.668c4.745,2.254,8.029,7.084,8.029,12.687
			c0,7.761-6.291,14.052-14.052,14.052c-7.76,0-14.052-6.291-14.052-14.052c0-7.076,5.238-12.915,12.044-13.892v-2.027
			c-7.92,0.989-14.052,7.731-14.052,15.919c0,8.869,7.19,16.06,16.059,16.06c8.869,0,16.06-7.19,16.06-16.06
			c0-6.05-3.349-11.313-8.291-14.051h7.287C43.892,15.342,44.342,14.893,44.342,14.338z M29,1.329
			c-14.876,0-26.979,12.103-26.979,26.979c0,14.877,12.103,26.979,26.979,26.979c14.877,0,26.979-12.103,26.979-26.979
			C55.979,13.432,43.877,1.329,29,1.329z M29,53.288c-13.774,0-24.979-11.206-24.979-24.979C4.021,14.535,15.226,3.329,29,3.329
			c13.773,0,24.979,11.206,24.979,24.979C53.979,42.082,42.773,53.288,29,53.288z"/>
	</g>
</g>
</svg>
