<?xml version="1.0" encoding="utf-8"?>
<!-- Generator: Adobe Illustrator 16.0.4, SVG Export Plug-In . SVG Version: 6.00 Build 0)  -->
<!DOCTYPE svg PUBLIC "-//W3C//DTD SVG 1.1//EN" "http://www.w3.org/Graphics/SVG/1.1/DTD/svg11.dtd">
<svg version="1.1" id="Icons" xmlns="http://www.w3.org/2000/svg" xmlns:xlink="http://www.w3.org/1999/xlink" x="0px" y="0px"
	 width="58px" height="58px" viewBox="0 0 58 58" enable-background="new 0 0 58 58" xml:space="preserve">
<g id="search">
	<g>
		<path fill="#ffffff" d="M54.939,53.104L41.265,39.645c3.58-3.891,5.78-9.035,5.78-14.697c0-12.111-9.977-21.93-22.283-21.93
			c-12.308,0-22.284,9.818-22.284,21.93c0,12.111,9.977,21.927,22.284,21.927c5.317,0,10.195-1.838,14.025-4.896l13.728,13.51
			c0.671,0.66,1.756,0.66,2.425,0C55.609,54.83,55.609,53.762,54.939,53.104z M24.762,43.504c-10.414,0-18.855-8.309-18.855-18.556
			c0-10.248,8.441-18.555,18.855-18.555c10.413,0,18.855,8.307,18.855,18.555C43.617,35.195,35.175,43.504,24.762,43.504z"/>
	</g>
</g>
</svg>
