<?xml version="1.0" encoding="utf-8"?>
<!-- Generator: Adobe Illustrator 16.0.4, SVG Export Plug-In . SVG Version: 6.00 Build 0)  -->
<!DOCTYPE svg PUBLIC "-//W3C//DTD SVG 1.1//EN" "http://www.w3.org/Graphics/SVG/1.1/DTD/svg11.dtd">
<svg version="1.1" id="Layer_1" xmlns="http://www.w3.org/2000/svg" xmlns:xlink="http://www.w3.org/1999/xlink" x="0px" y="0px"
	 width="58px" height="58px" viewBox="0 0 58 58" enable-background="new 0 0 58 58" xml:space="preserve">
<g id="searchresult">
	<g>
		<path fill="#FFFFFF" d="M36.647,28.116H21.625c-0.519,0-0.939,0.421-0.939,0.939c0,0.519,0.42,0.938,0.939,0.938h15.023
			c0.519,0,0.939-0.419,0.939-0.938C37.587,28.537,37.166,28.116,36.647,28.116z M36.647,33.749H21.625
			c-0.519,0-0.939,0.421-0.939,0.938c0,0.52,0.42,0.939,0.939,0.939h15.023c0.519,0,0.939-0.42,0.939-0.939
			C37.587,34.17,37.166,33.749,36.647,33.749z M36.647,22.482H21.625c-0.519,0-0.939,0.42-0.939,0.939
			c0,0.519,0.42,0.939,0.939,0.939h15.023c0.519,0,0.939-0.42,0.939-0.939C37.587,22.902,37.166,22.482,36.647,22.482z
			 M40.403,14.97H17.869c-2.061,0-3.756,1.849-3.756,3.911v22.402c0,2.062,1.671,3.733,3.731,3.733h22.388
			c2.061,0,3.928-1.694,3.928-3.756V18.726C44.159,16.664,42.464,14.97,40.403,14.97z M42.281,41.261c0,1.031-1.02,1.889-2.05,1.889
			H17.844c-1.029,0-1.865-0.836-1.865-1.866V18.881c0-1.032,0.859-2.033,1.89-2.033h22.535c1.03,0,1.878,0.847,1.878,1.877V41.261z
			 M29,3.021C14.124,3.021,2.021,15.124,2.021,30c0,14.877,12.103,26.979,26.979,26.979c14.877,0,26.979-12.103,26.979-26.979
			C55.979,15.124,43.877,3.021,29,3.021z M29,54.979C15.226,54.979,4.021,43.773,4.021,30C4.021,16.226,15.226,5.021,29,5.021
			c13.773,0,24.979,11.206,24.979,24.979C53.979,43.773,42.773,54.979,29,54.979z"/>
	</g>
</g>
</svg>
