<?xml version="1.0" encoding="utf-8"?>
<!-- Generator: Adobe Illustrator 16.0.4, SVG Export Plug-In . SVG Version: 6.00 Build 0)  -->
<!DOCTYPE svg PUBLIC "-//W3C//DTD SVG 1.1//EN" "http://www.w3.org/Graphics/SVG/1.1/DTD/svg11.dtd">
<svg version="1.1" id="Layer_1" xmlns="http://www.w3.org/2000/svg" xmlns:xlink="http://www.w3.org/1999/xlink" x="0px" y="0px"
	 width="58px" height="58px" viewBox="0 0 58 58" enable-background="new 0 0 58 58" xml:space="preserve">
<g id="sorting">
	<g>
		<path fill="#FFFFFF" d="M29,2.021C14.124,2.021,2.021,14.124,2.021,29c0,14.877,12.103,26.979,26.979,26.979
			c14.877,0,26.979-12.103,26.979-26.979C55.979,14.124,43.877,2.021,29,2.021z M29,53.979C15.226,53.979,4.021,42.773,4.021,29
			C4.021,15.226,15.226,4.021,29,4.021c13.773,0,24.979,11.206,24.979,24.979C53.979,42.773,42.773,53.979,29,53.979z
			 M42.908,33.437h-8.83c-0.61,0-1.104,0.494-1.104,1.104c0,0.611,0.493,1.081,1.104,1.081h8.83c0.611,0,1.104-0.47,1.104-1.081
			C44.013,33.931,43.52,33.437,42.908,33.437z M42.908,40.067H29.663c-0.61,0-1.104,0.495-1.104,1.104
			c0,0.61,0.494,1.104,1.104,1.104l13.245-0.032c0.611,0,1.104-0.462,1.104-1.072C44.013,40.562,43.52,40.067,42.908,40.067z
			 M29.317,33.747c-0.433-0.434-1.135-0.434-1.567,0l-5.814,6.691V13.544h-2.208v26.934l-5.85-6.731
			c-0.432-0.434-1.133-0.434-1.565,0c-0.434,0.437-0.434,1.14,0,1.575l7.662,8.816c0.232,0.233,0.538,0.331,0.84,0.315
			c0.301,0.016,0.607-0.082,0.839-0.315l7.663-8.816C29.75,34.887,29.75,34.184,29.317,33.747z M42.908,13.544H27.455
			c-0.61,0-1.104,0.495-1.104,1.105c0,0.61,0.494,1.104,1.104,1.104l15.454-0.002c0.611,0,1.104-0.492,1.104-1.103
			C44.013,14.04,43.52,13.544,42.908,13.544z M42.908,26.806H27.455c-0.61,0-1.104,0.495-1.104,1.104
			c0,0.61,0.494,1.088,1.104,1.088l15.454,0.018c0.611,0,1.104-0.495,1.104-1.105C44.013,27.3,43.52,26.806,42.908,26.806z
			 M42.908,20.175H27.455c-0.61,0-1.104,0.496-1.104,1.104c0,0.611,0.494,1.096,1.104,1.096h15.454c0.611,0,1.104-0.485,1.104-1.096
			C44.013,20.67,43.52,20.175,42.908,20.175z"/>
	</g>
</g>
</svg>
