<?xml version="1.0" encoding="utf-8"?>
<!-- Generator: Adobe Illustrator 16.0.4, SVG Export Plug-In . SVG Version: 6.00 Build 0)  -->
<!DOCTYPE svg PUBLIC "-//W3C//DTD SVG 1.1//EN" "http://www.w3.org/Graphics/SVG/1.1/DTD/svg11.dtd">
<svg version="1.1" id="Layer_1" xmlns="http://www.w3.org/2000/svg" xmlns:xlink="http://www.w3.org/1999/xlink" x="0px" y="0px"
	 width="58px" height="58px" viewBox="0 0 58 58" enable-background="new 0 0 58 58" xml:space="preserve">
<g id="sorting">
	<g>
		<path fill="#FFFFFF" d="M28,1C13.124,1,1.021,13.103,1.021,27.979c0,14.877,12.103,26.979,26.979,26.979
			c14.877,0,26.979-12.103,26.979-26.979C54.979,13.103,42.877,1,28,1z M28,52.959c-13.774,0-24.979-11.206-24.979-24.979
			C3.021,14.206,14.226,3,28,3c13.773,0,24.979,11.206,24.979,24.979C52.979,41.753,41.773,52.959,28,52.959z M41.908,39.047H28.663
			c-0.61,0-1.104,0.495-1.104,1.104c0,0.61,0.494,1.104,1.104,1.104l13.245-0.032c0.611,0,1.104-0.462,1.104-1.072
			C43.013,39.542,42.52,39.047,41.908,39.047z M28.317,32.727c-0.433-0.434-1.135-0.434-1.567,0l-5.814,6.691V12.524h-2.208v26.934
			l-5.85-6.731c-0.432-0.434-1.133-0.434-1.565,0c-0.434,0.437-0.434,1.14,0,1.575l7.662,8.816c0.232,0.233,0.538,0.331,0.84,0.315
			c0.301,0.016,0.607-0.082,0.839-0.315l7.663-8.816C28.75,33.866,28.75,33.163,28.317,32.727z M41.908,32.416h-8.83
			c-0.61,0-1.104,0.494-1.104,1.104c0,0.611,0.493,1.081,1.104,1.081h8.83c0.611,0,1.104-0.47,1.104-1.081
			C43.013,32.91,42.52,32.416,41.908,32.416z M41.908,12.524H26.455c-0.61,0-1.104,0.495-1.104,1.105
			c0,0.61,0.494,1.104,1.104,1.104l15.454-0.002c0.611,0,1.104-0.492,1.104-1.103C43.013,13.019,42.52,12.524,41.908,12.524z
			 M41.908,25.785H26.455c-0.61,0-1.104,0.495-1.104,1.104c0,0.61,0.494,1.088,1.104,1.088l15.454,0.018
			c0.611,0,1.104-0.495,1.104-1.105C43.013,26.28,42.52,25.785,41.908,25.785z M41.908,19.154H26.455
			c-0.61,0-1.104,0.496-1.104,1.104c0,0.611,0.494,1.096,1.104,1.096h15.454c0.611,0,1.104-0.485,1.104-1.096
			C43.013,19.65,42.52,19.154,41.908,19.154z"/>
	</g>
</g>
</svg>
