<?xml version="1.0" encoding="utf-8"?>
<!-- Generator: Adobe Illustrator 16.0.4, SVG Export Plug-In . SVG Version: 6.00 Build 0)  -->
<!DOCTYPE svg PUBLIC "-//W3C//DTD SVG 1.1//EN" "http://www.w3.org/Graphics/SVG/1.1/DTD/svg11.dtd">
<svg version="1.1" id="Layer_1" xmlns="http://www.w3.org/2000/svg" xmlns:xlink="http://www.w3.org/1999/xlink" x="0px" y="0px"
	 width="58px" height="58px" viewBox="0 0 58 58" enable-background="new 0 0 58 58" xml:space="preserve">
<g id="sync">
	<g>
		<path fill="#FFFFFF" d="M4.976,24.09h16.27c0.898,0,1.627-0.728,1.627-1.627c0-0.897-0.729-1.627-1.627-1.627H8.815
			C12.47,13.145,20.297,7.821,29.38,7.821c11.472,0,20.935,8.489,22.519,19.523h3.287C53.583,14.506,42.653,4.567,29.38,4.567
			c-9.807,0-18.339,5.428-22.777,13.438V6.194c0-0.897-0.729-1.627-1.627-1.627S3.349,5.296,3.349,6.194v16.27
			C3.349,24.04,4.976,24.09,4.976,24.09z M53.784,37.105H37.516c-0.898,0-1.627,0.73-1.627,1.627c0,0.9,0.729,1.627,1.627,1.627
			h12.421c-3.658,7.689-11.476,13.016-20.556,13.016c-11.472,0-20.936-8.488-22.519-19.523H3.574
			C5.179,46.689,16.108,56.629,29.38,56.629c9.807,0,18.339-5.428,22.777-13.438v11.811c0,0.9,0.729,1.627,1.627,1.627
			s1.627-0.727,1.627-1.627v-16.27C55.411,37.004,53.784,37.105,53.784,37.105z"/>
	</g>
</g>
</svg>
