<?xml version="1.0" encoding="utf-8"?>
<!-- Generator: Adobe Illustrator 16.0.4, SVG Export Plug-In . SVG Version: 6.00 Build 0)  -->
<!DOCTYPE svg PUBLIC "-//W3C//DTD SVG 1.1//EN" "http://www.w3.org/Graphics/SVG/1.1/DTD/svg11.dtd">
<svg version="1.1" id="Layer_1" xmlns="http://www.w3.org/2000/svg" xmlns:xlink="http://www.w3.org/1999/xlink" x="0px" y="0px"
	 width="58px" height="58px" viewBox="0 0 58 58" enable-background="new 0 0 58 58" xml:space="preserve">
<g>
	<g>
		<path fill="#FDFEFF" d="M29.76,7.24c-8.972,0-16.25,7.275-16.25,16.25c0,6.793,13.548,27.639,16.25,27.625
			c2.66,0.014,16.25-20.921,16.25-27.625C46.01,14.516,38.734,7.24,29.76,7.24z"/>
		<path fill="#686969" d="M29.76,3.99c-10.769,0-19.5,8.731-19.5,19.5c0,8.153,16.257,32.518,19.5,32.5
			c3.191,0.018,19.5-24.456,19.5-32.5C49.26,12.722,40.531,3.99,29.76,3.99z M29.76,51.115c-2.701,0.014-16.25-20.832-16.25-27.625
			c0-8.975,7.277-16.25,16.25-16.25c8.975,0,16.25,7.275,16.25,16.25C46.01,30.194,32.42,51.129,29.76,51.115z"/>
	</g>
	<path fill="#1B8B46" d="M29.76,10.227c-7.324,0-13.263,5.937-13.263,13.264s5.939,13.264,13.263,13.264
		c7.324,0,13.264-5.937,13.264-13.264S37.084,10.227,29.76,10.227z M30.592,31.921c-4.824,0-7.848-3.408-7.848-8.545
		s3.145-8.593,7.825-8.593c1.92,0,3.408,0.456,4.633,1.2l-0.457,3c-1.08-0.815-2.424-1.464-4.031-1.464
		c-2.929,0-4.729,2.232-4.729,5.833c0,3.647,1.92,5.808,4.848,5.808c1.537,0,2.929-0.552,4.201-1.392l0.432,2.736
		C34.145,31.345,32.465,31.921,30.592,31.921z"/>
</g>
</svg>
