<?xml version="1.0" encoding="utf-8"?>
<!-- Generator: Adobe Illustrator 16.0.4, SVG Export Plug-In . SVG Version: 6.00 Build 0)  -->
<!DOCTYPE svg PUBLIC "-//W3C//DTD SVG 1.1//EN" "http://www.w3.org/Graphics/SVG/1.1/DTD/svg11.dtd">
<svg version="1.1" id="Layer_1" xmlns="http://www.w3.org/2000/svg" xmlns:xlink="http://www.w3.org/1999/xlink" x="0px" y="0px"
	 width="58px" height="58px" viewBox="0 0 58 58" enable-background="new 0 0 58 58" xml:space="preserve">
<g>
	<g>
		<path fill="#FDFEFF" d="M30.074,6.05c-8.972,0-16.25,7.275-16.25,16.25c0,6.793,13.549,27.639,16.25,27.625
			c2.66,0.014,16.25-20.922,16.25-27.625C46.324,13.325,39.049,6.05,30.074,6.05z"/>
		<path fill="#686969" d="M29.76,2.8c-10.77,0-19.5,8.731-19.5,19.5c0,8.153,16.258,32.518,19.5,32.5
			c3.191,0.018,19.5-24.456,19.5-32.5C49.26,11.531,40.531,2.8,29.76,2.8z M29.76,49.925C27.059,49.938,13.51,29.093,13.51,22.3
			c0-8.975,7.277-16.25,16.25-16.25c8.974,0,16.25,7.275,16.25,16.25C46.01,29.003,32.42,49.938,29.76,49.925z"/>
	</g>
	<path fill="#1B8B46" d="M29.76,9.036c-7.324,0-13.264,5.937-13.264,13.264c0,7.326,5.939,13.264,13.264,13.264
		c7.324,0,13.263-5.938,13.263-13.264C43.023,14.973,37.084,9.036,29.76,9.036z M34.814,29.776l-1.584-4.368h-6.289l-1.488,4.2
		H22.31l6.217-16.634h3.384L37.982,29.2L34.814,29.776z"/>
	<polygon fill="#1B8B46" points="27.806,22.815 32.343,22.815 30.086,16.407 	"/>
</g>
</svg>
