<?xml version="1.0" encoding="utf-8"?>
<!-- Generator: Adobe Illustrator 16.0.4, SVG Export Plug-In . SVG Version: 6.00 Build 0)  -->
<!DOCTYPE svg PUBLIC "-//W3C//DTD SVG 1.1//EN" "http://www.w3.org/Graphics/SVG/1.1/DTD/svg11.dtd">
<svg version="1.1" id="Layer_1" xmlns="http://www.w3.org/2000/svg" xmlns:xlink="http://www.w3.org/1999/xlink" x="0px" y="0px"
	 width="58px" height="58px" viewBox="0 0 58 58" enable-background="new 0 0 58 58" xml:space="preserve">
<g>
	<g>
		<g>
			<path fill="#FDFEFF" d="M28.76,7.24c-8.972,0-16.25,7.275-16.25,16.25c0,6.793,13.548,27.639,16.25,27.625
				c2.66,0.014,16.25-20.921,16.25-27.625C45.01,14.516,37.734,7.24,28.76,7.24z"/>
			<path fill="#686969" d="M28.76,3.99c-10.769,0-19.5,8.731-19.5,19.5c0,8.153,16.257,32.518,19.5,32.5
				c3.191,0.018,19.5-24.456,19.5-32.5C48.26,12.722,39.531,3.99,28.76,3.99z M28.76,51.115c-2.701,0.014-16.25-20.832-16.25-27.625
				c0-8.975,7.277-16.25,16.25-16.25c8.975,0,16.25,7.275,16.25,16.25C45.01,30.194,31.42,51.129,28.76,51.115z"/>
		</g>
		<path fill="#1B8B46" d="M29.144,18.615h-1.513v5.353h1.393c2.04,0,3.24-0.84,3.24-2.736
			C32.264,19.504,31.184,18.615,29.144,18.615z"/>
	</g>
	<path fill="#1B8B46" d="M39.152,15.264l-4.07,4.07c0.184,0.549,0.302,1.146,0.302,1.826c0,3.576-2.544,5.376-6.337,5.376h-1.166
		l-0.25,0.249v5.848h-3.168v-2.68l-3.929,3.93c2.262,1.793,5.117,2.871,8.226,2.871c7.324,0,13.264-5.937,13.264-13.264
		C42.023,20.379,40.945,17.526,39.152,15.264z"/>
	<path fill="#1B8B46" d="M24.463,16.071h4.849c1.579,0,2.876,0.321,3.876,0.916l3.851-3.851c-2.271-1.817-5.146-2.91-8.278-2.91
		c-7.324,0-13.263,5.937-13.263,13.264c0,3.134,1.093,6.008,2.91,8.277l6.057-6.057V16.071z"/>
</g>
</svg>
