<?xml version="1.0" encoding="utf-8"?>
<!-- Generator: Adobe Illustrator 16.0.4, SVG Export Plug-In . SVG Version: 6.00 Build 0)  -->
<!DOCTYPE svg PUBLIC "-//W3C//DTD SVG 1.1//EN" "http://www.w3.org/Graphics/SVG/1.1/DTD/svg11.dtd">
<svg version="1.1" id="Layer_1" xmlns="http://www.w3.org/2000/svg" xmlns:xlink="http://www.w3.org/1999/xlink" x="0px" y="0px"
	 width="58px" height="58px" viewBox="0 0 58 58" enable-background="new 0 0 58 58" xml:space="preserve">
<g>
	<g>
		<path fill="#FDFEFF" d="M29.76,5.24c-8.973,0-16.25,7.275-16.25,16.25c0,6.793,13.549,27.639,16.25,27.625
			c2.66,0.014,16.25-20.921,16.25-27.625C46.01,12.516,38.734,5.24,29.76,5.24z"/>
		<path fill="#686969" d="M29.76,1.99c-10.77,0-19.5,8.731-19.5,19.5c0,8.153,16.258,32.518,19.5,32.5
			c3.191,0.018,19.5-24.456,19.5-32.5C49.26,10.722,40.531,1.99,29.76,1.99z M29.76,49.115c-2.701,0.014-16.25-20.832-16.25-27.625
			c0-8.975,7.277-16.25,16.25-16.25c8.974,0,16.25,7.275,16.25,16.25C46.01,28.194,32.42,49.129,29.76,49.115z"/>
	</g>
	<g>
		<path fill="#1B8B46" d="M30.343,21.906h-1.656v5.064h1.704c2.016,0,3.192-0.841,3.192-2.497
			C33.583,22.794,32.455,21.906,30.343,21.906z"/>
		<path fill="#1B8B46" d="M29.76,8.227c-7.324,0-13.264,5.937-13.264,13.264s5.939,13.264,13.264,13.264
			c7.324,0,13.263-5.937,13.263-13.264S37.084,8.227,29.76,8.227z M30.391,29.395h-4.752V12.833h4.825
			c3.721,0,5.496,1.681,5.496,4.297c0,1.729-0.96,2.855-2.4,3.456c1.849,0.576,3.072,1.776,3.072,3.984
			C36.631,27.834,34.279,29.395,30.391,29.395z"/>
		<path fill="#1B8B46" d="M33.007,17.394c0-1.32-0.792-2.136-2.712-2.136h-1.608v4.392h1.464
			C32.023,19.649,33.007,18.81,33.007,17.394z"/>
	</g>
</g>
</svg>
