<?xml version="1.0" encoding="utf-8"?>
<!-- Generator: Adobe Illustrator 16.0.4, SVG Export Plug-In . SVG Version: 6.00 Build 0)  -->
<!DOCTYPE svg PUBLIC "-//W3C//DTD SVG 1.1//EN" "http://www.w3.org/Graphics/SVG/1.1/DTD/svg11.dtd">
<svg version="1.1" id="Layer_1" xmlns="http://www.w3.org/2000/svg" xmlns:xlink="http://www.w3.org/1999/xlink" x="0px" y="0px"
	 width="58px" height="58px" viewBox="0 0 58 58" enable-background="new 0 0 58 58" xml:space="preserve">
<g>
	<g>
		<path fill="#FDFEFF" d="M30.441,6.24c-8.973,0-16.25,7.275-16.25,16.25c0,6.793,13.549,27.639,16.25,27.625
			c2.66,0.014,16.25-20.921,16.25-27.625C46.691,13.516,39.416,6.24,30.441,6.24z"/>
		<path fill="#686969" d="M30.441,2.99c-10.77,0-19.5,8.731-19.5,19.5c0,8.153,16.258,32.518,19.5,32.5
			c3.191,0.018,19.5-24.456,19.5-32.5C49.941,11.722,41.213,2.99,30.441,2.99z M30.441,50.115
			c-2.701,0.014-16.25-20.832-16.25-27.625c0-8.975,7.277-16.25,16.25-16.25c8.975,0,16.25,7.275,16.25,16.25
			C46.691,29.194,33.102,50.129,30.441,50.115z"/>
	</g>
	<path fill="#2D6CA5" d="M40.887,14.334L28.134,27.086c0.801,0.688,1.824,1.074,3.032,1.074c1.536,0,2.929-0.552,4.2-1.392
		l0.432,2.736c-1.32,0.84-3,1.416-4.872,1.416c-2.001,0-3.686-0.594-4.98-1.646l-3.66,3.66c2.251,1.761,5.077,2.819,8.156,2.819
		c7.323,0,13.264-5.937,13.264-13.264C43.705,19.411,42.646,16.585,40.887,14.334z"/>
	<path fill="#2D6CA5" d="M26.317,22.353c0,0.756,0.101,1.429,0.257,2.05l7.219-7.219c-0.81-0.4-1.724-0.664-2.747-0.664
		C28.118,16.52,26.317,18.752,26.317,22.353z"/>
	<path fill="#2D6CA5" d="M23.077,22.376c0-5.137,3.145-8.593,7.824-8.593c1.921,0,3.408,0.456,4.633,1.2l-0.082,0.541l3.336-3.337
		c-2.28-1.85-5.183-2.961-8.347-2.961c-7.324,0-13.264,5.937-13.264,13.264c0,3.164,1.112,6.067,2.962,8.348l3.928-3.93
		C23.428,25.635,23.077,24.108,23.077,22.376z"/>
</g>
</svg>
