<?xml version="1.0" encoding="utf-8"?>
<!-- Generator: Adobe Illustrator 16.0.4, SVG Export Plug-In . SVG Version: 6.00 Build 0)  -->
<!DOCTYPE svg PUBLIC "-//W3C//DTD SVG 1.1//EN" "http://www.w3.org/Graphics/SVG/1.1/DTD/svg11.dtd">
<svg version="1.1" id="Layer_1" xmlns="http://www.w3.org/2000/svg" xmlns:xlink="http://www.w3.org/1999/xlink" x="0px" y="0px"
	 width="58px" height="58px" viewBox="0 0 58 58" enable-background="new 0 0 58 58" xml:space="preserve">
<g>
	<g>
		<path fill="#FDFEFF" d="M29.762,5.721c-8.973,0-16.25,7.275-16.25,16.25c0,6.793,13.549,27.639,16.25,27.625
			c2.66,0.014,16.249-20.922,16.249-27.625C46.011,12.996,38.736,5.721,29.762,5.721z"/>
		<path fill="#686969" d="M29.761,2.471c-10.77,0-19.5,8.731-19.5,19.5c0,8.153,16.258,32.518,19.5,32.5
			c3.191,0.018,19.5-24.456,19.5-32.5C49.261,11.202,40.532,2.471,29.761,2.471z M29.761,49.596
			c-2.701,0.014-16.25-20.832-16.25-27.625c0-8.975,7.277-16.25,16.25-16.25c8.975,0,16.25,7.275,16.25,16.25
			C46.011,28.674,32.421,49.609,29.761,49.596z"/>
	</g>
	<g>
		<path fill="#FDB515" d="M29.761,8.707c-7.324,0-13.264,5.937-13.264,13.264c0,7.326,5.939,13.264,13.264,13.264
			c7.322,0,13.264-5.938,13.264-13.264C43.024,14.644,37.083,8.707,29.761,8.707z M36.646,16.77c0,0-6.899,12.229-7.098,12.416
			c-0.66,0.617-1.696,0.584-2.313-0.074l-4.138-3.744c-0.619-0.659-0.585-1.695,0.075-2.312c0.659-0.618,1.695-0.585,2.312,0.075
			l2.512,2.243l5.814-10.24c0.453-0.783,1.453-1.051,2.236-0.599C36.83,14.986,37.099,15.986,36.646,16.77z"/>
	</g>
</g>
</svg>
