<?xml version="1.0" encoding="utf-8"?>
<!-- Generator: Adobe Illustrator 16.0.4, SVG Export Plug-In . SVG Version: 6.00 Build 0)  -->
<!DOCTYPE svg PUBLIC "-//W3C//DTD SVG 1.1//EN" "http://www.w3.org/Graphics/SVG/1.1/DTD/svg11.dtd">
<svg version="1.1" id="Layer_1" xmlns="http://www.w3.org/2000/svg" xmlns:xlink="http://www.w3.org/1999/xlink" x="0px" y="0px"
	 width="58px" height="58px" viewBox="0 0 58 58" enable-background="new 0 0 58 58" xml:space="preserve">
<g>
	<g>
		<g>
			<path fill="#FDFEFF" d="M29.761,6.24c-8.973,0-16.25,7.275-16.25,16.25c0,6.793,13.549,27.639,16.25,27.625
				c2.66,0.014,16.25-20.921,16.25-27.625C46.011,13.516,38.735,6.24,29.761,6.24z"/>
			<path fill="#686969" d="M29.761,2.99c-10.77,0-19.5,8.731-19.5,19.5c0,8.153,16.258,32.518,19.5,32.5
				c3.191,0.018,19.5-24.456,19.5-32.5C49.261,11.722,40.532,2.99,29.761,2.99z M29.761,50.115
				c-2.701,0.014-16.25-20.832-16.25-27.625c0-8.975,7.277-16.25,16.25-16.25c8.975,0,16.25,7.275,16.25,16.25
				C46.011,29.194,32.421,50.129,29.761,50.115z"/>
		</g>
		<path fill="#FDB515" d="M29.477,17.615h-1.512v5.353h1.393c2.039,0,3.24-0.84,3.24-2.736
			C32.598,18.504,31.518,17.615,29.477,17.615z"/>
	</g>
	<path fill="#FDB515" d="M24.796,15.071h4.848c1.75,0,3.158,0.39,4.188,1.118l4.118-4.117c-2.256-1.777-5.097-2.846-8.19-2.846
		c-7.324,0-13.264,5.937-13.264,13.264c0,3.095,1.068,5.936,2.845,8.191l5.455-5.455V15.071z"/>
	<path fill="#FDB515" d="M40.088,14.178l-4.553,4.553c0.107,0.443,0.182,0.91,0.182,1.43c0,3.576-2.543,5.376-6.336,5.376h-0.651
		l-0.765,0.765v5.332h-3.168v-2.164l-3.349,3.35c2.275,1.833,5.164,2.936,8.313,2.936c7.322,0,13.264-5.937,13.264-13.264
		C43.024,19.342,41.922,16.452,40.088,14.178z"/>
</g>
</svg>
