<?xml version="1.0" encoding="utf-8"?>
<!-- Generator: Adobe Illustrator 16.0.4, SVG Export Plug-In . SVG Version: 6.00 Build 0)  -->
<!DOCTYPE svg PUBLIC "-//W3C//DTD SVG 1.1//EN" "http://www.w3.org/Graphics/SVG/1.1/DTD/svg11.dtd">
<svg version="1.1" id="Layer_1" xmlns="http://www.w3.org/2000/svg" xmlns:xlink="http://www.w3.org/1999/xlink" x="0px" y="0px"
	 width="58px" height="58px" viewBox="0 0 58 58" enable-background="new 0 0 58 58" xml:space="preserve">
<g>
	<g>
		<path fill="#FDFEFF" d="M30.232,6.24c-8.973,0-16.25,7.275-16.25,16.25c0,6.793,13.549,27.639,16.25,27.625
			c2.66,0.014,16.25-20.921,16.25-27.625C46.482,13.516,39.207,6.24,30.232,6.24z"/>
		<path fill="#686969" d="M30.232,2.99c-10.77,0-19.5,8.731-19.5,19.5c0,8.153,16.258,32.518,19.5,32.5
			c3.191,0.018,19.5-24.456,19.5-32.5C49.732,11.722,41.004,2.99,30.232,2.99z M30.232,50.115
			c-2.701,0.014-16.25-20.832-16.25-27.625c0-8.975,7.277-16.25,16.25-16.25c8.975,0,16.25,7.275,16.25,16.25
			C46.482,29.194,32.893,50.129,30.232,50.115z"/>
	</g>
	<path fill="#D62731" d="M40.811,14.512L27.914,27.408c0.77,0.58,1.729,0.891,2.836,0.891c1.536,0,2.928-0.552,4.2-1.392
		l0.433,2.736c-1.32,0.84-3.001,1.416-4.873,1.416c-1.893,0-3.503-0.531-4.768-1.479l-3.488,3.488
		c2.223,1.678,4.979,2.686,7.979,2.686c7.323,0,13.264-5.937,13.264-13.264C43.496,19.49,42.488,16.733,40.811,14.512z"/>
	<path fill="#D62731" d="M22.661,22.515c0-5.137,3.145-8.593,7.825-8.593c1.92,0,3.408,0.456,4.632,1.2l-0.15,0.99l3.783-3.782
		c-2.306-1.936-5.274-3.104-8.519-3.104c-7.324,0-13.264,5.937-13.264,13.264c0,3.245,1.168,6.213,3.103,8.518l3.71-3.709
		C23.058,25.977,22.661,24.36,22.661,22.515z"/>
	<path fill="#D62731" d="M25.901,22.491c0,0.878,0.117,1.664,0.326,2.36l7.397-7.396c-0.869-0.474-1.865-0.797-2.995-0.797
		C27.701,16.658,25.901,18.891,25.901,22.491z"/>
</g>
</svg>
