<?xml version="1.0" encoding="utf-8"?>
<!-- Generator: Adobe Illustrator 16.0.4, SVG Export Plug-In . SVG Version: 6.00 Build 0)  -->
<!DOCTYPE svg PUBLIC "-//W3C//DTD SVG 1.1//EN" "http://www.w3.org/Graphics/SVG/1.1/DTD/svg11.dtd">
<svg version="1.1" id="Layer_1" xmlns="http://www.w3.org/2000/svg" xmlns:xlink="http://www.w3.org/1999/xlink" x="0px" y="0px"
	 width="58px" height="58px" viewBox="0 0 58 58" enable-background="new 0 0 58 58" xml:space="preserve">
<g>
	<g>
		<path fill="#FDFEFF" d="M30.232,6.721c-8.973,0-16.25,7.275-16.25,16.25c0,6.793,13.549,27.639,16.25,27.625
			c2.66,0.014,16.25-20.922,16.25-27.625C46.482,13.996,39.207,6.721,30.232,6.721z"/>
		<path fill="#686969" d="M30.232,3.471c-10.77,0-19.5,8.731-19.5,19.5c0,8.153,16.258,32.518,19.5,32.5
			c3.191,0.018,19.5-24.456,19.5-32.5C49.732,12.202,41.004,3.471,30.232,3.471z M30.232,50.596
			c-2.701,0.014-16.25-20.832-16.25-27.625c0-8.975,7.277-16.25,16.25-16.25c8.975,0,16.25,7.275,16.25,16.25
			C46.482,29.674,32.893,50.609,30.232,50.596z"/>
	</g>
	<g>
		<path fill="#D62731" d="M39.611,32.35c4.821-4.82,5.147-12.428,0.997-17.633l-18.631,18.63
			C27.184,37.498,34.79,37.171,39.611,32.35z"/>
		<path fill="#D62731" d="M20.854,13.592c-4.821,4.821-5.148,12.427-0.997,17.633l18.631-18.63
			C33.28,8.443,25.675,8.77,20.854,13.592z"/>
	</g>
</g>
</svg>
