<?xml version="1.0" encoding="utf-8"?>
<!-- Generator: Adobe Illustrator 16.0.4, SVG Export Plug-In . SVG Version: 6.00 Build 0)  -->
<!DOCTYPE svg PUBLIC "-//W3C//DTD SVG 1.1//EN" "http://www.w3.org/Graphics/SVG/1.1/DTD/svg11.dtd">
<svg version="1.1" id="Layer_1" xmlns="http://www.w3.org/2000/svg" xmlns:xlink="http://www.w3.org/1999/xlink" x="0px" y="0px"
	 width="58px" height="58px" viewBox="0 0 58 58" enable-background="new 0 0 58 58" xml:space="preserve">
<g>
	<g>
		<g>
			<path fill="#FDFEFF" d="M30.232,6.24c-8.973,0-16.25,7.275-16.25,16.25c0,6.793,13.549,27.639,16.25,27.625
				c2.66,0.014,16.25-20.921,16.25-27.625C46.482,13.516,39.207,6.24,30.232,6.24z"/>
			<path fill="#686969" d="M30.232,2.99c-10.77,0-19.5,8.731-19.5,19.5c0,8.153,16.258,32.518,19.5,32.5
				c3.191,0.018,19.5-24.456,19.5-32.5C49.732,11.722,41.004,2.99,30.232,2.99z M30.232,50.115
				c-2.701,0.014-16.25-20.832-16.25-27.625c0-8.975,7.277-16.25,16.25-16.25c8.975,0,16.25,7.275,16.25,16.25
				C46.482,29.194,32.893,50.129,30.232,50.115z"/>
		</g>
		<path fill="#D62731" d="M31.255,17.615h-1.512v5.353h1.393c2.039,0,3.24-0.84,3.24-2.736
			C34.376,18.504,33.296,17.615,31.255,17.615z"/>
	</g>
	<path fill="#D62731" d="M40.811,14.512l-3.665,3.664c0.219,0.586,0.35,1.239,0.35,1.984c0,3.576-2.543,5.376-6.336,5.376h-1.373
		l-0.043,0.043v6.054h-3.168v-2.886l-4.321,4.321c2.223,1.678,4.979,2.686,7.979,2.686c7.323,0,13.264-5.937,13.264-13.264
		C43.496,19.49,42.488,16.733,40.811,14.512z"/>
	<path fill="#D62731" d="M26.575,15.071h4.848c1.511,0,2.769,0.29,3.75,0.835l3.578-3.576c-2.306-1.936-5.274-3.104-8.519-3.104
		c-7.324,0-13.264,5.937-13.264,13.264c0,3.245,1.168,6.213,3.103,8.518l6.504-6.504V15.071z"/>
</g>
</svg>
