<?xml version="1.0" encoding="utf-8"?>
<!-- Generator: Adobe Illustrator 16.0.4, SVG Export Plug-In . SVG Version: 6.00 Build 0)  -->
<!DOCTYPE svg PUBLIC "-//W3C//DTD SVG 1.1//EN" "http://www.w3.org/Graphics/SVG/1.1/DTD/svg11.dtd">
<svg version="1.1" id="Layer_1" xmlns="http://www.w3.org/2000/svg" xmlns:xlink="http://www.w3.org/1999/xlink" x="0px" y="0px"
	 width="58px" height="58px" viewBox="0 0 58 58" enable-background="new 0 0 58 58" xml:space="preserve">
<g>
	<g>
		<g>
			<path fill="#FDFEFF" d="M30.232,6.24c-8.973,0-16.25,7.275-16.25,16.25c0,6.793,13.549,27.639,16.25,27.625
				c2.66,0.014,16.25-20.921,16.25-27.625C46.482,13.516,39.207,6.24,30.232,6.24z"/>
			<path fill="#686969" d="M30.232,2.99c-10.77,0-19.5,8.731-19.5,19.5c0,8.153,16.258,32.518,19.5,32.5
				c3.191,0.018,19.5-24.456,19.5-32.5C49.732,11.722,41.004,2.99,30.232,2.99z M30.232,50.115
				c-2.701,0.014-16.25-20.832-16.25-27.625c0-8.975,7.277-16.25,16.25-16.25c8.975,0,16.25,7.275,16.25,16.25
				C46.482,29.194,32.893,50.129,30.232,50.115z"/>
		</g>
		<polygon fill="#D62731" points="27.892,23.006 32.429,23.006 30.173,16.598 		"/>
	</g>
	<path fill="#D62731" d="M40.925,14.666l-6.088,6.088l3.232,8.637l-3.168,0.576l-1.585-4.368h-3.324l-7.584,7.585
		c2.195,1.608,4.895,2.57,7.824,2.57c7.323,0,13.264-5.937,13.264-13.264C43.496,19.56,42.534,16.86,40.925,14.666z"/>
	<path fill="#D62731" d="M28.612,13.165h3.385l1.685,4.501l5.21-5.209c-2.325-2.008-5.347-3.23-8.659-3.23
		c-7.324,0-13.264,5.937-13.264,13.264c0,3.312,1.223,6.334,3.23,8.658l2.701-2.701L28.612,13.165z"/>
</g>
</svg>
