<?xml version="1.0" encoding="utf-8"?>
<!-- Generator: Adobe Illustrator 16.0.4, SVG Export Plug-In . SVG Version: 6.00 Build 0)  -->
<!DOCTYPE svg PUBLIC "-//W3C//DTD SVG 1.1//EN" "http://www.w3.org/Graphics/SVG/1.1/DTD/svg11.dtd">
<svg version="1.1" id="Layer_1" xmlns="http://www.w3.org/2000/svg" xmlns:xlink="http://www.w3.org/1999/xlink" x="0px" y="0px"
	 width="58px" height="58px" viewBox="0 0 58 58" enable-background="new 0 0 58 58" xml:space="preserve">
<g>
	<g>
		<path fill="#FDFEFF" d="M30.27,6.721c-8.973,0-16.25,7.275-16.25,16.25c0,6.793,13.549,27.639,16.25,27.625
			c2.66,0.014,16.249-20.922,16.249-27.625C46.519,13.996,39.244,6.721,30.27,6.721z"/>
		<path fill="#686969" d="M30.232,3.471c-10.77,0-19.5,8.731-19.5,19.5c0,8.153,16.258,32.518,19.5,32.5
			c3.191,0.018,19.5-24.456,19.5-32.5C49.732,12.202,41.004,3.471,30.232,3.471z M30.232,50.596
			c-2.701,0.014-16.25-20.832-16.25-27.625c0-8.975,7.277-16.25,16.25-16.25c8.975,0,16.25,7.275,16.25,16.25
			C46.482,29.674,32.893,50.609,30.232,50.596z"/>
	</g>
	<g>
		<path fill="#D62731" d="M30.232,9.707c-7.324,0-13.264,5.937-13.264,13.264c0,7.326,5.939,13.264,13.264,13.264
			c7.323,0,13.264-5.938,13.264-13.264C43.496,15.644,37.556,9.707,30.232,9.707z M37.119,17.77c0,0-6.899,12.229-7.098,12.416
			c-0.66,0.617-1.696,0.584-2.313-0.074l-4.138-3.744c-0.618-0.659-0.585-1.695,0.075-2.312c0.659-0.618,1.695-0.585,2.312,0.075
			l2.512,2.243l5.814-10.24c0.453-0.783,1.453-1.051,2.236-0.599C37.303,15.986,37.571,16.986,37.119,17.77z"/>
	</g>
</g>
</svg>
